<?xml version="1.0" encoding="UTF-8"?>
<svg width="72px" height="72px" viewBox="0 0 72 72" version="1.1" xmlns="http://www.w3.org/2000/svg" xmlns:xlink="http://www.w3.org/1999/xlink">
    <!-- Generator: Sketch 55.2 (78181) - https://sketchapp.com -->
    <title>Icons / Head / Men</title>
    <desc>Created with Sketch.</desc>
    <g id="Icons-/-Head-/-Men" stroke="none" stroke-width="1" fill="none" fill-rule="evenodd">
        <g id="Iconos_72px-57" transform="translate(9.000000, 8.000000)">
            <path d="M41.47,45.82922 C42.44,44.44922 43.44,43.21922 44.42,42.05922 C44.0243351,42.1566965 43.6173412,42.2004231 43.21,42.18922 C42.7442221,42.1780113 42.2797787,42.1345741 41.82,42.05922 C41.15,42.88922 40.47,43.76922 39.8,44.72922 C39.3916375,45.3367471 39.2273772,46.0759184 39.34,46.79922 L40.6,54.99922 L22.16,54.99922 L22.16,50.18922 C22.2421427,49.3746373 21.9760348,48.5632988 21.4274039,47.9556011 C20.8787729,47.3479034 20.0987729,47.0005081 19.28006,46.99922 L14,46.99922 C12.3136693,46.9981238 10.9033822,45.7176177 10.74,44.03922 L9.99,35.57922 C9.87645428,34.3698792 9.01637284,33.3617837 7.84,33.05922 C7.67679714,33.0156551 7.50889198,32.9921483 7.34,32.98922 L7.33,32.98922 L2.04,33.01922 C2.15613794,32.9335487 2.26334629,32.8363911 2.36,32.72922 L9.79,24.22922 C10.0580446,23.922662 10.2286546,23.5431807 10.28005,23.13922 C10.29,23.02922 10.59005,20.42922 10.77005,18.47922 C10.9859763,16.1062845 11.7345668,13.8126578 12.96005,11.76922 C12.97,11.77922 12.94005,11.76922 12.82005,11.73922 C11.95005,11.55922 11.46005,11.42922 11.46005,11.42922 C11.29005,11.36922 11.13005,11.30922 10.96005,11.23922 C10.9508439,11.2338594 10.9406312,11.2304552 10.93005,11.22922 C9.73782291,13.410636 9.00605494,15.8135578 8.78005,18.28922 C8.6,20.23922 8.29,22.90922 8.29,22.90922 L0.85,31.40922 C0.187245009,31.8786337 -0.127779468,32.7008497 0.0516434152,33.4929361 C0.231066298,34.2850225 0.869655553,34.8912266 1.67,35.02922 L7.34005,34.98922 C7.70123858,35.0860568 7.96433179,35.3969852 8.00005,35.76922 L8.75005,44.21922 C9.01290356,46.9243256 11.2822178,48.9904822 14.00005,48.99922 L19.28005,48.99922 C19.5460604,48.9999959 19.7980183,49.1187463 19.9679277,49.3234239 C20.1378371,49.5281015 20.2081863,49.797611 20.15999,50.05922 L20.15999,55.93922 C20.1076876,56.1997749 20.1751465,56.4700455 20.3437544,56.6754616 C20.5123623,56.8808778 20.7642979,56.9997278 21.03005,56.9992216 L41.89,56.9992216 C42.1503475,56.9985359 42.3974306,56.8842602 42.5665464,56.6863179 C42.7356621,56.4883756 42.8099659,56.2264825 42.77,55.96922 L41.32,46.49922 C41.2830209,46.2649391 41.336656,46.0253688 41.47,45.82922 Z" id="Path" fill="#414345" fill-rule="nonzero"></path>
            <path d="M44.42,42.05927 C52.72,40.19922 59.76,17.77927 49.37,13.80927 C49.48,7.99927 49.55,-0.47073 26.28,0.69927 C24.3932959,0.888705849 22.5198443,1.19259907 20.67,1.60927 C14.05,2.72927 11.26,3.03927 3.81,1.90927 C3.56,7.54927 6.28,9.40927 10.93,11.22927 C10.9405812,11.2305052 10.9507939,11.2339094 10.96,11.23927 C11.17,11.29927 12.41,11.63927 12.82,11.73927 C12.94,11.76927 12.97,11.77927 12.96,11.76927 C16.9,12.61927 27.82,14.47927 36.33,11.42927 C36.33,11.42927 28.53,39.89927 41.82,42.05927 L44.42,42.05927 Z" id="Path" stroke="#E73638" stroke-width="2" stroke-linejoin="round"></path>
        </g>
    </g>
</svg>