<?xml version="1.0" encoding="UTF-8"?>
<svg width="72px" height="72px" viewBox="0 0 72 72" version="1.1" xmlns="http://www.w3.org/2000/svg" xmlns:xlink="http://www.w3.org/1999/xlink">
    <!-- Generator: Sketch 55.2 (78181) - https://sketchapp.com -->
    <title>Icons / Head / Old Men</title>
    <desc>Created with Sketch.</desc>
    <g id="Icons-/-Head-/-Old-Men" stroke="none" stroke-width="1" fill="none" fill-rule="evenodd">
        <g id="Iconos_72px-58" transform="translate(9.000000, 8.000000)">
            <path d="M41.32,46.52924 L42.77,55.99924 C42.8099836,56.2565056 42.7356862,56.5184086 42.5665667,56.7163552 C42.3974472,56.9143019 42.1503533,57.0285729 41.89,57.0292416 L21.03,57.0292416 C20.7642479,57.0297478 20.5123123,56.9108978 20.3437044,56.7054816 C20.1750965,56.5000655 20.1076376,56.2297949 20.15994,55.96924 L20.15994,50.08924 C20.2081289,49.8276322 20.137777,49.5581267 19.9678691,49.353451 C19.7979612,49.1487753 19.5460079,49.030023 19.28,49.02924 L14,49.02924 C11.282166,49.0205068 9.01284911,46.9543478 8.75,44.24924 L8.46,40.99924 L10.47,40.99924 L10.74,44.06918 C10.9033643,45.7475867 12.3136621,47.0281024 14,47.02918 L19.28,47.02918 C20.0987149,47.0304619 20.8787188,47.3778554 21.4273511,47.9855545 C21.9759835,48.5932537 22.2420891,49.4045959 22.15994,50.21918 L22.15994,55.02918 L40.6,55.02918 L39.34,46.82918 C39.2273892,46.1058788 39.3916485,45.3667118 39.8,44.75918 C40.86,43.23918 41.95,41.92918 43,40.67918 C43.16,40.48918 43.32,40.30918 43.47,40.11918 C44.68,38.61918 45.7,37.24918 46.57,35.99918 L48.76,35.99918 C46.48,39.43918 44.06,42.13913 41.47,45.85918 C41.3366324,46.0553412 41.2829959,46.2949393 41.32,46.52924 Z" id="Path" fill="#414345" fill-rule="nonzero"></path>
            <path d="M52.57,15.99927 L50.46,15.99927 C47.7298788,8.1871011 40.3352988,2.97472591 32.06,3.02927 C31.39,3.02927 29.18,3.00927 28.98,3.03927 C24.1035728,3.10698292 19.4212934,4.9606817 15.82,8.24927 C12.9359317,10.9346359 11.1387826,14.5858736 10.77,18.50927 C10.59,20.45927 10.29,23.05932 10.28,23.16927 C10.2286016,23.5732298 10.0579921,23.9527104 9.78995,24.25927 L2.35995,32.75927 C2.26329403,32.8664389 2.15608591,32.9635962 2.03995,33.04927 L7.32995,33.01927 L7.33995,33.01927 C7.50883927,33.0222329 7.67674027,33.045739 7.83995,33.08927 C8.35684021,33.2222041 8.82513358,33.4997113 9.18995,33.88927 C8.07995,33.90927 7.24995,33.92927 7.24995,33.92927 L7.01995,35.01927 L1.66995,35.05927 C0.869611863,34.9212678 0.231030937,34.3150644 0.0516090984,33.5229826 C-0.127812741,32.7309008 0.187204492,31.9086889 0.84995,31.43927 L8.28995,22.93927 C8.28995,22.93927 8.59995,20.26927 8.78,18.31921 C9.75,8.03921 18.58,1.41921 28.8,1.04921 C28.8117399,1.04127064 28.8259051,1.03772933 28.84,1.03921 C29.9115918,0.955821557 30.9879109,0.952478951 32.06,1.02921 C41.4449444,0.96554814 49.7696099,7.04164482 52.57,15.99927 L52.57,15.99927 Z" id="Path" fill="#414345" fill-rule="nonzero"></path>
            <path d="M53,18.02325 C53.5520266,18.0238727 53.9993773,18.4712234 54,19.02325 L54,33.02325 C53.9993773,33.5752766 53.5520266,34.0226273 53,34.02325 L37.373,34.02477 L37.36564,34.01824 C38.39945,32.85839 42.89045,27.50561 41.247,23.82012 C40.84455,22.91766 39.73136,21.40362 36.7976,21.40331 C36.64028,21.40325 36.47798,21.40746 36.30873,21.41613 C33.44531,21.56304 31.97337,23.93813 30.99935,25.50988 C30.7213423,26.0152088 30.3860125,26.4868079 30,26.91534 L30,19.02325 C30.0006227,18.4712234 30.4479734,18.0238727 31,18.02325 L53,18.02325 L53,18.02325 Z M53,16.02322 L31,16.02322 C29.3431458,16.02322 28,17.3663958 28,19.02325 L28,26.91534 C28.0003551,27.4462602 28.2116906,27.9552755 28.5874792,28.3303213 C28.9632678,28.7053672 29.4727001,28.9156953 30.00362,28.915 C30.3677091,28.9143504 30.7245623,28.8132728 31.03491,28.62289 C32.68497,27.62307 33.4955,23.56307 36.41116,23.41348 C36.54488,23.40664 36.67311,23.40322 36.79741,23.40328 C41.8416,23.40377 39.20699,28.97488 35.83589,32.72848 C35.330764,33.325746 35.2197617,34.1625029 35.5516932,34.870811 C35.8836246,35.5791192 36.5976862,36.0292299 37.37989,36.0232794 L53,36.0232794 C54.6568542,36.0232794 56,34.6800742 56,33.02322 L56,19.02322 C56,17.3663658 54.6568542,16.02322 53,16.02322 L53,16.02322 Z" id="Shape" fill="#E73638" fill-rule="nonzero"></path>
            <path d="M20.15,40.99927 L5.74,40.99927 L7.02,35.01927 L7.25,33.92927 C7.25,33.92927 8.08,33.90927 9.19,33.88927 C11.35,33.84927 14.56,33.81927 14.67,33.92927 C14.86,34.11926 20.15,40.99927 20.15,40.99927 Z" id="Path" stroke="#E73638" stroke-width="2" stroke-linejoin="round"></path>
        </g>
    </g>
</svg>