<?xml version="1.0" encoding="UTF-8"?>
<svg width="72px" height="72px" viewBox="0 0 72 72" version="1.1" xmlns="http://www.w3.org/2000/svg" xmlns:xlink="http://www.w3.org/1999/xlink">
    <!-- Generator: Sketch 55.2 (78181) - https://sketchapp.com -->
    <title>Icons / Head / Old Woman</title>
    <desc>Created with Sketch.</desc>
    <g id="Icons-/-Head-/-Old-Woman" stroke="none" stroke-width="1" fill="none" fill-rule="evenodd">
        <g id="Iconos_72px-60" transform="translate(9.000000, 7.000000)">
            <path d="M41.32,47.52924 L42.77,56.99924 C42.8099836,57.2565056 42.7356862,57.5184086 42.5665667,57.7163552 C42.3974472,57.9143019 42.1503533,58.0285729 41.89,58.0292416 L21.03,58.0292416 C20.7642479,58.0297478 20.5123123,57.9108978 20.3437044,57.7054816 C20.1750965,57.5000655 20.1076376,57.2297949 20.15994,56.96924 L20.15994,51.08924 C20.2081289,50.8276322 20.137777,50.5581267 19.9678691,50.353451 C19.7979612,50.1487753 19.5460079,50.030023 19.28,50.02924 L14,50.02924 C11.282166,50.0205068 9.01284911,47.9543478 8.75,45.24924 L8,36.79924 C7.96424267,36.4270217 7.70116583,36.1161127 7.34,36.01924 L1.67,36.05924 C0.869661863,35.9212378 0.231080937,35.3150344 0.0516590984,34.5229526 C-0.127762741,33.7308708 0.187254492,32.9086589 0.85,32.43924 L8.29,23.93924 C8.29,23.93924 8.6,21.26924 8.78005,19.31918 C8.93029371,17.6986018 9.29341902,16.1048852 9.86005,14.57918 C9.98946455,14.8838845 10.2005677,15.1468983 10.47005,15.33918 C10.7101,15.50918 11.05005,15.73918 11.50005,16.00918 C11.1219443,17.1436258 10.8769675,18.3181721 10.77005,19.50918 C10.59005,21.45918 10.29005,24.05923 10.28005,24.16918 C10.2286516,24.5731398 10.0580421,24.9526204 9.79,25.25918 L2.36,33.75918 C2.26334403,33.8663489 2.15613591,33.9635062 2.04,34.04918 L7.33,34.01918 L7.34,34.01918 C7.50888927,34.0221429 7.67679027,34.045649 7.84,34.08918 C9.01636296,34.3917595 9.8764371,35.3998464 9.99,36.60918 L10.74,45.06918 C10.9033643,46.7475867 12.3136621,48.0281024 14,48.02918 L19.28,48.02918 C20.0987149,48.0304619 20.8787188,48.3778554 21.4273511,48.9855545 C21.9759835,49.5932537 22.2420891,50.4045959 22.15994,51.21918 L22.15994,56.02918 L40.6,56.02918 L39.34,47.82918 C39.2273892,47.1058788 39.3916485,46.3667118 39.8,45.75918 C40.21,45.17918 41.95,46.16918 41.47,46.85918 C41.3366324,47.0553412 41.2829959,47.2949393 41.32,47.52924 Z" id="Path" fill="#414345" fill-rule="nonzero"></path>
            <path d="M48.95505,2.04492 C52.8210432,2.04492 55.95505,5.17892675 55.95505,9.04492 C55.95505,12.9109132 52.8210432,16.04492 48.95505,16.04492 C45.0890568,16.04492 41.95505,12.9109132 41.95505,9.04492 C41.95505,5.17892675 45.0890568,2.04492 48.95505,2.04492 L48.95505,2.04492 Z M48.95505,0.04492 C43.9844873,0.04492 39.95505,4.07435725 39.95505,9.04492 C39.95505,14.0154827 43.9844873,18.04492 48.95505,18.04492 C53.9256127,18.04492 57.95505,14.0154827 57.95505,9.04492 C57.9494454,4.07668061 53.9232894,0.050524616 48.95505,0.04492 L48.95505,0.04492 Z" id="Shape" fill="#E73638" fill-rule="nonzero"></path>
            <path d="M50.46461,16.415 C54.7487,22.32271 48.86716,31.98747 50.23279,39.57676 C51.78519,48.204 28.613,50.476 31.99994,34.39634 C34.51743,22.44434 32.25605,20.25144 21.89763,19.36094 C16.01229,18.85499 11.45493,16.51494 10.46825,15.3365 C6,10 9.88068,-0.74437 28,0.39742 C28,0.39742 37.02885,0.6871 42.89,3.9259" id="Path" stroke="#E73638" stroke-width="2"></path>
        </g>
    </g>
</svg>