<?xml version="1.0" encoding="UTF-8"?>
<svg width="72px" height="72px" viewBox="0 0 72 72" version="1.1" xmlns="http://www.w3.org/2000/svg" xmlns:xlink="http://www.w3.org/1999/xlink">
    <!-- Generator: Sketch 55.2 (78181) - https://sketchapp.com -->
    <title>Icons /  Head / Pain</title>
    <desc>Created with Sketch.</desc>
    <g id="Icons-/--Head-/-Pain" stroke="none" stroke-width="1" fill="none" fill-rule="evenodd">
        <g id="Iconos_72px-31" transform="translate(8.000000, 8.000000)" fill-rule="nonzero">
            <path d="M42,2 C46.8535524,2 51.2291916,4.92371263 53.0865601,9.40781267 C54.9439286,13.8919127 53.9172486,19.0533314 50.4852602,22.4853026 C47.0532718,25.9172738 41.891848,26.9439281 37.4077572,25.0865372 C32.9236665,23.2291463 30,18.8534924 30,13.99994 C30.0075169,7.37564881 35.3757088,2.00748376 42,2 L42,2 Z M42,-1.77635684e-15 C36.3375231,-1.77635684e-15 31.2326113,3.41099698 29.0656808,8.64244581 C26.8987503,13.8738946 28.0965419,19.8955489 32.1005263,23.8995161 C36.1045107,27.9034834 42.1261701,29.1012491 47.3576096,26.9342962 C52.5890492,24.7673433 56,19.6624169 56,13.99994 C56,6.26800439 49.7319356,-1.77635684e-15 42,-1.77635684e-15 Z" id="Shape" fill="#E73638"></path>
            <path d="M29.57835,0.00049 C19.03052,0.06049 9.77359,6.74589 8.77695,17.28768 C8.59684,19.24192 8.28895,21.90956 8.28895,21.90956 L0.85024,30.41148 C0.186525226,30.8793578 -0.129120066,31.7015983 0.0510166579,32.4934175 C0.231153382,33.2852368 0.87143938,33.8900055 1.67224,34.02471 L7.34067,33.99422 C7.7030159,34.0892872 7.96775636,34.4000508 8.00403,34.7729 L8.74795,43.2151 C9.00883261,45.9236769 11.2811673,47.9930017 14.00227,48 L19.28265,48 C19.5481743,48.0010033 19.7995325,48.1199066 19.9687287,48.3245449 C20.1379248,48.5291831 20.2074732,48.7984079 20.15856,49.05939 L20.15566,54.94061 C20.1067465,55.2015938 20.1762961,55.4708203 20.3454945,55.675459 C20.5146929,55.8800976 20.766054,55.9989997 21.03158,56 L41.88915,56 C42.1492243,56 42.396336,55.8864493 42.5657267,55.6891033 C42.7351174,55.4917572 42.8099011,55.2302893 42.77048,54.97322 L41.31709,45.49546 C41.2821185,45.2629067 41.3370732,45.0257662 41.47077,44.8323 C45.28186,39.3563 49.68315,36.47978 51.33141,29.23342 C51.4009241,28.935929 51.3313193,28.6229708 51.142266,28.3829876 C50.9532127,28.1430044 50.6652477,28.0020653 50.35975,28 L50.35975,28 C49.8893722,28.0044537 49.4850294,28.3346201 49.38662,28.79461 C48.35112,33.355 46.10924,35.9909 43.47121,39.09261 C42.1707609,40.5749579 40.9462417,42.1222341 39.80236,43.72849 C39.3896841,44.3342544 39.2243338,45.0749212 39.3402,45.79868 L40.59787,54 L22.15613,54 L22.1585,49.19148 C22.2425293,48.3770337 21.9776857,47.5651006 21.4295873,46.9568474 C20.8814889,46.3485942 20.1014191,46.0009325 19.28265,46 L14.00227,46 C12.3148996,46.0002041 10.9032234,44.7190236 10.74027,43.03954 L9.99427,34.57561 C9.87232613,33.3704833 9.01552904,32.3674528 7.84427,32.05866 C7.67980295,32.0158689 7.5105526,31.9942144 7.34061,31.99422 L7.32988,31.99422 L2.03502,32.02271 C2.15218802,31.9365517 2.25960683,31.8378679 2.35537,31.72841 L9.79405,23.2265 C10.0611719,22.9211867 10.2291414,22.5418656 10.27567,22.13887 C10.28835,22.02901 10.5883,19.42587 10.76801,17.47587 C11.61035,8.56603 19.52601,2.05764 29.58981,2.00041 M29.57828,0.000393025961 C30.1305647,-0.00277389821 30.580861,0.442360267 30.584045,0.994645 C30.5872289,1.54692973 30.1420947,1.99722606 29.58981,2.00041" id="Shape" fill="#3F4143"></path>
            <path d="M38.4126,22.10974 L42.9067,13.56839 C40.83346,13.55179 39.52783,13.55213 39.17725,13.57752 C38.8023927,13.6380319 38.4250985,13.4843212 38.19925,13.17908 C37.69046,12.47889 37.69046,12.47889 43.50491,4.64099 C43.8339088,4.19738111 44.4602311,4.10447126 44.90384,4.43347003 C45.3474489,4.76246881 45.4403588,5.38879108 45.11136,5.8324 C43.58743,7.88709 41.94485,10.1254 40.91702,11.55799 C41.91165,11.57166 43.33157,11.56775 45.45267,11.59217 C45.8279724,11.596446 46.1692535,11.8105904 46.336363,12.1466627 C46.5034724,12.4827351 46.468246,12.884095 46.24515,13.18592 L38.4126,22.10974 Z" id="Path" fill="#E73638"></path>
        </g>
        <g id="Iconos_72px-31" transform="translate(8.000000, 8.000000)" fill-rule="nonzero">
            <path d="M42,2 C46.8535524,2 51.2291916,4.92371263 53.0865601,9.40781267 C54.9439286,13.8919127 53.9172486,19.0533314 50.4852602,22.4853026 C47.0532718,25.9172738 41.891848,26.9439281 37.4077572,25.0865372 C32.9236665,23.2291463 30,18.8534924 30,13.99994 C30.0075169,7.37564881 35.3757088,2.00748376 42,2 L42,2 Z M42,-1.77635684e-15 C36.3375231,-1.77635684e-15 31.2326113,3.41099698 29.0656808,8.64244581 C26.8987503,13.8738946 28.0965419,19.8955489 32.1005263,23.8995161 C36.1045107,27.9034834 42.1261701,29.1012491 47.3576096,26.9342962 C52.5890492,24.7673433 56,19.6624169 56,13.99994 C56,6.26800439 49.7319356,-1.77635684e-15 42,-1.77635684e-15 Z" id="Shape" fill="#E73638"></path>
            <path d="M29.57835,0.00049 C19.03052,0.06049 9.77359,6.74589 8.77695,17.28768 C8.59684,19.24192 8.28895,21.90956 8.28895,21.90956 L0.85024,30.41148 C0.186525226,30.8793578 -0.129120066,31.7015983 0.0510166579,32.4934175 C0.231153382,33.2852368 0.87143938,33.8900055 1.67224,34.02471 L7.34067,33.99422 C7.7030159,34.0892872 7.96775636,34.4000508 8.00403,34.7729 L8.74795,43.2151 C9.00883261,45.9236769 11.2811673,47.9930017 14.00227,48 L19.28265,48 C19.5481743,48.0010033 19.7995325,48.1199066 19.9687287,48.3245449 C20.1379248,48.5291831 20.2074732,48.7984079 20.15856,49.05939 L20.15566,54.94061 C20.1067465,55.2015938 20.1762961,55.4708203 20.3454945,55.675459 C20.5146929,55.8800976 20.766054,55.9989997 21.03158,56 L41.88915,56 C42.1492243,56 42.396336,55.8864493 42.5657267,55.6891033 C42.7351174,55.4917572 42.8099011,55.2302893 42.77048,54.97322 L41.31709,45.49546 C41.2821185,45.2629067 41.3370732,45.0257662 41.47077,44.8323 C45.28186,39.3563 49.68315,36.47978 51.33141,29.23342 C51.4009241,28.935929 51.3313193,28.6229708 51.142266,28.3829876 C50.9532127,28.1430044 50.6652477,28.0020653 50.35975,28 L50.35975,28 C49.8893722,28.0044537 49.4850294,28.3346201 49.38662,28.79461 C48.35112,33.355 46.10924,35.9909 43.47121,39.09261 C42.1707609,40.5749579 40.9462417,42.1222341 39.80236,43.72849 C39.3896841,44.3342544 39.2243338,45.0749212 39.3402,45.79868 L40.59787,54 L22.15613,54 L22.1585,49.19148 C22.2425293,48.3770337 21.9776857,47.5651006 21.4295873,46.9568474 C20.8814889,46.3485942 20.1014191,46.0009325 19.28265,46 L14.00227,46 C12.3148996,46.0002041 10.9032234,44.7190236 10.74027,43.03954 L9.99427,34.57561 C9.87232613,33.3704833 9.01552904,32.3674528 7.84427,32.05866 C7.67980295,32.0158689 7.5105526,31.9942144 7.34061,31.99422 L7.32988,31.99422 L2.03502,32.02271 C2.15218802,31.9365517 2.25960683,31.8378679 2.35537,31.72841 L9.79405,23.2265 C10.0611719,22.9211867 10.2291414,22.5418656 10.27567,22.13887 C10.28835,22.02901 10.5883,19.42587 10.76801,17.47587 C11.61035,8.56603 19.52601,2.05764 29.58981,2.00041 M29.57828,0.000393025961 C30.1305647,-0.00277389821 30.580861,0.442360267 30.584045,0.994645 C30.5872289,1.54692973 30.1420947,1.99722606 29.58981,2.00041" id="Shape" fill="#3F4143"></path>
            <path d="M38.4126,22.10974 L42.9067,13.56839 C40.83346,13.55179 39.52783,13.55213 39.17725,13.57752 C38.8023927,13.6380319 38.4250985,13.4843212 38.19925,13.17908 C37.69046,12.47889 37.69046,12.47889 43.50491,4.64099 C43.8339088,4.19738111 44.4602311,4.10447126 44.90384,4.43347003 C45.3474489,4.76246881 45.4403588,5.38879108 45.11136,5.8324 C43.58743,7.88709 41.94485,10.1254 40.91702,11.55799 C41.91165,11.57166 43.33157,11.56775 45.45267,11.59217 C45.8279724,11.596446 46.1692535,11.8105904 46.336363,12.1466627 C46.5034724,12.4827351 46.468246,12.884095 46.24515,13.18592 L38.4126,22.10974 Z" id="Path" fill="#E73638"></path>
        </g>
    </g>
</svg>