<?xml version="1.0" encoding="UTF-8"?>
<svg width="72px" height="72px" viewBox="0 0 72 72" version="1.1" xmlns="http://www.w3.org/2000/svg" xmlns:xlink="http://www.w3.org/1999/xlink">
    <!-- Generator: Sketch 55.2 (78181) - https://sketchapp.com -->
    <title>Icons / Head / Woman</title>
    <desc>Created with Sketch.</desc>
    <g id="Icons-/-Head-/-Woman" stroke="none" stroke-width="1" fill="none" fill-rule="evenodd">
        <g id="Iconos_72px-59" transform="translate(9.000000, 6.000000)">
            <path d="M42.77,57.99927 C42.8099836,58.2565356 42.7356862,58.5184386 42.5665667,58.7163852 C42.3974472,58.9143319 42.1503533,59.0286029 41.89,59.0292716 L21.03,59.0292716 C20.7642479,59.0297778 20.5123123,58.9109278 20.3437044,58.7055116 C20.1750965,58.5000955 20.1076376,58.2298249 20.15994,57.96927 L20.15994,52.08927 C20.2081289,51.8276622 20.137777,51.5581567 19.9678691,51.353481 C19.7979612,51.1488053 19.5460079,51.030053 19.28,51.02927 L14,51.02927 C11.282166,51.0205368 9.01284911,48.9543778 8.75,46.24927 L8,37.79927 C7.96424267,37.4270517 7.70116583,37.1161427 7.34,37.01927 L1.67,37.05927 C0.869661863,36.9212678 0.231080937,36.3150644 0.0516590984,35.5229826 C-0.127762741,34.7309008 0.187254492,33.9086889 0.85,33.43927 L8.29,24.93927 C8.29,24.93927 8.6,22.26927 8.78005,20.31921 C8.92878904,18.6909429 9.29539504,17.0900047 9.87005,15.55927 C10.27005,16.22927 10.74005,16.93927 11.29005,17.68927 C11.0343133,18.6121755 10.8603085,19.5558003 10.77005,20.50922 C10.59005,22.45922 10.29005,25.05927 10.28005,25.16922 C10.2286516,25.5731798 10.0580421,25.9526604 9.79,26.25922 L2.36,34.75922 C2.26334403,34.8663889 2.15613591,34.9635462 2.04,35.04922 L7.33,35.01922 L7.34,35.01922 C7.50888927,35.0221829 7.67679027,35.045689 7.84,35.08922 C9.01636296,35.3917995 9.8764371,36.3998864 9.99,37.60922 L10.74,46.06922 C10.9033643,47.7476267 12.3136621,49.0281424 14,49.02922 L19.28,49.02922 C20.0987149,49.0305019 20.8787188,49.3778954 21.4273511,49.9855945 C21.9759835,50.5932937 22.2420891,51.4046359 22.15994,52.21922 L22.15994,57.02922 L40.6,57.02922 L39.68549,51.17 C39.6688582,51.0574732 39.6621657,50.9437007 39.66549,50.83 C40.31549,50.91 40.99549,50.97 41.68549,51.01 L42.77,57.99927 Z" id="Path" fill="#414345" fill-rule="nonzero"></path>
            <path d="M55.26,48.11928 C50.9330796,50.2035698 46.1247863,51.0843994 41.34,50.66928 C40.65,50.62928 39.96994,50.56928 39.32,50.48928 C35.3026669,50.0617634 31.3646716,49.0755816 27.62,47.55928 C30.2387428,41.8139129 30.3761837,35.2437354 28,29.39388 C19.73,25.84388 14.07,21.41925 11.29,17.68927 C10.74,16.93927 10.27,16.22927 9.87,15.55927 C8.90825341,14.0532417 8.1863114,12.406944 7.73,10.67927 C7.73,10.67927 14.96,-4.31073 41.17,2.36927 C59.01,6.91927 54.70785,24.78774 52.46,33.25927 C51.0449576,38.3790736 52.0787449,43.8655345 55.26,48.11928 L55.26,48.11928 Z" id="Path" stroke="#E73638" stroke-width="2" stroke-linecap="round" stroke-linejoin="round"></path>
        </g>
    </g>
</svg>