<svg xmlns="http://www.w3.org/2000/svg" width="26" height="25" viewBox="0 0 26 25">
    <path fill="#FFF" fill-rule="nonzero" d="M25.116 15.327V25h-5.383v-9.025c0-2.267-.779-3.814-2.727-3.814-1.488 0-2.373 1.043-2.762 2.051-.142.36-.179.863-.179 1.368V25H8.68s.073-15.285 0-16.869h5.385v2.392l-.036.054h.036v-.054c.715-1.148 1.993-2.788 4.852-2.788 3.543 0 6.2 2.411 6.2 7.592zM3.047 0C1.205 0 0 1.259 0 2.914 0 4.534 1.17 5.83 2.976 5.83h.036c1.878 0 3.045-1.297 3.045-2.916C6.022 1.259 4.89 0 3.047 0zM.32 25h5.383V8.131H.32V25z"/>
</svg>
