<?xml version="1.0" encoding="UTF-8"?>
<svg width="72px" height="72px" viewBox="0 0 72 72" version="1.1" xmlns="http://www.w3.org/2000/svg" xmlns:xlink="http://www.w3.org/1999/xlink">
    <!-- Generator: Sketch 55.2 (78181) - https://sketchapp.com -->
    <title>Icons / Develop / Page</title>
    <desc>Created with Sketch.</desc>
    <g id="Icons-/-Develop-/-Page" stroke="none" stroke-width="1" fill="none" fill-rule="evenodd">
        <g id="Iconos_72px-17" transform="translate(8.000000, 8.000000)">
            <path d="M54.00276,0.00064 L10.08331,0.00064 C9.55319805,0.00064 9.04490224,0.211735598 8.67031442,0.586839181 C8.29572661,0.961942764 8.08555321,1.47052825 8.08606,2.00064 L8.01621,38 L2.07459,38 C1.54447897,38.0002226 1.03618418,38.2110959 0.661597953,38.5861998 C0.287011726,38.9613037 0.0768405576,39.4698892 0.07735,40 L0.01743,48.27 L0.01743,48.28 L0.0075,49.54 C0.00276356228,49.5435312 -2.67938408e-05,49.5490921 -2.67938408e-05,49.555 C-2.67938408e-05,49.5609079 0.00276356228,49.5664688 0.0075,49.57 C0.135691146,51.1963133 0.832120552,52.7256436 1.97475,53.89 L1.97475,53.9 C2.00881696,53.9360273 2.04553286,53.969454 2.08459,54 C3.38536382,55.28387 5.14021359,56.0025876 6.96787,56.000021 L49.00964,56.000021 C50.8376717,56.0045037 52.5932228,55.2854988 53.89292,54 C53.9343669,53.9685009 53.9713212,53.9314928 54.00276,53.89 C55.2870872,52.5870108 56.0048931,50.82955 56.0000249,49 L56.0000249,2.00064 C56.0000249,1.47052917 55.7903383,0.961943658 55.415752,0.586839787 C55.0411658,0.211735916 54.532871,0.00064 54.00276,0.00064 Z M6.96787,54 C4.41187722,53.9940152 2.27155048,52.062036 2.00474,49.52 L2.00474,49.51 C1.9847869,49.3407319 1.97455359,49.17044 1.97455359,49 C1.97279002,48.8059178 1.98614137,48.6119839 2.01467,48.42 L2.04467,44.03 L2.07459,40 L42.01929,40 L42.01929,49 C42.0143969,50.82955 42.7322028,52.5870108 44.01653,53.89 C44.04795,53.9315091 44.0849067,53.9685196 44.12637,54 L6.96787,54 Z M54.002765,49 C54.0052869,50.7855513 53.0541576,52.4365509 51.5082446,53.3300568 C49.9623316,54.2235627 48.0569584,54.2235627 46.5110454,53.3300568 C44.9651324,52.4365509 44.0140031,50.7855513 44.01653,49 L44.01653,40 C44.0170394,39.4698892 43.8068683,38.9613037 43.432282,38.5861998 C43.0576958,38.2110959 42.549401,38.0002226 42.01929,38 L10.01346,38 L10.08331,2.00066 L54.002765,2.00066 L54.002765,49 Z" id="Shape" fill="#3F4143" fill-rule="nonzero"></path>
            <polyline id="Path" stroke="#E73638" stroke-width="2" stroke-linecap="round" stroke-linejoin="round" points="25.503 15.5 18 23 25.503 30.5"></polyline>
            <polyline id="Path" stroke="#E73638" stroke-width="2" stroke-linecap="round" stroke-linejoin="round" points="38.497 30.5 46 23 38.497 15.5"></polyline>
        </g>
    </g>
</svg>