<?xml version="1.0" encoding="UTF-8"?>
<svg width="72px" height="72px" viewBox="0 0 72 72" version="1.1" xmlns="http://www.w3.org/2000/svg" xmlns:xlink="http://www.w3.org/1999/xlink">
    <!-- Generator: Sketch 55.2 (78181) - https://sketchapp.com -->
    <title>Icons / Develop / Web</title>
    <desc>Created with Sketch.</desc>
    <g id="Icons-/-Develop-/-Web" stroke="none" stroke-width="1" fill="none" fill-rule="evenodd">
        <g id="Iconos_72px-09" transform="translate(4.000000, 12.000000)">
            <path d="M39.37494,39.96127 L41.51413,49.99936 L22.43579,49.99936 L24.61618,39.96127 L39.37494,39.96127 L39.37494,39.96127 Z M40.99414,37.96063 L23.00345,37.96063 L19.95392,52 L43.98605,52 L40.99414,37.96063 Z" id="Shape" fill="#3F4143" fill-rule="nonzero"></path>
            <path d="M12.94455,51.02735 L50.99543,51.02735" id="Path" stroke="#3F4143" stroke-width="2.00064" stroke-linecap="round" stroke-linejoin="round"></path>
            <path d="M0,28.48007 L62.64916,28.48007" id="Path" stroke="#3F4143" stroke-width="2.00064" stroke-linejoin="round"></path>
            <path d="M61.99732,1.9986 L61.76684,37.97343 L2.0198,37.97343 L2.00358,1.9986 L61.99732,1.9986 L61.99732,1.9986 Z M0.0009,1.9995 L0.01712,37.97433 C0.018759173,39.0788898 0.915239517,39.9731275 2.0198,39.9720011 L61.7668,39.9720011 C62.8667342,39.9731134 63.7612763,39.0860845 63.76944,37.98618 L64.000029,2.01138 C64.002866,1.47856352 63.7930698,0.966615648 63.4171237,0.589036347 C63.0411775,0.211457046 62.5301439,-0.000556346814 61.99732,-1.09217676e-06 L2.00358,-1.09217676e-06 C1.47282138,-0.000541286894 0.963599354,0.209844359 0.587998058,0.584849249 C0.212396762,0.959854138 0.0009,1.46874119 0.0009,1.9995 Z" id="Shape" fill="#3F4143" fill-rule="nonzero"></path>
            <path d="M25.96196,32.89763 L37.97803,32.89763" id="Path" stroke="#E73638" stroke-width="2.00064" stroke-linecap="round" stroke-linejoin="round"></path>
        </g>
        <polyline id="Path-Copy" stroke="#E73638" stroke-width="2" stroke-linecap="round" stroke-linejoin="round" points="29.0024 22 23 28 29.0024 34"></polyline>
        <polyline id="Path-Copy-2" stroke="#E73638" stroke-width="2" stroke-linecap="round" stroke-linejoin="round" points="43 34 49.0024 28 43 22"></polyline>
    </g>
</svg>