<?xml version="1.0" encoding="UTF-8"?>
<svg width="72px" height="72px" viewBox="0 0 72 72" version="1.1" xmlns="http://www.w3.org/2000/svg" xmlns:xlink="http://www.w3.org/1999/xlink">
    <!-- Generator: Sketch 55.2 (78181) - https://sketchapp.com -->
    <title>Icons / People / Client</title>
    <desc>Created with Sketch.</desc>
    <defs>
        <rect id="path-1" x="0" y="0.44885" width="56" height="17"></rect>
        <path d="M15.8042969,39.5 C15.8042969,38.9955729 16.3736979,37.7395069 17.5125,35.7318021 L34.5113281,35.7318021 L37.2624973,41.1188004 L51.0242188,25.4082031 L45.5640625,0.283984375 L7.92146297,0 L1,20.9289063 L11.2347656,39.5 C14.2811198,40.0044271 15.8042969,40.0044271 15.8042969,39.5 Z" id="path-3"></path>
    </defs>
    <g id="Icons-/-People-/-Client" stroke="none" stroke-width="1" fill="none" fill-rule="evenodd">
        <g id="Iconos_72px-66" transform="translate(9.000000, 6.000000)">
            <g id="Shape" transform="translate(0.695703, 0.000000)">
                <g transform="translate(0.000000, 41.551150)">
                    <mask id="mask-2" fill="white">
                        <use xlink:href="#path-1"></use>
                    </mask>
                    <g id="Mask"></g>
                    <path d="M46.0142969,4.29 C43.731061,2.92669899 41.1498512,2.14066571 38.4942969,2 L32.8042969,2 L32.8042969,-0.66 C36.4051664,-2.74372748 39.1191243,-6.0730388 40.4342969,-10.02 C40.6789043,-9.97976967 40.9264034,-9.95970218 41.1742969,-9.96 C43.9971341,-9.95929032 46.3636648,-12.0926272 46.6547475,-14.9004166 C46.9458303,-17.7082059 45.0672484,-20.2816325 42.3042969,-20.86 L42.3042969,-21.04 C42.3042969,-30.41 35.6942969,-39 26.3042969,-39 C16.9142969,-39 10.3042969,-30.41 10.3042969,-21.04 L10.3042969,-20.86 C7.54130397,-20.2816745 5.66267342,-17.7082287 5.95375946,-14.9004076 C6.24484549,-12.0925865 8.61142783,-9.95924075 11.4342969,-9.96 C11.6449881,-9.95807325 11.8555412,-9.97144171 12.0642969,-10 C13.6242969,-5.65 16.2442969,-2.36005 19.8042969,-0.56 L19.8042969,2 L14.1142969,2 C9.80429687,2 2.30429687,5.5 2.30429687,9.81 C2.30429687,10.96 2.77429687,15.39014 3.53429687,16.15009 C4.3183771,16.9370445 5.3834058,17.38009 6.49429687,17.38009 L46.1142969,17.38009 C49.1110869,17.38009 50.3042969,12.11995 50.3042969,9.80996 C50.3042969,7.65999 48.4242969,5.70003 46.0142969,4.29 Z M14.0742969,-10.64 L14.0642969,-10.67 C13.71323,-11.5745357 12.7847772,-12.1175148 11.8242969,-11.98 C11.6481613,-11.9631551 11.4712011,-11.9564774 11.2942969,-11.96 C9.62622476,-12.0405458 8.23985426,-13.2728751 7.96429687,-14.92 C7.69495103,-16.6342498 8.71942506,-18.2878401 10.3742969,-18.80995 C10.7162417,-18.9230357 11.074138,-18.9804342 11.4342969,-18.97995 C11.7523153,-18.9830331 12.0690519,-18.9392291 12.3742969,-18.84995 C12.3342969,-19.51995 12.3042969,-20.20995 12.3042969,-20.89995 L12.3042969,-21.03995 C12.3042969,-29.28995 18.0342969,-36.99995 26.3042969,-36.99995 C34.5742969,-36.99995 40.3042969,-29.28995 40.3042969,-21.03995 L40.3042969,-20.89995 C40.3042969,-20.19995 40.2742969,-19.51995 40.2242969,-18.83995 C40.532471,-18.932564 40.8525072,-18.9797272 41.1742969,-18.97995 C42.5525014,-18.9777771 43.805745,-18.1806389 44.3919629,-16.9333213 C44.9781808,-15.6860038 44.7921354,-14.2124245 43.9142969,-13.14995 C43.2594034,-12.3002792 42.2114194,-11.8500623 41.1442969,-11.95995 C41.1237814,-11.9583577 41.103187,-11.9617901 41.0842969,-11.96995 C40.937121,-11.9700021 40.7901178,-11.9800251 40.6442969,-11.99995 C39.7284972,-12.1633991 38.8220979,-11.6686351 38.4642369,-10.80995 C38.4526723,-10.7759361 38.4393204,-10.7425563 38.4242369,-10.70995 C36.7842369,-6.60995 34.1342369,-3.45995 30.8042369,-1.96995 L30.8042369,3.05005 C30.8040486,3.37184222 30.7568847,3.6918834 30.6642369,4.00005 C30.2542369,5.36005 28.9942369,8.36005 27.4942369,8.36005 L25.1142969,8.36005 C23.6142969,8.36005 22.3542969,5.36005 21.9442969,4.00005 C21.8516538,3.69188234 21.80449,3.37184186 21.8042969,3.05005 L21.8042969,-1.88995 C18.3542969,-3.33 15.6942969,-6.44999 14.0742969,-10.64 Z M46.1142969,15.38015 L5.80783687,15.38015 C4.59783687,15.38015 4.30427687,11.01998 4.30427687,9.81002 C4.30427687,7.17002 10.3242769,4.00002 14.1142769,4.00002 L19.8942769,4.00002 C20.3342769,6.48002 22.5042769,10.36002 25.1142769,10.36002 L27.4942769,10.36002 C30.1042769,10.36002 32.2742769,6.48002 32.7142769,4.00002 L38.4942769,4.00002 C42.2842769,4.00002 48.3042769,7.17002 48.3042769,9.81002 C48.3042769,11.01998 47.3242969,15.38015 46.1142969,15.38015 Z" fill="#414345" fill-rule="nonzero" mask="url(#mask-2)"></path>
                </g>
                <mask id="mask-4" fill="white">
                    <use xlink:href="#path-3"></use>
                </mask>
                <g id="Mask"></g>
                <path d="M46.0142969,45.84115 C43.731061,44.477849 41.1498512,43.6918157 38.4942969,43.55115 L32.8042969,43.55115 L32.8042969,40.89115 C36.4051664,38.8074225 39.1191243,35.4781112 40.4342969,31.53115 C40.6789043,31.5713803 40.9264034,31.5914478 41.1742969,31.59115 C43.9971341,31.5918597 46.3636648,29.4585228 46.6547475,26.6507334 C46.9458303,23.8429441 45.0672484,21.2695175 42.3042969,20.69115 L42.3042969,20.51115 C42.3042969,11.14115 35.6942969,2.55115 26.3042969,2.55115 C16.9142969,2.55115 10.3042969,11.14115 10.3042969,20.51115 L10.3042969,20.69115 C7.54130397,21.2694755 5.66267342,23.8429213 5.95375946,26.6507424 C6.24484549,29.4585635 8.61142783,31.5919093 11.4342969,31.59115 C11.6449881,31.5930767 11.8555412,31.5797083 12.0642969,31.55115 C13.6242969,35.90115 16.2442969,39.1911 19.8042969,40.99115 L19.8042969,43.55115 L14.1142969,43.55115 C9.80429687,43.55115 2.30429687,47.05115 2.30429687,51.36115 C2.30429687,52.51115 2.77429687,56.94129 3.53429687,57.70124 C4.3183771,58.4881945 5.3834058,58.93124 6.49429687,58.93124 L46.1142969,58.93124 C49.1110869,58.93124 50.3042969,53.6711 50.3042969,51.36111 C50.3042969,49.21114 48.4242969,47.25118 46.0142969,45.84115 Z M14.0742969,30.91115 L14.0642969,30.88115 C13.71323,29.9766143 12.7847772,29.4336352 11.8242969,29.57115 C11.6481613,29.5879949 11.4712011,29.5946726 11.2942969,29.59115 C9.62622476,29.5106042 8.23985426,28.2782749 7.96429687,26.63115 C7.69495103,24.9169002 8.71942506,23.2633099 10.3742969,22.7412 C10.7162417,22.6281143 11.074138,22.5707158 11.4342969,22.5712 C11.7523153,22.5681169 12.0690519,22.6119209 12.3742969,22.7012 C12.3342969,22.0312 12.3042969,21.3412 12.3042969,20.6512 L12.3042969,20.5112 C12.3042969,12.2612 18.0342969,4.5512 26.3042969,4.5512 C34.5742969,4.5512 40.3042969,12.2612 40.3042969,20.5112 L40.3042969,20.6512 C40.3042969,21.3512 40.2742969,22.0312 40.2242969,22.7112 C40.532471,22.618586 40.8525072,22.5714228 41.1742969,22.5712 C42.5525014,22.5733729 43.805745,23.3705111 44.3919629,24.6178287 C44.9781808,25.8651462 44.7921354,27.3387255 43.9142969,28.4012 C43.2594034,29.2508708 42.2114194,29.7010877 41.1442969,29.5912 C41.1237814,29.5927923 41.103187,29.5893599 41.0842969,29.5812 C40.937121,29.5811479 40.7901178,29.5711249 40.6442969,29.5512 C39.7284972,29.3877509 38.8220979,29.8825149 38.4642369,30.7412 C38.4526723,30.7752139 38.4393204,30.8085937 38.4242369,30.8412 C36.7842369,34.9412 34.1342369,38.0912 30.8042369,39.5812 L30.8042369,44.6012 C30.8040486,44.9229922 30.7568847,45.2430334 30.6642369,45.5512 C30.2542369,46.9112 28.9942369,49.9112 27.4942369,49.9112 L25.1142969,49.9112 C23.6142969,49.9112 22.3542969,46.9112 21.9442969,45.5512 C21.8516538,45.2430323 21.80449,44.9229919 21.8042969,44.6012 L21.8042969,39.6612 C18.3542969,38.22115 15.6942969,35.10116 14.0742969,30.91115 Z M46.1142969,56.9313 L5.80783687,56.9313 C4.59783687,56.9313 4.30427687,52.57113 4.30427687,51.36117 C4.30427687,48.72117 10.3242769,45.55117 14.1142769,45.55117 L19.8942769,45.55117 C20.3342769,48.03117 22.5042769,51.91117 25.1142769,51.91117 L27.4942769,51.91117 C30.1042769,51.91117 32.2742769,48.03117 32.7142769,45.55117 L38.4942769,45.55117 C42.2842769,45.55117 48.3042769,48.72117 48.3042769,51.36117 C48.3042769,52.57113 47.3242969,56.9313 46.1142969,56.9313 Z" fill="#414345" fill-rule="nonzero" mask="url(#mask-4)"></path>
            </g>
            <path d="M36.11312,37.68623 C36.49258,35.75656 32.63119,31.63223 32.63119,31.63223 C32.38103,31.17479 21.65927,31.17479 21.40911,31.63223 C21.40911,31.63223 17.25982,35.61758 17.57911,37.57369 C18.02511,40.30615 21.85262,43.36227 26.99999,43.3670749 C31.97463,43.37173 35.65348,40.02363 36.11312,37.68623 Z" id="Path" stroke="#E73638" stroke-width="2" stroke-linejoin="round" fill-rule="nonzero"></path>
            <path d="M23.52983,35.07164 C25.29908,36.92197 29.01959,36.73982 30.46883,35.07164" id="Path" stroke="#414345" stroke-width="2" stroke-linecap="round"></path>
            <path d="M24.5698,26.45995 L28.76089,26.45995" id="Path" stroke="#414345" stroke-width="1.7" stroke-linecap="round"></path>
            <path d="M24.38714,26.49852 C24.38714,28.63409 23.99259,28.3653 20.52034,28.3653 C16.94875,28.3653 15.65354,28.63409 15.65354,26.49852 C15.65354,24.36295 18.62378,24.87074 20.75935,24.87074 C22.89492,24.87074 24.38714,24.36294 24.38714,26.49852 Z" id="Path" stroke="#414345" stroke-width="1.7" stroke-linecap="round"></path>
            <path d="M29.6129,26.51235 C29.6129,28.64792 30.00745,28.37913 33.4797,28.37913 C37.0513,28.37913 38.3465,28.64792 38.3465,26.51235 C38.3465,24.37678 35.85428,24.88457 33.71871,24.88457 C31.58314,24.88457 29.6129,24.37677 29.6129,26.51235 Z" id="Path" stroke="#414345" stroke-width="1.7" stroke-linecap="round"></path>
            <path d="M20.75001,23.73001 L20.75001,21.43925" id="Path" stroke="#414345" stroke-width="2" stroke-linecap="round"></path>
            <path d="M33.24999,23.73001 L33.24999,21.43925" id="Path" stroke="#414345" stroke-width="2" stroke-linecap="round"></path>
        </g>
    </g>
</svg>