<?xml version="1.0" encoding="UTF-8"?>
<svg width="72px" height="72px" viewBox="0 0 72 72" version="1.1" xmlns="http://www.w3.org/2000/svg" xmlns:xlink="http://www.w3.org/1999/xlink">
    <!-- Generator: Sketch 55.2 (78181) - https://sketchapp.com -->
    <title>Icons / People / Neutral</title>
    <desc>Created with Sketch.</desc>
    <g id="Icons-/-People-/-Neutral" stroke="none" stroke-width="1" fill="none" fill-rule="evenodd">
        <g id="Iconos_72px-65" transform="translate(12.000000, 7.000000)">
            <path d="M40,18.76144 L40,18.58144 C40,9.21144 33.39,0.62144 24,0.62144 C14.61,0.62144 8,9.21144 8,18.58144 L8,18.76144 C5.23704844,19.3398075 3.35846659,21.9132341 3.64954934,24.7210234 C3.94063209,27.5288128 6.30716282,29.6621497 9.13,29.66144 C9.34069119,29.6633667 9.55124437,29.6499983 9.76,29.62144 C11.32,33.97144 13.94,37.26139 17.5,39.06144 L17.5,43.62144 L17.59,43.62144 C17.6113866,43.7664419 17.6414405,43.9100324 17.68,44.05144 C18.27,46.52144 20.35,49.98144 22.81,49.98144 L25.19,49.98144 C27.65,49.98144 29.73,46.52144 30.32,44.05144 C30.3585595,43.9100324 30.3886134,43.7664419 30.41,43.62144 L30.51,43.62144 L30.51,41.62144 L30.5,41.62144 L30.5,38.96144 C34.1008695,36.8777125 36.8148274,33.5484012 38.13,29.60144 C38.3746076,29.6416694 38.6221065,29.6617369 38.87,29.66144 C41.6928372,29.6621497 44.0593679,27.5288128 44.3504507,24.7210234 C44.6415334,21.9132341 42.7629516,19.3398075 40,18.76144 L40,18.76144 Z M41.61,26.47144 C40.955082,27.3210792 39.9071165,27.7712882 38.84,27.66144 C38.8194845,27.6630323 38.7988901,27.6595999 38.78,27.65144 C38.6328241,27.6513879 38.4858209,27.6413649 38.34,27.62144 C37.4241959,27.4579633 36.5177803,27.9527362 36.15994,28.81144 C36.1483602,28.8454483 36.1350086,28.8788273 36.11994,28.91144 C34.47994,33.01144 31.82994,36.16144 28.49994,37.65144 L28.49994,42.67144 C28.4997423,42.9932315 28.4525786,43.3132713 28.35994,43.62144 C28.31994,43.75144 28.27994,43.89144 28.21994,44.05144 C27.70994,45.52144 26.54994,47.98144 25.18994,47.98144 L22.81,47.98144 C21.45,47.98144 20.29,45.52144 19.78,44.05144 C19.71994,43.89144 19.68,43.75144 19.64,43.62144 C19.5473614,43.3132713 19.5001977,42.9932315 19.5,42.67144 L19.5,37.73144 C16.05,36.29144 13.39,33.17144 11.77,28.98144 L11.76,28.95144 C11.4089331,28.0469043 10.4804803,27.5039252 9.52,27.64144 C9.3438644,27.6582851 9.1669042,27.6649628 8.99,27.66144 C7.32192788,27.5808942 5.93555739,26.3485649 5.66,24.70144 C5.39062729,22.9871729 6.41510674,21.3335526 8.07,20.81144 C8.411946,20.6983592 8.76984155,20.6409608 9.13,20.64144 C9.44801846,20.6383569 9.76475503,20.6821609 10.07,20.77144 C10.03,20.10144 10,19.41144 10,18.72144 L10,18.58144 C10,10.33144 15.73,2.62144 24,2.62144 C32.27,2.62144 38,10.33144 38,18.58144 L38,18.72144 C38,19.42144 37.97,20.10144 37.92,20.78144 C38.2281677,20.6887972 38.5482082,20.6416334 38.87,20.64144 C40.2482008,20.6436211 41.5014376,21.4407602 42.0876539,22.6880744 C42.6738702,23.9353885 42.4878298,25.4089632 41.61,26.47144 Z" id="Shape" fill="#414345" fill-rule="nonzero"></path>
            <path d="M20,32.23671 C20.9438534,33.4963853 22.4259476,34.2378575 24,34.2378575 C25.5740524,34.2378575 27.0561466,33.4963853 28,32.23671" id="Path" stroke="#414345" stroke-width="2" stroke-linecap="round"></path>
            <path d="M17.75001,23.64235 L17.75001,18.1823" id="Path" stroke="#414345" stroke-width="2" stroke-linecap="round"></path>
            <path d="M30.24999,23.64235 L30.24999,18.1823" id="Path" stroke="#414345" stroke-width="2" stroke-linecap="round"></path>
            <path d="M48,49.43149 C48,51.74149 46.81,57.00149 43.81,57.00149 L4.19,57.00149 C3.07910893,57.0010071 2.01408023,56.5584445 1.23,55.77149 C0.47,55.01149 0,50.58149 0,49.43149 C0,45.12149 7.5,41.62149 11.81,41.62149 L17.5,41.62149 L17.5,43.62149 L11.81,43.62149 C8.02,43.62149 2,46.79149 2,49.43149 C2,50.64149 2.29,55.00149 3.5,55.00149 L43.81,55.00149 C45.02,55.00149 46,50.64149 46,49.43149 C46,46.79149 39.98,43.62149 36.19,43.62149 L30.51,43.62149 L30.51,41.62149 L36.19,41.62149 C38.8455544,41.7621557 41.4267641,42.548189 43.71,43.91149 C46.12,45.32144 48,47.28146 48,49.43149 Z" id="Path" fill="#E73638" fill-rule="nonzero"></path>
        </g>
    </g>
</svg>