<?xml version="1.0" encoding="UTF-8"?>
<svg width="72px" height="72px" viewBox="0 0 72 72" version="1.1" xmlns="http://www.w3.org/2000/svg" xmlns:xlink="http://www.w3.org/1999/xlink">
    <!-- Generator: Sketch 55.2 (78181) - https://sketchapp.com -->
    <title>Icons / People / Old woman</title>
    <desc>Created with Sketch.</desc>
    <defs>
        <polygon id="path-1" points="0 0.38011 7.95136174 0.38011 9.32374239 2.380105 10.6820181 0.38011 48 0.38011 48 38.38011 0 38.38011"></polygon>
    </defs>
    <g id="Icons-/-People-/-Old-woman" stroke="none" stroke-width="1" fill="none" fill-rule="evenodd">
        <g id="Iconos_72px-64" transform="translate(12.000000, 6.000000)">
            <path d="M11.4046637,4.62822609 C10.4456302,2.66343861 8.42821569,1.30992 6.09467,1.30992 C2.8332463,1.30992 0.18934,3.9538263 0.18934,7.21525 C0.18934,10.1305479 2.30184383,12.5524442 5.07958013,13.0336673" id="Path" stroke="#E73638" stroke-width="2" stroke-linecap="round" stroke-linejoin="round" fill-rule="nonzero"></path>
            <g id="Shape" transform="translate(0.000000, 21.619890)">
                <mask id="mask-2" fill="white">
                    <use xlink:href="#path-1"></use>
                </mask>
                <g id="Mask"></g>
                <path d="M43.71,25.29 C41.4267621,23.9267034 38.8455535,23.1406705 36.19,23 L30.5,23 L30.5,20.34 C34.1008665,18.2562689 36.8148233,14.9269589 38.13,10.98 C38.3746076,11.0202294 38.6221065,11.0402969 38.87,11.04 C41.692869,11.0407593 44.0594514,8.90741348 44.3505374,6.09959241 C44.6416235,3.29177135 42.7629929,0.71832552 40,0.14 L40,-0.04 C40,-9.41 33.39,-18 24,-18 C14.61,-18 8,-9.41 8,-0.04 L8,0.14 C5.23700709,0.71832552 3.35837654,3.29177135 3.64946258,6.09959241 C3.94054862,8.90741348 6.30713096,11.0407593 9.13,11.04 C9.34069119,11.0419267 9.55124437,11.0285583 9.76,11 C11.32,15.35 13.94,18.64 17.5,20.44 L17.5,23 L11.81,23 C7.5,23 0,26.5 0,30.81 C0,31.96 0.47,36.39014 1.23,37.15009 C2.01407694,37.9370519 3.07910605,38.38011 4.19,38.38011 L43.81,38.38011 C46.80679,38.38011 48,33.12002 48,30.81002 C48,28.66 46.12,26.70003 43.71,25.29 Z M11.76,10.33 C11.4089272,9.4254694 10.4804788,8.88249291 9.52,9.02 C9.3438644,9.03684507 9.1669042,9.04352281 8.99,9.04 C7.32192788,8.9594542 5.93555739,7.72712487 5.66,6.08 C5.39062729,4.36573293 6.41510674,2.71211258 8.07,2.19 C8.411946,2.07691917 8.76984155,2.01952083 9.13,2.02 C9.44801878,2.01691196 9.76475607,2.06071606 10.07,2.15 C10.03,1.48 10,0.79 10,0.1 L10,-0.04 C10,-8.29 15.73,-16 24,-16 C32.27,-16 38,-8.29 38,-0.04 L38,0.1 C38,0.8 37.97,1.48 37.92,2.16 C38.2281731,2.06738155 38.54821,2.02021823 38.87,2.02 C40.2482008,2.02218114 41.5014376,2.8193202 42.0876539,4.06663436 C42.6738702,5.31394853 42.4878298,6.78752319 41.61,7.85 C40.9551016,8.69966445 39.9071214,9.14987979 38.84,9.04 C38.8194845,9.04159231 38.7988901,9.03815991 38.78,9.03 C38.6328241,9.02994786 38.4858209,9.01992491 38.34,9 C37.424201,8.83655483 36.517804,9.33131756 36.15994,10.19 C36.1483708,10.2240122 36.135019,10.2573917 36.11994,10.29 C34.47994,14.39 31.82994,17.54 28.49994,19.03 L28.49994,24.05 C28.4997476,24.3717919 28.4525837,24.6918325 28.35994,25 C27.94994,26.36 26.68994,29.36 25.18994,29.36 L22.81,29.36 C21.31,29.36 20.05,26.36 19.64,25 C19.5473563,24.6918325 19.5001924,24.3717919 19.5,24.05 L19.5,19.11 C16.05,17.67 13.39,14.55001 11.77,10.36001 L11.76,10.33 Z M43.81,36.38011 L3.50357,36.38011 C2.29354,36.38011 2,32.01998 2,30.81002 C2,28.17002 8.02,25.00002 11.81,25.00002 L17.59,25.00002 C18.03,27.48002 20.2,31.36002 22.81,31.36002 L25.19,31.36002 C27.8,31.36002 29.97,27.48002 30.41,25.00002 L36.19,25.00002 C39.98,25.00002 46,28.17002 46,30.81002 C46,32.01998 45.02,36.38011 43.81,36.38011 Z" fill="#414345" fill-rule="nonzero" mask="url(#mask-2)"></path>
            </g>
            <path d="M21.5698,27.45995 L25.76089,27.45995" id="Path" stroke="#414345" stroke-width="1.7" stroke-linecap="round"></path>
            <path d="M20,35.23671 C20.9438534,36.4963853 22.4259476,37.2378575 24,37.2378575 C25.5740524,37.2378575 27.0561466,36.4963853 28,35.23671" id="Path" stroke="#414345" stroke-width="2" stroke-linecap="round"></path>
            <path d="M21.38714,27.49852 C21.38714,29.63409 20.99259,30.36531 17.52034,30.36531 C13.94875,30.36531 12.65354,29.63409 12.65354,27.49852 C12.65354,25.36295 15.38477,25.63173 17.52034,25.63173 C19.65591,25.63173 21.38714,25.36294 21.38714,27.49852 Z" id="Path" stroke="#414345" stroke-width="1.7" stroke-linecap="round"></path>
            <path d="M26.6129,27.51235 C26.6129,29.64792 27.00745,30.37914 30.4797,30.37914 C34.0513,30.37914 35.3465,29.64792 35.3465,27.51235 C35.3465,25.37678 32.61527,25.64556 30.4797,25.64556 C28.34413,25.64556 26.6129,25.37677 26.6129,27.51235 Z" id="Path" stroke="#414345" stroke-width="1.7" stroke-linecap="round"></path>
            <path d="M22.51843,16.61528 C27.42701,18.05279 32.42443,16.18016 38.3822,22.86573 C38.3822,22.86573 40.97563,16.72738 40.9769122,14.21397 C40.98152,5.18397 33.65666,0.86375 24.62668,0.86375 L23.30228,0.86375 C9.47749,0.86375 9.49614,9.37428 9.49614,9.37428 C0.19162,12.54619 9.95206,25.37741 9.95206,25.37741 C9.95206,25.37741 9.17944,23.12832 12.12974,19.28818 C14.52233,16.174 14.808,13.60705 13.84749,12 C13.84749,12 16.23813,14.77605 22.51843,16.61528 Z" id="Path" stroke="#E73638" stroke-width="2" stroke-linecap="round" stroke-linejoin="round" fill-rule="nonzero"></path>
            <path d="M17.75001,24.73001 L17.75001,23.26998" id="Path" stroke="#414345" stroke-width="2" stroke-linecap="round"></path>
            <path d="M30.24999,24.73001 L30.24999,23.26998" id="Path" stroke="#414345" stroke-width="2" stroke-linecap="round"></path>
        </g>
    </g>
</svg>