<?xml version="1.0" encoding="UTF-8"?>
<svg width="72px" height="72px" viewBox="0 0 72 72" version="1.1" xmlns="http://www.w3.org/2000/svg" xmlns:xlink="http://www.w3.org/1999/xlink">
    <!-- Generator: Sketch 55.2 (78181) - https://sketchapp.com -->
    <title>Icons / Airlines</title>
    <desc>Created with Sketch.</desc>
    <g id="Icons-/-Airlines" stroke="none" stroke-width="1" fill="none" fill-rule="evenodd">
        <g id="Iconos_72px-29" transform="translate(8.000000, 8.000000)" fill-rule="nonzero">
            <path d="M5.90168,4.36245 L31.5383,13.04447 L21.74291,22.86807 L4.53591,5.73222 L5.90172,4.36245 L5.90168,4.36245 Z M3.11846,7.15631 L21.74791,25.70876 L35.241,12.17682 L6.546,2.45911 C5.82102706,2.21360661 5.01953846,2.40142163 4.47911,2.94345 L3.11341,4.31309 C2.73690299,4.69072044 2.52589423,5.20249254 2.52683074,5.735748 C2.5277735,6.26900347 2.74058451,6.78002877 3.11842,7.15633 L3.11846,7.15631 Z" id="Shape" fill="#E73638"></path>
            <path d="M42.71759,24.57486 L51.37459,50.28547 L50.01212,51.65186 L32.92554,34.39514 L42.71759,24.57486 L42.71759,24.57486 Z M43.58608,20.85817 L30.093,34.39017 L48.5846,53.06584 C48.9610283,53.446051 49.4735791,53.6603871 50.0086097,53.6613288 C50.5436403,53.6622644 51.05694,53.4497279 51.4347,53.07084 L52.797,51.70459 C53.3353271,51.1646626 53.5218092,50.3666275 53.2785,49.64405 L43.58608,20.85817 Z" id="Shape" fill="#E73638"></path>
            <path d="M52.71194,2.50928 C52.9546169,2.5148926 53.181233,2.63178866 53.32648,2.82628 C53.4651142,3.00108884 53.5196948,3.22809579 53.47568,3.44682 L49.32312,15.109 L29.49356,35.0055 L15.85568,43.876 C15.375374,44.188401 15.0512844,44.6909949 14.9649,45.25741 L13.89935,52.24459 L12.65735,53.49059 L9.22815,47.52898 C9.05241943,47.2234561 8.79940553,46.9695386 8.49451,46.79272 L2.50961,43.3208 L3.76117,42.06562 L10.78287,40.99707 C11.3515021,40.910512 11.8557816,40.5844283 12.16803,40.10138 L20.98325,26.46393 L40.1445,7.24744 L52.53571,2.52985 C52.5934989,2.51642259 52.6526121,2.50928 52.71194,2.50928 L52.71194,2.50928 Z M52.71173,0.5 C52.44174,0.5 52.173215,0.539687302 51.91437,0.61646 L39.02637,5.52314 L19.41083,25.19525 L10.48059,39.01062 L2.80521,40.17862 L1.08679,41.902 C0.646482421,42.343603 0.436096102,42.96457 0.517305532,43.5828652 C0.598514963,44.2011605 0.962119899,44.7467371 1.50153,45.05966 L7.48642,48.53073 L10.91562,54.49233 C11.2274285,55.0348074 11.7742385,55.4009841 12.3945802,55.4827304 C13.0149218,55.5644767 13.6379248,55.3524535 14.07962,54.90927 L15.78653,53.19747 L16.9512,45.56027 L30.767,36.57416 L51.0647,16.20783 L55.40552,4.017 C55.6244786,3.17933318 55.4446457,2.28749664 54.9181762,1.60014048 C54.3917067,0.912784329 53.577514,0.506825491 52.71173,0.5 Z" id="Shape" fill="#3F4143"></path>
        </g>
    </g>
</svg>