<?xml version="1.0" encoding="UTF-8"?>
<svg width="72px" height="72px" viewBox="0 0 72 72" version="1.1" xmlns="http://www.w3.org/2000/svg" xmlns:xlink="http://www.w3.org/1999/xlink">
    <!-- Generator: Sketch 55.2 (78181) - https://sketchapp.com -->
    <title>Icons / Architecture</title>
    <desc>Created with Sketch.</desc>
    <g id="Icons-/-Architecture" stroke="none" stroke-width="1" fill="none" fill-rule="evenodd">
        <g id="Iconos_72px-07" transform="translate(8.000000, 8.000000)">
            <path d="M27.99998,13.88623 L27.99998,42.00003" id="Path" stroke="#3F4143" stroke-width="2" stroke-linecap="square" stroke-linejoin="round"></path>
            <polyline id="Path" stroke="#3F4143" stroke-width="2" stroke-linecap="square" stroke-linejoin="round" points="49 42 49 34 7 34 7 42"></polyline>
            <path d="M28,1.76037 C30.8937544,1.76037 33.23957,4.10626559 33.23957,7.00002 C33.23957,9.89377441 30.8936944,12.23961 27.99994,12.23961 C25.1061856,12.23961 22.76033,9.89375441 22.76033,7 C22.763598,4.10757138 25.1075714,1.76361593 28,1.76037 L28,1.76037 Z M28,0 C24.1340068,0 21,3.13400675 21,7 C21,10.8659932 24.1340068,14 28,14 C31.8659932,14 35,10.8659932 35,7 C35,5.14345774 34.2626178,3.36292949 32.9498441,2.05015587 C31.6370705,0.737382246 29.8565423,0 28,0 Z" id="Shape" fill="#E73638" fill-rule="nonzero"></path>
            <path d="M7,2 C9.76142375,2 12,4.23857625 12,7 C12,9.76142375 9.76142375,12 7,12 C4.23857625,12 2,9.76142375 2,7 C2.00310268,4.23986244 4.23986244,2.00310268 7,2 L7,2 Z M7,-1.77635684e-15 C3.13400675,-1.77635684e-15 0,3.13400675 0,7 C0,10.8659932 3.13400675,14 7,14 C10.8659932,14 14,10.8659932 14,7 C14,5.14345855 13.2626142,3.36293185 11.9498412,2.0501588 C10.6370682,0.73738575 8.85654145,-1.77635684e-15 7,-1.77635684e-15 Z" id="Shape" fill="#3F4143" fill-rule="nonzero"></path>
            <path d="M49,2 C51.7614237,2 54,4.23857625 54,7 C54,9.76142375 51.7614237,12 49,12 C46.2385763,12 44,9.76142375 44,7 C44.0031027,4.23986244 46.2398624,2.00310268 49,2 L49,2 Z M49,-1.77635684e-15 C45.1340068,-1.77635684e-15 42,3.13400675 42,7 C42,10.8659932 45.1340068,14 49,14 C52.8659932,14 56,10.8659932 56,7 C56,5.14345855 55.2626142,3.36293185 53.9498412,2.0501588 C52.6370682,0.73738575 50.8565414,-1.77635684e-15 49,-1.77635684e-15 L49,-1.77635684e-15 Z" id="Shape" fill="#3F4143" fill-rule="nonzero"></path>
            <path d="M28,44.00008 C30.7614237,44.00008 33,46.2386563 33,49.00008 C33,51.7615037 30.7614237,54.00008 28,54.00008 C25.2385763,54.00008 23,51.7615037 23,49.00008 C23.0031137,46.239947 25.239867,44.0031937 28,44.00008 L28,44.00008 Z M28,42.00008 C24.1340068,42.00008 21,45.1340868 21,49.00008 C21,52.8660732 24.1340068,56.00008 28,56.00008 C31.8659932,56.00008 35,52.8660732 35,49.00008 C35,47.1435394 34.2626107,45.3630142 32.9498383,44.0502417 C31.6370658,42.7374693 29.8565406,42.00008 28,42.00008 L28,42.00008 Z" id="Shape" fill="#3F4143" fill-rule="nonzero"></path>
            <path d="M7,43.76043 C9.11923747,43.76043 11.0297985,45.0370361 11.8407909,46.9949581 C12.6517833,48.9528802 12.2034958,51.2065427 10.7049644,52.7050656 C9.20643289,54.2035885 6.95276782,54.6518631 4.99485041,53.8408595 C3.036933,53.0298558 1.76035,51.1192875 1.76035,49.00005 C1.7636345,46.1076376 4.10758763,43.7636979 7,43.76043 L7,43.76043 Z M7,42.00008 C3.13400675,42.00008 0,45.1340868 0,49.00008 C0,52.8660732 3.13400675,56.00008 7,56.00008 C10.8659932,56.00008 14,52.8660732 14,49.00008 C14,47.1435402 13.2626072,45.3630166 11.9498353,44.0502447 C10.6370634,42.7374728 8.85653982,42.00008 7,42.00008 L7,42.00008 Z" id="Shape" fill="#E73638" fill-rule="nonzero"></path>
            <path d="M49,43.76043 C51.1192375,43.76043 53.0297985,45.0370361 53.8407909,46.9949581 C54.6517833,48.9528802 54.2034958,51.2065427 52.7049644,52.7050656 C51.2064329,54.2035885 48.9527678,54.6518631 46.9948504,53.8408595 C45.036933,53.0298558 43.76035,51.1192875 43.76035,49.00005 C43.7636345,46.1076376 46.1075876,43.7636979 49,43.76043 L49,43.76043 Z M49,42.00008 C46.1687643,42.00008 43.6163103,43.7055752 42.5328433,46.321296 C41.4493763,48.9370167 42.0482666,51.9478415 44.0502525,53.9498275 C46.0522385,55.9518134 49.0630633,56.5507037 51.678784,55.4672367 C54.2945048,54.3837697 56,51.8313157 56,49.00008 C56,47.1435402 55.2626072,45.3630166 53.9498353,44.0502447 C52.6370634,42.7374728 50.8565398,42.00008 49,42.00008 L49,42.00008 Z" id="Shape" fill="#E73638" fill-rule="nonzero"></path>
            <polyline id="Path" stroke="#3F4143" stroke-width="2" stroke-linecap="square" stroke-linejoin="round" points="7 14 7 22 49 22 49 14"></polyline>
        </g>
    </g>
</svg>