<?xml version="1.0" encoding="UTF-8"?>
<svg width="72px" height="72px" viewBox="0 0 72 72" version="1.1" xmlns="http://www.w3.org/2000/svg" xmlns:xlink="http://www.w3.org/1999/xlink">
    <!-- Generator: Sketch 55.2 (78181) - https://sketchapp.com -->
    <title>Icons / Bank</title>
    <desc>Created with Sketch.</desc>
    <g id="Icons-/-Bank" stroke="none" stroke-width="1" fill="none" fill-rule="evenodd">
        <g id="Iconos_72px-68" transform="translate(12.000000, 8.000000)">
            <path d="M34.92429,18.96725 L45.99,35.566 L45.99,49 C45.9862746,52.3066413 43.3066413,54.9862746 40,54.99 L8,54.99 C4.69335869,54.9862746 2.0137254,52.3066413 2.01,49 L2.01,35.5657 L13.07037,18.96725 L34.92429,18.96725 L34.92429,18.96725 Z M34.92963,16.95724 L13.07037,16.95724 C12.4016698,16.95724 11.7772076,17.2914275 11.40628,17.84782 L0,34.95737 L0,49 C0,53.418278 3.581722,57 8,57 L40,57 C44.418278,57 48,53.418278 48,49 L48,34.95737 L36.59372,17.84781 C36.2227924,17.2914175 35.5983302,16.95724 34.92963,16.95724 L34.92963,16.95724 Z" id="Shape" fill="#414345" fill-rule="nonzero"></path>
            <path d="M24,2.47232 L29.80664,6.75693 C30.4147347,7.20564742 31.223139,7.27532965 31.89905,6.93729 L35.95694,4.90811 L31.91522,11.06357 L16.08493,11.06357 L12.04462,4.9089 L16.101,6.93729 C16.776911,7.27532965 17.5853153,7.20564742 18.19341,6.75693 L24,2.47232 L24,2.47232 Z M24,0.44299999 C23.6519361,0.44299999 23.3098948,0.533810749 23.00772,0.70655 L16.99997,5.13955 L9.00096036,1.13955 C8.60255132,1.13955502 8.24214837,1.37606584 8.08358704,1.74157336 C7.92502572,2.10708089 7.99856239,2.53183966 8.27077,2.82277 L15,13.07358 L33,13.07358 L39.73428,2.81729 C40.0033765,2.52533074 40.07425,2.10182183 39.9148711,1.73815788 C39.7554921,1.37449394 39.3960556,1.13957225 38.999,1.13956 L31,5.13956 L24.99222,0.70656 C24.6900648,0.533824764 24.3480448,0.44299999 24,0.44299999 Z" id="Shape" fill="#414345" fill-rule="nonzero"></path>
            <path d="M28.78923,30.6758 C27.5249524,29.364248 25.7692745,28.6419705 23.94807,28.68417 C20.62807,28.68417 17.99997,30.81806 17.99997,33.37782 C18.064086,34.9428684 18.9612617,36.3537876 20.35136,37.07567 C21.38867,37.71536 28.23575,39.20956 28.23575,39.20956 C29.3483794,40.0685662 29.99997,41.3948107 29.99997,42.800455 C29.99997,44.2060993 29.3483794,45.5323438 28.23575,46.39135 C25.7267951,48.240751 22.3059049,48.240751 19.79695,46.39135 C18.5109623,45.438873 17.869448,43.8444614 18.13741,42.26675" id="Path" stroke="#414345" stroke-width="2" stroke-linecap="round" stroke-linejoin="round"></path>
            <path d="M23.94793,25.99998 L23.94793,49.99998" id="Path" stroke="#E73638" stroke-width="2" stroke-linecap="round" stroke-linejoin="round"></path>
            <path d="M31,13.06607 L31,17 L17,17 L17,13.066 L31,13.066 L31,13.06607 Z M31,11.066 L17,11.066 C15.8954305,11.066 15,11.9614305 15,13.066 L15,19 L33,19 L33,13.066 C33,11.9614305 32.1045695,11.066 31,11.066 Z" id="Shape" fill="#E73638" fill-rule="nonzero"></path>
        </g>
    </g>
</svg>