<?xml version="1.0" encoding="UTF-8"?>
<svg width="72px" height="72px" viewBox="0 0 72 72" version="1.1" xmlns="http://www.w3.org/2000/svg" xmlns:xlink="http://www.w3.org/1999/xlink">
    <!-- Generator: Sketch 55.2 (78181) - https://sketchapp.com -->
    <title>Icons / Big Building</title>
    <desc>Created with Sketch.</desc>
    <g id="Icons-/-Big-Building" stroke="none" stroke-width="1" fill="none" fill-rule="evenodd">
        <g id="Iconos_72px-52" transform="translate(12.000000, 8.000000)">
            <path d="M33.83331,2 L33.83331,5.97925 L13.83331,5.97925 L13.83331,2 L33.83331,2 L33.83331,2 Z M33.83331,0 L13.83331,0 C12.7287405,0 11.83331,0.8954305 11.83331,2 L11.83331,5.97925 C11.83331,7.0838195 12.7287405,7.97925 13.83331,7.97925 L33.83331,7.97925 C34.9378795,7.97925 35.83331,7.0838195 35.83331,5.97925 L35.83331,2 C35.83331,0.8954305 34.9378795,0 33.83331,0 Z" id="Shape" fill="#E73638" fill-rule="nonzero"></path>
            <path d="M29.92545,42 L29.92545,54 L18.07288,54 L18.07288,42 L29.92545,42 L29.92545,42 Z M29.92545,40 L18.07288,40 C16.9683105,40 16.07288,40.8954305 16.07288,42 L16.07288,56 L31.92545,56 L31.92545,42 C31.92545,40.8954305 31.0300195,40 29.92545,40 Z" id="Shape" fill="#414345" fill-rule="nonzero"></path>
            <path d="M37.83,8 L37.83,54.0199 L9.83,54.0199 L9.83,8 L37.83,8 L37.83,8 Z M37.83,5.99999992 L9.83,5.99999992 C8.72675952,6.00320197 7.83320197,6.89675952 7.83,7.99999992 L7.83,56.0199 L39.83,56.0199 L39.83,7.99999992 C39.83,7.46952067 39.6194861,6.96072496 39.2443806,6.58561941 C38.869275,6.21051386 38.3604793,5.99999992 37.83,5.99999992 L37.83,5.99999992 Z" id="Shape" fill="#414345" fill-rule="nonzero"></path>
            <path d="M30.92544,15.49655 L17.07286,15.49655" id="Path" stroke="#E73638" stroke-width="2" stroke-linecap="round" stroke-linejoin="round"></path>
            <path d="M30.92544,23 L17.07286,23" id="Path" stroke="#E73638" stroke-width="2" stroke-linecap="round" stroke-linejoin="round"></path>
            <path d="M17.07286,30.50345 L30.92544,30.50345" id="Path" stroke="#E73638" stroke-width="2" stroke-linecap="round" stroke-linejoin="round"></path>
            <path d="M48,34 L48,54 C47.9967489,55.10322 47.10322,55.9967489 46,56 L2,56 C0.896777692,55.9967543 0.00324565669,55.1032223 0,54 L0,34 C0.00322381203,32.8967686 0.896768606,32.0032238 2,32 L7.83,32 L7.83,34 L2,34 L2,54 L46,54 L46,34 L39.83,34 L39.83,32 L46,32 C47.1032314,32.0032238 47.9967762,32.8967686 48,34 Z" id="Path" fill="#414345" fill-rule="nonzero"></path>
        </g>
    </g>
</svg>