<?xml version="1.0" encoding="UTF-8"?>
<svg width="72px" height="72px" viewBox="0 0 72 72" version="1.1" xmlns="http://www.w3.org/2000/svg" xmlns:xlink="http://www.w3.org/1999/xlink">
    <!-- Generator: Sketch 55.2 (78181) - https://sketchapp.com -->
    <title>Icons / Book</title>
    <desc>Created with Sketch.</desc>
    <g id="Icons-/-Book" stroke="none" stroke-width="1" fill="none" fill-rule="evenodd">
        <g id="Iconos_72px-33" transform="translate(8.000000, 8.000000)">
            <g id="Group" fill="#3F4143" fill-rule="nonzero">
                <path d="M21.07588,2.01409 C24.3768084,2.01782088 27.0518091,4.69282159 27.05554,7.99375 L27.05554,44.00392 L2,44.00392 L2,2.01409 L21.07588,2.01409 L21.07588,2.01409 Z M21.07588,0.01409 L2,0.01409 C0.8954305,0.01409 0,0.9095205 0,2.01409 L0,44.00392 C0,45.1084895 0.8954305,46.00392 2,46.00392 L29.05554,46.00392 L29.05554,7.99375 C29.05554,5.87741258 28.2148282,3.84775484 26.7183517,2.3512783 C25.2218752,0.854801765 23.1922174,0.01409 21.07588,0.01409 Z" id="Shape"></path>
                <path d="M54,0.018 L34.829,0.018 C30.5046104,0.018 26.999,3.52361041 26.999,7.848 L26.999,46.00188 L31.669,46.00188 C32.2212847,46.00188 32.669,45.5541647 32.669,45.00188 L32.669,45.00188 C32.669,44.4495953 32.2212847,44.00188 31.669,44.00188 L28.999,44.00188 L28.999,7.838 C28.999,4.62370276 31.6047028,2.018 34.819,2.018 L54,2.018 L54,44.00188 L52,44.00188 C51.4477153,44.00188 51,44.4495953 51,45.00188 L51,45.00188 C51,45.5541647 51.4477153,46.00188 52,46.00188 L54,46.00188 C55.1045695,46.00188 56,45.1064495 56,44.00188 L56,2.018 C56,0.9134305 55.1045695,0.018 54,0.018 Z" id="Path"></path>
            </g>
            <g id="Group" transform="translate(35.000000, 32.000000)">
                <path d="M7.00629,2.00391 L7.00629,2.00391 C7.87143173,2.00551986 8.72074396,2.23601695 9.468,2.672 C11.8443011,4.07137198 12.6528121,7.12190348 11.28154,9.51453 C10.4010252,11.0534241 8.76598278,12.0052246 6.993,12.011 C6.12801386,12.009455 5.27884059,11.7790391 4.53171,11.34315 C2.1553718,9.94375181 1.34683705,6.89317822 2.71811,4.5005 C3.59848246,2.96162503 5.23339476,2.00977847 7.00629,2.00391 L7.00629,2.00391 Z M7.00615,0.00392 C4.51502073,0.00484867857 2.21576911,1.34179527 0.98273,3.50636 C-0.936429323,6.85269871 0.198223864,11.1204162 3.52588,13.07179 C5.12187124,14.0013588 7.02351429,14.2535007 8.80660548,13.7719697 C10.5896967,13.2904387 12.1058954,12.1152948 13.01698,10.50868 C14.9365679,7.16244697 13.8018488,2.89445102 10.47388,0.94337 C9.4216877,0.32835191 8.22490176,0.00412812219 7.00615,0.00392 L7.00615,0.00392 Z" id="Shape" fill="#E73638" fill-rule="nonzero"></path>
                <path d="M6.99999,13.2337 L6.99999,23.52566" id="Path" stroke="#E73638" stroke-width="2" stroke-linecap="round" stroke-linejoin="round"></path>
            </g>
            <path d="M35.33656,13.00391 L48.66341,13.00391" id="Path" stroke="#E73638" stroke-width="2" stroke-linecap="round" stroke-linejoin="round"></path>
            <path d="M35.33656,19.50391 L48.66341,19.50391" id="Path" stroke="#E73638" stroke-width="2" stroke-linecap="round" stroke-linejoin="round"></path>
            <path d="M35.33656,26.00392 L48.66341,26.00392" id="Path" stroke="#E73638" stroke-width="2" stroke-linecap="round" stroke-linejoin="round"></path>
            <path d="M7.67312,13.00391 L20.99998,13.00391" id="Path" stroke="#3F4143" stroke-width="2" stroke-linecap="round" stroke-linejoin="round"></path>
            <path d="M7.67312,19.50391 L20.99998,19.50391" id="Path" stroke="#3F4143" stroke-width="2" stroke-linecap="round" stroke-linejoin="round"></path>
            <path d="M7.67312,26.00392 L20.99998,26.00392" id="Path" stroke="#3F4143" stroke-width="2" stroke-linecap="round" stroke-linejoin="round"></path>
            <path d="M7.67312,32.50392 L20.99998,32.50392" id="Path" stroke="#3F4143" stroke-width="2" stroke-linecap="round" stroke-linejoin="round"></path>
        </g>
    </g>
</svg>