<?xml version="1.0" encoding="UTF-8"?>
<svg width="72px" height="72px" viewBox="0 0 72 72" version="1.1" xmlns="http://www.w3.org/2000/svg" xmlns:xlink="http://www.w3.org/1999/xlink">
    <!-- Generator: Sketch 55.2 (78181) - https://sketchapp.com -->
    <title>Icons / Box</title>
    <desc>Created with Sketch.</desc>
    <g id="Icons-/-Box" stroke="none" stroke-width="1" fill="none" fill-rule="evenodd">
        <g id="Iconos_72px-44" transform="translate(7.000000, 8.000000)" fill-rule="nonzero">
            <path d="M54.288,2.00923751 C54.4818733,2.00717631 54.6684209,2.08325782 54.8055257,2.22034752 C54.9426304,2.35743722 55.0187324,2.54397643 55.0167762,2.73785 L55.0167762,53.369 C55.0202896,53.5644049 54.9450678,53.7530393 54.8079654,53.8923206 C54.670863,54.0316019 54.483438,54.1097883 54.288,54.109233 L3.622,54.109233 C3.21658417,54.1055505 2.89063718,53.7744235 2.89333319,53.369 L2.89333319,2.73785 C2.89333319,2.33563945 3.2197894,2.00923751 3.622,2.00923751 L54.288,2.00923751 L54.288,2.00923751 Z M54.288,0.00927698136 L3.622,0.00927698136 C2.11582744,0.0111806877 0.895294847,1.23167749 0.893344023,2.73785 L0.893344023,53.369 C0.890226256,54.8791623 2.11183804,56.1059674 3.622,56.1092504 L54.288,56.1092504 C55.0138249,56.1092504 55.7098713,55.8207202 56.2220201,55.3063998 C56.734169,54.7920793 57.020164,54.0948167 57.0167115,53.369 L57.0167115,2.73785 C57.0177278,2.01384848 56.7305756,1.3192004 56.2186184,0.807263803 C55.7066611,0.295327201 55.0120015,0.00820305565 54.288,0.00927698136 Z" id="Shape" fill="#414345"></path>
            <path d="M40.66825,23.06281 C40.8516091,23.0630084 41.0004,23.2116009 41.0004,23.39496 L41.0004,32.72357 C41.0004,32.9069308 40.8516107,33.0555261 40.66825,33.05573 L17.34669,33.05573 C17.1633293,33.0555261 17.01454,32.9069308 17.01454,32.72357 L17.01454,23.395 C17.01454,23.2116409 17.1633309,23.0630484 17.34669,23.06281 L40.66825,23.06281 L40.66825,23.06281 Z M40.66825,21.06285 L17.34669,21.06285 C16.7281646,21.06285 16.1349715,21.3085545 15.697608,21.745918 C15.2602445,22.1832815 15.01454,22.7764746 15.01454,23.395 L15.01454,32.72361 C15.01454,33.3421364 15.2602441,33.9353304 15.6976074,34.3726955 C16.1349706,34.8100607 16.7281636,35.05577 17.34669,35.05577 L40.66825,35.05577 C41.2867764,35.05577 41.8799694,34.8100607 42.3173326,34.3726955 C42.7546959,33.9353304 43.0004,33.3421364 43.0004,32.72361 L43.0004,23.395 C43.0004,22.7764746 42.7546955,22.1832815 42.317332,21.745918 C41.8799685,21.3085545 41.2867754,21.06285 40.66825,21.06285 L40.66825,21.06285 Z" id="Shape" fill="#E73638"></path>
            <path d="M24.04486,44.175 L27.92556,46.671 L29.00747,47.36689 L30.08938,46.671 L33.97007,44.175 C33.9924049,44.2204256 34.0039302,44.2703805 34.0039302,44.321 L34.0039302,53.98176 L24.0109998,53.98176 L24.0109998,44.32108 C24.0109998,44.2704415 24.0225263,44.2204674 24.04486,44.175 L24.04486,44.175 Z M33.67178,41.98892 L29.00747,44.98892 L24.34316,41.98892 C23.0551436,41.98892 22.011,43.0330636 22.011,44.32108 L22.011,55.98184 L36.00393,55.98184 L36.00393,44.32108 C36.00393,43.7025536 35.7582259,43.1093596 35.3208626,42.6719945 C34.8834994,42.2346293 34.2903064,41.98892 33.67178,41.98892 L33.67178,41.98892 Z" id="Shape" fill="#414345"></path>
            <path d="M34.0039302,2.00346 L34.0039302,11.66431 C34.0039302,11.7165426 33.9916488,11.7680433 33.96793,11.81458 L30.02835,9.30887 L28.94282,8.61841 L27.86442,9.31992 L24.04271,11.80592 C24.0217558,11.761638 24.0109698,11.7132495 24.0109698,11.66426 L24.0109698,2.00346 L34.0039302,2.00346 L34.0039302,2.00346 Z M36.0039301,0.00346 L22.0109999,0.00346 L22.0109999,11.66426 C22.0108408,12.2828352 22.256499,12.8761207 22.6938986,13.3135184 C23.1312983,13.7509162 23.7245848,13.9965719 24.34316,13.9964101 L28.95502,10.99641 L33.67178,13.9964101 C34.2903583,13.9965851 34.8836515,13.7509334 35.3210525,13.3135325 C35.7584534,12.8761315 36.0041051,12.2828383 36.0039301,11.66426 L36.0039301,0.00346 L36.0039301,0.00346 Z" id="Shape" fill="#414345"></path>
        </g>
    </g>
</svg>