<?xml version="1.0" encoding="UTF-8"?>
<svg width="72px" height="72px" viewBox="0 0 72 72" version="1.1" xmlns="http://www.w3.org/2000/svg" xmlns:xlink="http://www.w3.org/1999/xlink">
    <!-- Generator: Sketch 55.2 (78181) - https://sketchapp.com -->
    <title>Icons / Briefcase</title>
    <desc>Created with Sketch.</desc>
    <g id="Icons-/-Briefcase" stroke="none" stroke-width="1" fill="none" fill-rule="evenodd">
        <g id="Iconos_72px-56" transform="translate(7.000000, 13.000000)">
            <polyline id="Path" stroke="#E73638" stroke-width="2.00182" stroke-linecap="round" stroke-linejoin="round" points="19.992 7.972 19.992 0.022 38.055 0.022 38.055 7.972"></polyline>
            <path d="M55.23219,8.91816 L55.23219,44.99753 L3,44.99753 L3,40.74212 L2.9094596,9.01627 C2.9094596,8.99027539 2.91965981,8.96531995 2.93801456,8.94691267 C2.95636931,8.92850538 2.98129528,8.91816 3.00729,8.91816 L55.23219,8.91816 L55.23219,8.91816 Z M1.98927,7.14 C1.35600989,7.50555866 0.975686734,8.19029566 1,8.92109 L1,40.43682 L1,44.90217 C1,45.4585543 1.22102486,45.9921501 1.61445079,46.3855704 C2.00787672,46.7789907 2.54147569,47 3.09786,47 L55.13186,47 C56.2918237,47 57.23216,46.0596637 57.23216,44.8997 L57.23216,40.525 L57.14479,8.77775 C57.1574544,8.41553354 57.0580231,8.05823456 56.86007,7.75463 C56.4849457,7.22827272 55.8785115,6.91562976 55.23216,6.91562976 L2.90918,6.91562976 C2.58897609,6.91562976 2.27344374,6.99243356 1.98927,7.14 Z" id="Shape" fill="#414345" fill-rule="nonzero"></path>
            <path d="M2.08292,20.76389 L24.925,31.06552 C27.5180332,32.2349651 30.4863908,32.2447662 33.08709,31.09247 L56.39829,20.76389" id="Path" stroke="#414345" stroke-width="2"></path>
            <path d="M32.58949,23.41051 L25.17751,23.41051" id="Path" stroke="#E73638" stroke-width="2.00182" stroke-linecap="round" stroke-linejoin="round"></path>
            <path d="M38.54429,17.10036 L19.10036,17.10036" id="Path" stroke="#E73638" stroke-width="2.00182" stroke-linecap="round" stroke-linejoin="round"></path>
        </g>
    </g>
</svg>