<?xml version="1.0" encoding="UTF-8"?>
<svg width="72px" height="72px" viewBox="0 0 72 72" version="1.1" xmlns="http://www.w3.org/2000/svg" xmlns:xlink="http://www.w3.org/1999/xlink">
    <!-- Generator: Sketch 55.2 (78181) - https://sketchapp.com -->
    <title>Icons / Calendar</title>
    <desc>Created with Sketch.</desc>
    <g id="Icons-/-Calendar" stroke="none" stroke-width="1" fill="none" fill-rule="evenodd">
        <g id="Iconos_72px-39" transform="translate(11.000000, 9.000000)">
            <path d="M47,9 L47,52.98235 L2.76691,52.98235 L2.76691,9 L47,9 L47,9 Z M47,7 L2.76691,7 C1.6623405,7 0.76691,7.8954305 0.76691,9 L0.76691,52.98235 C0.76691,54.0869195 1.6623405,54.98235 2.76691,54.98235 L47,54.98235 C48.1045695,54.98235 49,54.0869195 49,52.98235 L49,9 C49,7.8954305 48.1045695,7 47,7 Z" id="Shape" fill="#414345" fill-rule="nonzero"></path>
            <path d="M9,0.47409 L9,14.5259" id="Path" stroke="#C7393A" stroke-width="2" stroke-linecap="round" stroke-linejoin="round"></path>
            <path d="M19.66667,0.47409 L19.66667,14.5259" id="Path" stroke="#C7393A" stroke-width="2" stroke-linecap="round" stroke-linejoin="round"></path>
            <path d="M30.33333,0.47409 L30.33333,14.5259" id="Path" stroke="#C7393A" stroke-width="2" stroke-linecap="round" stroke-linejoin="round"></path>
            <path d="M41,0.47409 L41,14.5259" id="Path" stroke="#C7393A" stroke-width="2" stroke-linecap="round" stroke-linejoin="round"></path>
            <path d="M47,9 L47,20.0008 L2.76691,20.0008 L2.76691,9 L47,9 L47,9 Z M47,7 L2.76691,7 C1.6623405,7 0.76691,7.8954305 0.76691,9 L0.76691,20.0008 C0.76691,21.1053695 1.6623405,22.0008 2.76691,22.0008 L47,22.0008 C48.1045695,22.0008 49,21.1053695 49,20.0008 L49,9 C49,7.8954305 48.1045695,7 47,7 Z" id="Shape" fill="#E73638" fill-rule="nonzero"></path>
        </g>
    </g>
</svg>