<?xml version="1.0" encoding="UTF-8"?>
<svg width="72px" height="72px" viewBox="0 0 72 72" version="1.1" xmlns="http://www.w3.org/2000/svg" xmlns:xlink="http://www.w3.org/1999/xlink">
    <!-- Generator: Sketch 55.2 (78181) - https://sketchapp.com -->
    <title>Icons / Card Copy</title>
    <desc>Created with Sketch.</desc>
    <g id="Icons-/-Card-Copy" stroke="none" stroke-width="1" fill="none" fill-rule="evenodd">
        <g id="Iconos_72px-53" transform="translate(12.000000, 16.000000)">
            <path d="M22.02618,34 L22.02618,45.99012 L10.17361,45.99012 L10.17361,34 L22.02618,34 L22.02618,34 Z M22.02618,32 L10.17361,32 C9.0690405,32 8.17361,32.8954305 8.17361,34 L8.17361,47.99012 L24.02618,47.99012 L24.02618,34 C24.02618,32.8954305 23.1307495,32 22.02618,32 Z" id="Shape" fill="#414345" fill-rule="nonzero"></path>
            <path d="M8.79467,23.94039 L22.64725,23.94039" id="Path" stroke="#E73638" stroke-width="2" stroke-linecap="round" stroke-linejoin="round"></path>
            <path d="M8.79467,16.38855 L22.64725,16.38855" id="Path" stroke="#E73638" stroke-width="2" stroke-linecap="round" stroke-linejoin="round"></path>
            <path d="M26.00333,2 L26.00333,5.97925 L6.00333,5.97925 L6.00333,2 L26.00333,2 L26.00333,2 Z M26.00333,0 L6.00333,0 C4.8987605,0 4.00333,0.8954305 4.00333,2 L4.00333,5.97925 C4.00333,7.0838195 4.8987605,7.97925 6.00333,7.97925 L26.00333,7.97925 C27.1078995,7.97925 28.00333,7.0838195 28.00333,5.97925 L28.00333,2 C28.00333,0.8954305 27.1078995,0 26.00333,0 Z" id="Shape" fill="#E73638" fill-rule="nonzero"></path>
            <path d="M30.00333,8 L30.00333,46.01 L2.00333,46.01 L2.00333,8 L30.00333,8 L30.00333,8 Z M30.00333,6 L2.00333,6 C0.900094063,6.00321289 0.00654288907,6.89676406 0.00333,8 L0.00333,46.01 C0.00333,47.1145695 0.8987605,48.01 2.00333,48.01 L32.00333,48.01 L32.00333,8 C32.00333,6.8954305 31.1078995,6 30.00333,6 Z" id="Shape" fill="#414345" fill-rule="nonzero"></path>
            <path d="M46.00333,21.94038 L46.00333,46.01 L32,46.01 L32,21.94038 L46.00333,21.94038 L46.00333,21.94038 Z M46.00333,19.94038 L32,19.94038 C30.8967731,19.9436147 30.0032347,20.8371531 30,21.94038 L30,48.01 L46.00333,48.01 C47.1078995,48.01 48.00333,47.1145695 48.00333,46.01 L48.00333,21.94038 C48.00333,20.8358105 47.1078995,19.94038 46.00333,19.94038 Z" id="Shape" fill="#414345" fill-rule="nonzero"></path>
        </g>
    </g>
</svg>