<?xml version="1.0" encoding="UTF-8"?>
<svg width="72px" height="72px" viewBox="0 0 72 72" version="1.1" xmlns="http://www.w3.org/2000/svg" xmlns:xlink="http://www.w3.org/1999/xlink">
    <!-- Generator: Sketch 55.2 (78181) - https://sketchapp.com -->
    <title>Icons / Card</title>
    <desc>Created with Sketch.</desc>
    <g id="Icons-/-Card" stroke="none" stroke-width="1" fill="none" fill-rule="evenodd">
        <g id="Iconos_72px-45" transform="translate(4.000000, 16.000000)" fill-rule="nonzero">
            <path d="M61.82767,22.0772 L61.82767,31.86413 L2.01788,31.86413 L2.01788,22.0772 L61.82767,22.0772 L61.82767,22.0772 Z M63.82767,20.0772 L0.01788,20.0772 L0.01788,33.86413 L63.82767,33.86413 L63.82767,20.0772 Z" id="Shape" fill="#E73638"></path>
            <path d="M61.99732,2.05892 L61.76684,38.03375 L2.0198,38.03375 L2.00358,2.05892 L61.99732,2.05892 L61.99732,2.05892 Z M0.0009,2.05982 L0.01712,38.03465 C0.0187426271,39.1392216 0.915227819,40.0334775 2.0198,40.0323511 L61.7668,40.0323511 C62.8667342,40.0334634 63.7612763,39.1464345 63.76944,38.04653 L64.000029,2.0717 C64.0028659,1.53889046 63.7930752,1.02694868 63.4171378,0.649370547 C63.0412003,0.271792409 62.530177,0.0597743135 61.99736,0.0603189492 L2.00358,0.0603189492 C1.47282138,0.0597787131 0.963599354,0.270164359 0.587998058,0.645169249 C0.212396762,1.02017414 0.0009,1.52906119 0.0009,2.05982 Z" id="Shape" fill="#414345"></path>
            <path d="M5.35974,7.36271 L15.2634,7.37181" id="Path" stroke="#414345" stroke-width="2.00064" fill="#C7393A" stroke-linecap="round" stroke-linejoin="round"></path>
            <path d="M5.35974,14.06765 L31.99998,14.08926" id="Path" stroke="#414345" stroke-width="2.00064" fill="#C7393A" stroke-linecap="round" stroke-linejoin="round"></path>
        </g>
    </g>
</svg>