<?xml version="1.0" encoding="UTF-8"?>
<svg width="72px" height="72px" viewBox="0 0 72 72" version="1.1" xmlns="http://www.w3.org/2000/svg" xmlns:xlink="http://www.w3.org/1999/xlink">
    <!-- Generator: Sketch 55.2 (78181) - https://sketchapp.com -->
    <title>Icons / Clock</title>
    <desc>Created with Sketch.</desc>
    <g id="Icons-/-Clock" stroke="none" stroke-width="1" fill="none" fill-rule="evenodd">
        <g id="Iconos_72px-40" transform="translate(8.000000, 8.000000)">
            <path d="M3.05899,27.95097 L6.05896,28.02482" id="Path" stroke="#414345" stroke-width="2" stroke-linecap="round" stroke-linejoin="round"></path>
            <path d="M29.04903,1.98789 L28.97518,4.98786" id="Path" stroke="#414345" stroke-width="2" stroke-linecap="round" stroke-linejoin="round"></path>
            <path d="M28.95097,53.98789 L29.02482,50.98793" id="Path" stroke="#414345" stroke-width="2" stroke-linecap="round" stroke-linejoin="round"></path>
            <path d="M55.05899,28.04903 L52.05902,27.97518" id="Path" stroke="#414345" stroke-width="2" stroke-linecap="round" stroke-linejoin="round"></path>
            <path d="M29.04903,1.98789 L28.97518,4.98786" id="Path" stroke="#414345" stroke-width="2" stroke-linecap="round" stroke-linejoin="round"></path>
            <path d="M28.95097,53.98789 L29.02482,50.98793" id="Path" stroke="#414345" stroke-width="2" stroke-linecap="round" stroke-linejoin="round"></path>
            <path d="M55.05899,28.04903 L52.05902,27.97518" id="Path" stroke="#414345" stroke-width="2" stroke-linecap="round" stroke-linejoin="round"></path>
            <path d="M28.951,2.04967 C43.3098756,2.04967 54.94966,13.6904077 54.94966,28.0492833 C54.94966,42.4081589 43.3093689,54.04839 28.9504933,54.04839 C14.5916177,54.04839 2.95094,42.4085456 2.95094,28.04967 C2.96717517,13.6969733 14.5983033,2.06587205 28.951,2.04967 L28.951,2.04967 Z M28.951,0.04967 C13.4875471,0.04967 0.952280008,12.5857904 0.952280008,28.0492433 C0.952280008,43.5126962 13.4879738,56.04839 28.9514267,56.04839 C44.4148796,56.04839 56.951,43.5131229 56.951,28.04967 C56.951,12.5857359 44.4149341,0.04967 28.951,0.04967 Z" id="Shape" fill="#414345" fill-rule="nonzero"></path>
            <polyline id="Path" stroke="#E73638" stroke-width="2" stroke-linecap="round" stroke-linejoin="round" points="29.154 13.033 29.154 29.519 46.544 35.642"></polyline>
        </g>
    </g>
</svg>