<?xml version="1.0" encoding="UTF-8"?>
<svg width="72px" height="72px" viewBox="0 0 72 72" version="1.1" xmlns="http://www.w3.org/2000/svg" xmlns:xlink="http://www.w3.org/1999/xlink">
    <!-- Generator: Sketch 55.2 (78181) - https://sketchapp.com -->
    <title>Icons / Cloud</title>
    <desc>Created with Sketch.</desc>
    <g id="Icons-/-Cloud" stroke="none" stroke-width="1" fill="none" fill-rule="evenodd">
        <g id="Iconos_72px-25" transform="translate(7.000000, 12.000000)">
            <path d="M28.97396,30.59756 L28.97396,51.5" id="Path" stroke="#E73638" stroke-width="1.99699" stroke-linecap="round" stroke-linejoin="round"></path>
            <polyline id="Path" stroke="#E73638" stroke-width="1.99699" stroke-linecap="round" stroke-linejoin="round" points="24.736 33.833 28.974 29.598 33.212 33.833"></polyline>
            <path d="M29,2.49611 C35.4119418,2.47962363 40.6982536,7.5182909 40.98919,13.92365 C41.0458858,14.9968761 41.9357646,15.836218 43.01047,15.83014 C46.3155298,15.8352117 49.4724199,17.2021011 51.7375835,19.6088583 C54.002747,22.0156155 55.1759491,25.2494891 54.98086,28.54879 C54.471962,34.9645584 49.0787893,39.8887335 42.64331,39.81345 L37.57987,39.81345 C37.0364931,39.813219 36.5926804,40.2475352 36.58116,40.79079 L36.58116,40.79079 C36.575703,41.0591419 36.6785176,41.3183901 36.8664139,41.5100604 C37.0543101,41.7017307 37.3114627,41.8095799 37.57987,41.8095799 L43.005,41.8095799 C47.5197039,41.8047518 51.756288,39.6278033 54.3888036,35.960047 C57.0210775,32.2922907 57.728122,27.5818577 56.288,23.303 C54.3867662,17.5967864 49.0192772,13.7704855 43.005,13.834 L42.98506,13.834 C42.6338082,6.36709718 36.4751583,0.49515688 29,0.499984585 L29,0.499984585 C24.405795,0.493183515 20.1024164,2.7474847 17.49231,6.52824 C15.3288576,5.27872007 12.6633813,5.27725073 10.4985525,6.52438471 C8.33372383,7.77151869 6.99788951,10.078099 6.99355,12.57646 C6.98986721,13.7112619 7.26788784,14.8292372 7.80268,15.83013 C2.40341992,19.0607566 -0.17278913,25.4999603 1.50814514,31.5632447 C3.18907942,37.6265291 8.71303321,41.8201114 15.005,41.8095799 L20.56711,41.8095799 C21.1104869,41.8095799 21.5542996,41.3754748 21.56582,40.83222 L21.56582,40.83222 C21.5712798,40.5638673 21.468466,40.3046176 21.2805692,40.1129466 C21.0926723,39.9212757 20.8355182,39.8133273 20.56711,39.81345 L15.38441,39.81345 C10.6640539,39.8719738 6.32297132,37.2354672 4.19849,33.01981 C1.50538937,27.4391416 3.51448485,20.7257048 8.83049,17.54188 C9.73994414,16.9962408 10.0641888,15.8348309 9.56889,14.89701 C9.22513597,14.2599236 9.02982318,13.5533804 8.99755,12.83019 C8.89105676,10.7678287 10.0623097,8.85184499 11.9464,8.00634 C13.4140631,7.36788937 15.0969273,7.45934245 16.48676,8.25308 C17.3887159,8.77831091 18.5429619,8.52097393 19.13639,7.66235 C21.3764087,4.42501946 25.0632516,2.49397038 29,2.49611" id="Path" fill="#3F4143" fill-rule="nonzero"></path>
            <path d="M29,27.8268 C29,28.03639 29,28.25594 28.98,28.46553 L29.02,28.46553 C29,28.25594 29,28.03639 29,27.8268 Z" id="Path" fill="#E73638" fill-rule="nonzero"></path>
        </g>
    </g>
</svg>