<?xml version="1.0" encoding="UTF-8"?>
<svg width="72px" height="72px" viewBox="0 0 72 72" version="1.1" xmlns="http://www.w3.org/2000/svg" xmlns:xlink="http://www.w3.org/1999/xlink">
    <!-- Generator: Sketch 55.2 (78181) - https://sketchapp.com -->
    <title>Icons / Colombia</title>
    <desc>Created with Sketch.</desc>
    <g id="Icons-/-Colombia" stroke="none" stroke-width="1" fill="none" fill-rule="evenodd">
        <g id="Iconos_72px-50" transform="translate(13.000000, 4.000000)" fill-rule="nonzero">
            <path d="M37.15,61.87813 L36.84,63.87813 L32.84,63.87813 C32.1885452,63.8774218 31.5782179,63.5596181 31.2040988,63.0262995 C30.8299798,62.4929809 30.7389106,61.8109214 30.96,61.19813 L32.95395,55.08083 L20.44395,55.06083 C19.6448953,55.0582 18.9229583,54.5834479 18.60395,53.85083 L16.74,48.3481 L1.39,46.4481 C-0.16,46.0681 0.07,43.5981 0.07,43.5981 L0.11,40.0181 C0.13202803,38.9432217 0.995247697,38.0755978 2.07,38.0481 L5.48,36.9781 L5.77,26.7381 L3.09,22.8781 C2.98008871,22.2315947 3.19725911,21.5725949 3.67,21.1181 L11.96,13.9781 L11.96,9.9981 C11.9598487,9.46762067 12.1705139,8.95882496 12.5456194,8.58371941 C12.920725,8.20861386 13.4295207,7.99794875 13.96,7.9981 L17.57,7.9981 L27.26,0.2881 L27.35,0.2881 C27.5592884,0.27323421 27.7696263,0.288884661 27.97441,0.33456 C28.3808915,0.467784585 28.6593838,0.842601284 28.6696255,1.27023562 C28.6798673,1.69786996 28.4196377,2.08558897 28.02,2.23812 L28.03,2.27812 L27.97,2.27812 L18.82,9.56812 C18.4643333,9.84938945 18.0234343,10.0010587 17.57,9.99812 L13.96,9.99812 L13.96,13.97812 C13.9569725,14.5592135 13.7015047,15.1102941 13.26,15.48812 L5.21,22.41812 L7.42,25.59812 C7.65973197,25.9514666 7.78218285,26.3712982 7.77,26.79812 L7.48,37.03812 C7.45288131,37.8892823 6.89177141,38.6307489 6.08,38.88812 L2.67,39.95812 C2.48934747,40.017945 2.3002506,40.0483328 2.10995,40.04812 L2.06995,43.61812 C2.07161154,43.6716485 2.06826363,43.725215 2.05995,43.77812 C2.04429047,44.0297003 2.06449278,44.2822291 2.11995,44.52812 L16.98995,46.36812 C17.6967126,46.4542487 18.30332,46.9120656 18.57995,47.56812 L20.444,53.06082 L32.954,53.08082 C33.6609155,53.0843671 34.3138073,53.4596434 34.6726802,54.068702 C35.0315531,54.6777606 35.0434509,55.4307271 34.704,56.05082 L32.87,61.87813 L37.15,61.87813 Z" id="Path" fill="#414345"></path>
            <path d="M45.4800001,25.44808 L45.4800001,37.76808 C45.4800001,38.2985593 45.2694861,38.807355 44.8943806,39.1824606 C44.519275,39.5575661 44.0104793,39.7682313 43.48,39.76808 L36.34,39.76808 L36.34,43.91808 L40.89,50.11808 L39.14,62.16808 C38.9982931,63.15182 38.1538894,63.8810776 37.16,63.8780892 L36.84,63.8780892 C36.2877153,63.8753185 35.8422386,63.4253647 35.8450001,62.87308 C35.8477615,62.3207953 36.2977153,61.8753186 36.85,61.87808 L37.16,61.87808 L37.28,61.08808 L37.28,61.05808 L38.8,50.64808 L34.73,45.0981 C34.477237,44.7565522 34.340556,44.3430043 34.34,43.9181 L34.34,39.7681 C34.3432238,38.6648686 35.2367686,37.7713238 36.34,37.7681 L43.48,37.7681 L43.48,25.4481 L37.41,25.4481 C36.881812,25.4487395 36.3748601,25.2402061 36,24.8681 L33.19,22.0481 C32.11,22.0681 30.06,22.0981 28.52,22.0981 C26.23,22.0981 25.75,22.0981 25.1,21.4481 C24.47,20.8181 24.36,20.7181 24.48995,15.8481 L22.06995,13.4281 C21.2994101,12.6569847 21.2905041,11.4101438 22.04995,10.6281 L30.18995,2.2381 L28.02995,2.2781 L28.01995,2.2381 C28.306399,2.13185945 28.5278006,1.89938782 28.61995,1.6081 C28.7866036,1.0753022 28.4917457,0.50792417 27.95995,0.3381 C27.7646329,0.279926991 27.5570972,0.276468062 27.35995,0.3281 L27.34995,0.2881 L30.15995,0.2381 L30.19995,0.2381 C31.0020902,0.239555152 31.7256063,0.720554064 32.0373702,1.45963072 C32.3491341,2.19870738 32.1887053,3.05257977 31.62995,3.6281 L23.48995,12.0181 L26.50995,15.0481 C26.50995,15.0481 26.36995,19.8981 26.50995,20.0381 C27.1776383,20.1063647 27.8493786,20.1264167 28.51995,20.0981 C30.02995,20.0981 32.03995,20.0681 33.14995,20.0481 L33.18995,20.0481 C33.7202839,20.0465686 34.228749,20.2593306 34.59995,20.6381 L37.40995,23.4481 L43.47995,23.4481 C44.5831841,23.4513182 45.4767432,24.3448461 45.4800001,25.44808 Z" id="Path" fill="#E73638"></path>
        </g>
    </g>
</svg>