<?xml version="1.0" encoding="UTF-8"?>
<svg width="72px" height="72px" viewBox="0 0 72 72" version="1.1" xmlns="http://www.w3.org/2000/svg" xmlns:xlink="http://www.w3.org/1999/xlink">
    <!-- Generator: Sketch 55.2 (78181) - https://sketchapp.com -->
    <title>Icons / Consulting</title>
    <desc>Created with Sketch.</desc>
    <g id="Icons-/-Consulting" stroke="none" stroke-width="1" fill="none" fill-rule="evenodd">
        <g id="Iconos_72px-10" transform="translate(6.000000, 5.000000)" fill-rule="nonzero">
            <path d="M59.84879,57.26663 L54.09228,45.27963 C53.9958577,45.0413692 53.9481914,44.7861923 53.9521,44.52919 L53.9521,19.9748 C53.9477786,18.8725724 53.0520746,17.981834 51.94984,17.9836373 L42.04861,17.9836373 L42.04861,19.9748 L51.94984,19.9748 L51.94984,44.91942 C51.9508326,45.1727306 51.9983442,45.4237046 52.09001,45.65985 L57.99672,58.00712 L45.63272,52.0436 C45.3987374,51.943116 45.1465324,51.8920098 44.89189,51.89348 L19.95365,51.89348 L19.95365,42.02771 L17.95139,42.02771 L17.95139,51.89348 C17.95139,52.4244188 18.1623516,52.9336013 18.5378833,53.3089305 C18.913415,53.6842596 19.4227113,53.8949651 19.95365,53.89466 L44.51142,53.89466 C44.7647605,53.8966108 45.0156898,53.9440612 45.25225,54.03475 L57.25583,59.85818 C57.9965141,60.155691 58.8432574,59.9826453 59.4078246,59.4183851 C59.9723918,58.8541249 60.1458981,58.0074758 59.84879,57.26663 L59.84879,57.26663 Z" id="Path" fill="#3F4143"></path>
            <path d="M40.04635,6.11663 L15.48858,6.11663 C15.2352444,6.11471419 14.9843142,6.06729409 14.74775,5.97663 L2.74417,0.15317 C2.00337741,-0.146148433 1.1554131,0.0262336302 0.590286107,0.59103153 C0.0251591131,1.15582943 -0.147716865,2.00369318 0.15117,2.74466 L5.90768,14.73173 C5.99845169,14.9681307 6.04593525,15.2189386 6.04786,15.47216 L6.04786,40.03655 C6.05218145,41.1387776 6.9478854,42.029516 8.05012,42.0277127 L19.95365,42.0277127 L19.95365,40.03655 L8.05016,40.03655 L8.05016,15.09193 C8.04917535,14.8353677 8.00168402,14.5811093 7.90999,14.34149 L2.00328,2.00423 L14.35728,7.96775 C14.5956955,8.06412523 14.851002,8.11176248 15.10813,8.10785 L40.04635,8.10785 L40.04635,19.9748 L42.04861,19.9748 L42.04861,8.10785 C42.0442941,7.00561042 41.1485966,6.1148516 40.04635,6.11663 Z" id="Path" fill="#3F4143"></path>
            <path d="M19.95365,17.9836165 C19.4237573,17.9810709 18.9146654,18.1896725 18.5389303,18.5633247 C18.1631952,18.9369769 17.9517667,19.4449013 17.95139,19.9748 L17.95139,40.02654 C17.95139,40.5574282 18.1625658,41.0665156 18.5380626,41.4418081 C18.9135595,41.8171006 19.4227618,42.0277101 19.95365,42.0277101 L40.05637,42.0277101 C40.5846017,42.0277101 41.0912553,41.8181514 41.4648728,41.4447364 C41.8384902,41.0713215 42.04861,40.5647817 42.04861,40.03655 L42.04861,19.98481 C42.04861,19.4539218 41.8374342,18.9448344 41.4619374,18.5695419 C41.0864405,18.1942494 40.5772382,17.9836165 40.04635,17.9836165 L19.95365,17.9836165 Z M40.04635,40.03655 L19.95365,40.03655 L19.95365,19.9748 L40.04635,19.9748 L40.04635,40.03655 Z" id="Shape" fill="#E73638"></path>
        </g>
    </g>
</svg>