<?xml version="1.0" encoding="UTF-8"?>
<svg width="72px" height="72px" viewBox="0 0 72 72" version="1.1" xmlns="http://www.w3.org/2000/svg" xmlns:xlink="http://www.w3.org/1999/xlink">
    <!-- Generator: Sketch 55.2 (78181) - https://sketchapp.com -->
    <title>Icons / Design</title>
    <desc>Created with Sketch.</desc>
    <g id="Icons-/-Design" stroke="none" stroke-width="1" fill="none" fill-rule="evenodd">
        <g id="Iconos_72px-71" transform="translate(8.000000, 9.000000)">
            <path d="M49.79022,34.0213118 C49.8374543,34.0207114 49.8828609,34.0395613 49.91577,34.07345 L52.99577,37.15353 C53.0650676,37.2230545 53.0650676,37.3355355 52.99577,37.40506 L48.99577,41.40506 C48.6204911,41.7802973 48.4097411,42.2893071 48.4099287,42.8200022 C48.4101163,43.3506973 48.6212259,43.859558 48.99677,44.23453 L53.04504,48.27676 L47.79456,52.91537 C47.76367,52.94266 47.73792,52.97513 47.7088,53.0043 L43.977,49.25784 C43.6021787,48.881573 43.0931003,48.6698252 42.562,48.66928 L42.56,48.66928 C42.0295804,48.6692766 41.5208829,48.8799764 41.14581,49.25503 L37.49581,52.90503 C37.4263127,52.97445 37.3137173,52.97445 37.24422,52.90503 L34.16422,49.82513 C34.094873,49.7555678 34.0949043,49.6430036 34.16429,49.57348 L49.66418,34.07339 C49.697248,34.0394689 49.7428127,34.0206427 49.79018,34.0213118 L49.79022,34.0213118 Z M49.78994,32.0212979 C49.2121881,32.0206167 48.657972,32.2501773 48.24994,32.65921 L32.75,48.15927 C31.8994931,49.0097933 31.8994931,50.3887467 32.75,51.23927 L35.83,54.31927 C36.6805439,55.1697272 38.0594561,55.1697272 38.91,54.31927 L42.56,50.66927 L46.29187,54.41573 C47.0731475,55.1953827 48.3383369,55.1946979 49.11877,54.4142 L54.462,49.69369 C54.8373508,49.3183603 55.0479009,48.809209 55.0479009,48.2783979 C55.0475213,47.7475867 54.8362264,47.2386636 54.46047,46.86374 L50.41,42.81924 L54.41,38.81924 C54.8184405,38.4108104 55.0479009,37.8568544 55.0479009,37.27924 C55.0479009,36.7016256 54.8184405,36.1476696 54.41,35.73924 L51.33,32.65924 C50.9220337,32.2501019 50.3677801,32.0205041 49.79,32.0212979 L49.78994,32.0212979 Z" id="Shape" fill="#414345" fill-rule="nonzero"></path>
            <path d="M35.39661,30.87137 C35.4947076,30.8714913 35.5741918,30.9510024 35.57428,31.0491 L35.57428,35.40451 C35.5741808,35.5026264 35.4946664,35.5821408 35.39655,35.58224 L31.04114,35.58224 C30.9430197,35.5821463 30.8634992,35.5026303 30.8634,35.40451 L30.86346,31.04904 C30.8635812,30.9509619 30.9430619,30.8714857 31.04114,30.87137 L35.39661,30.87137 L35.39661,30.87137 Z M35.39661,28.87137 L31.04114,28.87137 C29.8384578,28.87137 28.8634,29.8463178 28.8634,31.049 L28.8634,35.40447 C28.8634,36.6071918 29.8384182,37.5822 31.04114,37.5822 L35.39655,37.5822 C36.5992771,37.5822 37.57428,36.6071971 37.57428,35.40447 L37.57428,31.0491 C37.57428,30.4715364 37.344867,29.9176237 36.9364735,29.5092189 C36.52808,29.1008142 35.9741736,28.87137 35.39661,28.87137 L35.39661,28.87137 Z" id="Shape" fill="#414345" fill-rule="nonzero"></path>
            <path d="M38.8802208,5.22770811 C30.242172,-1.49616751 18.0649039,-1.49331416 9.42985889,5.23626814 M5.21813844,9.44566002 C-1.49216104,18.046058 -1.52512937,30.1655367 5.11923344,38.8005139" id="Shape" stroke="#E73638" stroke-width="2" stroke-linejoin="round"></path>
            <g id="Group" transform="translate(35.000000, 1.000000)" fill="#E73638" fill-rule="nonzero">
                <path d="M6.055,3.31186 L8.88343,6.14029 L6.055,8.96872 L3.22657,6.14029 L6.055,3.31186 L6.055,3.31186 Z M6.055,0.48343 L0.39814,6.14029 L6.055,11.79715 L11.71186,6.14029 L6.055,0.48343 Z" id="Shape"></path>
            </g>
            <g id="Group" transform="translate(1.000000, 0.000000)" fill="#E73638" fill-rule="nonzero">
                <path d="M5.65741,3.74045 L8.48578,6.56888 L5.65741,9.39731 L2.829,6.56888 L5.65743,3.74045 L5.65741,3.74045 Z M5.65743,0.912 L0.00057,6.56888 L5.65743,12.22574 L11.31423,6.56888 L5.65741,0.912 L5.65743,0.912 Z" id="Shape"></path>
            </g>
            <g id="Group" transform="translate(1.000000, 35.000000)" fill="#E73638" fill-rule="nonzero">
                <path d="M6.11389,3.253 L8.94232,6.08137 L6.11389,8.9098 L3.28546,6.08143 L6.11389,3.253 L6.11389,3.253 Z M6.11389,0.42457 L0.457,6.08145 L6.11386,11.73825 L11.77072,6.08139 L6.11386,0.42457 L6.11389,0.42457 Z" id="Shape"></path>
            </g>
            <path d="M15.012,15.0198 L40.24723,25.0438 C40.2821367,25.05766 40.3173967,25.07054 40.35301,25.08244 C40.4049215,25.0995471 40.445984,25.1397307 40.46421,25.19126 L44.5459,36.61557 L36.60712,44.55441 L25.18341,40.47214 C25.1319123,40.4538458 25.0917647,40.4127716 25.07465,40.36087 C25.0627367,40.32529 25.0498567,40.2900333 25.03601,40.2551 L15.012,15.0198 L15.012,15.0198 Z M13.22172,12.23215 C12.8910249,12.234668 12.5828533,12.4001365 12.3980676,12.6743988 C12.2132819,12.9486612 12.1756655,13.2964177 12.29753,13.60385 L23.17731,40.99344 C23.3888975,41.6281406 23.8804774,42.1303655 24.5105,42.3555 L37.12616,46.86374 L46.85522,37.13467 L42.3476,24.5184 C42.1224646,23.8883613 41.6202386,23.396762 40.98553,23.18515 L13.596,12.30533 C13.4769961,12.2574091 13.3499594,12.2325739 13.22167,12.23215 L13.22172,12.23215 Z" id="Shape" fill="#414345" fill-rule="nonzero"></path>
            <path d="M29.75669,29.76456 L13.44365,13.45151" id="Path" stroke="#414345" stroke-width="2" stroke-linecap="round" stroke-linejoin="round"></path>
        </g>
    </g>
</svg>