<?xml version="1.0" encoding="UTF-8"?>
<svg width="72px" height="72px" viewBox="0 0 72 72" version="1.1" xmlns="http://www.w3.org/2000/svg" xmlns:xlink="http://www.w3.org/1999/xlink">
    <!-- Generator: Sketch 55.2 (78181) - https://sketchapp.com -->
    <title>Icons / Disperse</title>
    <desc>Created with Sketch.</desc>
    <g id="Icons-/-Disperse" stroke="none" stroke-width="1" fill="none" fill-rule="evenodd">
        <g id="Iconos_72px-16" transform="translate(7.000000, 4.000000)">
            <path d="M28.99987,49.49531 L28.99981,43.5145" id="Path" stroke="#3F4143" stroke-width="1.99289" stroke-linecap="round" stroke-linejoin="round"></path>
            <path d="M28.99981,1.50158 L28.99981,19.2368" id="Path" stroke="#3F4143" stroke-width="1.99289" stroke-linecap="round" stroke-linejoin="round"></path>
            <polyline id="Path" stroke="#3E4143" stroke-width="1.99289" stroke-linecap="round" stroke-linejoin="round" points="24.789 4.744 29 0.5 33.211 4.744"></polyline>
            <path d="M28.9998,26.2269 C31.1274801,26.2047565 33.057995,27.4694101 33.8875861,29.4288211 C34.7171773,31.3882322 34.2816681,33.654632 32.7849396,35.1670197 C31.2882111,36.6794074 29.0264666,37.1384807 27.0585277,36.3293272 C25.0905888,35.5201737 23.8058664,33.6029253 23.8058664,31.47513 C23.7942561,28.5929873 26.1176921,26.2452429 28.9998,26.2269 L28.9998,26.2269 Z M28.9998,24.47281 C26.1626641,24.450716 23.592586,26.1427709 22.4915373,28.7576361 C21.3904886,31.3725013 21.976099,34.3933309 23.9744909,36.4073464 C25.9728827,38.4213618 28.9890603,39.0304792 31.6124206,37.9498272 C34.2357809,36.8691752 35.9478538,34.3123519 35.9478538,31.47513 C35.9550598,29.6251855 35.2271055,27.848132 33.9240906,26.53493 C32.6210756,25.221728 30.849745,24.4799569 28.9998,24.47281 Z" id="Shape" fill="#E73638" fill-rule="nonzero"></path>
            <path d="M28.99986,51.48825 C31.0309779,51.4660918 32.8744471,52.6725705 33.6670905,54.5427703 C34.4597339,56.4129702 34.0446488,58.5766878 32.6161928,60.0207945 C31.1877367,61.4649013 29.0286705,61.9035383 27.1499448,61.1313203 C25.271219,60.3591023 24.0447032,58.5288888 24.0447032,56.49765 C24.0329566,53.7473321 26.2495768,51.5064257 28.99986,51.48825 L28.99986,51.48825 Z M28.99986,49.49533 C26.1627067,49.4732238 23.5926065,51.1652815 22.4915454,53.7801605 C21.3904843,56.3950395 21.9760953,59.4158894 23.9744996,61.4299173 C25.9729038,63.4439452 28.9891016,64.0530633 31.6124758,62.972399 C34.2358501,61.8917348 35.9479138,59.3348895 35.9479138,56.49765 C35.9551198,54.6477055 35.2271655,52.870652 33.9241506,51.55745 C32.6211356,50.244248 30.849805,49.5024769 28.99986,49.49533 L28.99986,49.49533 Z" id="Shape" fill="#3F4143" fill-rule="nonzero"></path>
            <path d="M44.03363,23.25234 L38.89433,26.24281" id="Path" stroke="#3F4143" stroke-width="1.99289" stroke-linecap="round" stroke-linejoin="round"></path>
            <path d="M2.79255,47.24926 L18.03246,38.38165" id="Path" stroke="#3F4143" stroke-width="1.99289" stroke-linecap="round" stroke-linejoin="round"></path>
            <polyline id="Path" stroke="#3E4143" stroke-width="1.99289" stroke-linecap="round" stroke-linejoin="round" points="7.684 49.303 1.932 47.75 3.473 41.953"></polyline>
            <path d="M50.0446,14.74069 L50.04445,14.74069 C51.8198046,14.7465156 53.4570074,15.6996427 54.33864,17.24063 C55.7118348,19.6366628 54.9021572,22.6915131 52.52248,24.09286 C51.7741105,24.5295017 50.9235155,24.7603154 50.05708,24.76186 C48.2816858,24.7559771 46.6444748,23.8027833 45.76286,22.26174 C44.389656,19.8657132 45.1993253,16.8108602 47.579,15.40951 C48.3274469,14.972935 49.1780911,14.742185 50.04456,14.74069 L50.0446,14.74069 Z M50.04389,12.74774 C48.8253586,12.7480911 47.6287991,13.0722221 46.57671,13.68698 C43.2490864,15.6383514 42.1144485,19.9060349 44.03359,23.25235 C44.9446033,24.8590466 46.4608115,26.0342573 48.2439405,26.5157862 C50.0270695,26.9973151 51.9287511,26.7450959 53.52471,25.8154 C56.8527239,23.8643147 57.9874784,19.5962802 56.06789,16.25 C54.8347143,14.0853123 52.5351938,12.7484068 50.04389,12.74774 L50.04389,12.74774 Z" id="Shape" fill="#3F4143" fill-rule="nonzero"></path>
            <path d="M13.96611,23.25234 L19.10547,26.2427" id="Path" stroke="#3F4143" stroke-width="1.99289" stroke-linecap="round" stroke-linejoin="round"></path>
            <path d="M55.20726,47.24915 L39.96734,38.38154" id="Path" stroke="#3F4143" stroke-width="1.99289" stroke-linecap="round" stroke-linejoin="round"></path>
            <polyline id="Path" stroke="#3E4143" stroke-width="1.99289" stroke-linecap="round" stroke-linejoin="round" points="54.527 41.952 56.068 47.75 50.315 49.303"></polyline>
            <path d="M7.95547,14.74045 L7.95547,14.74045 C8.82186967,14.7420388 9.67241966,14.9728722 10.42075,15.40951 C12.800426,16.810864 13.610095,19.8657202 12.23689,22.26175 C11.355104,23.8028377 9.71769824,24.7559675 7.94218,24.76169 C7.07593079,24.760171 6.22551444,24.5294148 5.47731,24.09286 C3.09761256,22.6915303 2.28791872,19.636669 3.66112,17.24063 C4.54278901,15.6995548 6.18005128,14.7463438 7.9555,14.74045 L7.95547,14.74045 Z M7.95531,12.74759 C5.46416478,12.748469 3.16488239,14.0854131 1.93185,16.25 C0.0126992543,19.5963304 1.14735237,23.8640343 4.475,25.8154 C6.07099976,26.7449195 7.97262159,26.9970402 9.755699,26.5155252 C11.5387764,26.0340102 13.0549826,24.8589148 13.96612,23.25235 C15.8856849,19.9060967 14.7509624,15.638104 11.423,13.687 C10.3708107,13.0719992 9.17403048,12.7477958 7.95529,12.74759 L7.95531,12.74759 Z" id="Shape" fill="#3F4143" fill-rule="nonzero"></path>
        </g>
    </g>
</svg>