<?xml version="1.0" encoding="UTF-8"?>
<svg width="72px" height="72px" viewBox="0 0 72 72" version="1.1" xmlns="http://www.w3.org/2000/svg" xmlns:xlink="http://www.w3.org/1999/xlink">
    <!-- Generator: Sketch 55.2 (78181) - https://sketchapp.com -->
    <title>Icons / Ear</title>
    <desc>Created with Sketch.</desc>
    <g id="Icons-/-Ear" stroke="none" stroke-width="1" fill="none" fill-rule="evenodd" stroke-linecap="round">
        <g id="Iconos_72px-54" transform="translate(17.000000, 10.000000)" stroke-width="2">
            <path d="M8.45021,23.72814 C10.5420374,20.4983923 14.1568002,18.581776 18.00394,18.66257 C23.78094,18.86441 26.57527,24.64844 26.28062,28.97 C25.93225,34.07929 20.38919,39.05053 19.67562,39.97835 C18.9121407,40.8777932 18.4577569,41.998686 18.37942,43.17587" id="Path" stroke="#E73638" stroke-linejoin="round"></path>
            <path d="M8.2396,37.44538 C8.2396,37.44538 8.1288,41.18823 8.1288,42.01005 C8.1288,47.86891 12.50338,52.0000004 18.36224,52.0000004 C21.1749055,52.0007775 23.8725949,50.8837948 25.8614498,48.8949398 C27.8503048,46.9060849 28.9672875,44.2083955 28.96651,41.39573 L28.96651,41.37108 C28.9726026,39.2963982 29.5615353,37.2651737 30.66616,35.509 C35.78878,28.97978 37.7998,25.61439 37.7998,19.54223 C37.7998,8.38923 29.98516,0.10107 18.45563,0.140548555 C8.59108,0.17459 0.21904,6.0504 0.60927,18.75753" id="Path" stroke="#414345"></path>
            <path d="M30.43475,20.95864 C30.43475,14.1803 25.68533,9.14309 18.67814,9.16708403 C12.68286,9.18777 7.56,13.69783 7.58925425,21.3961 C7.58925425,21.3961 7.57438,30.31238 18.00394,30.24755" id="Path" stroke="#E73638" stroke-linejoin="round"></path>
        </g>
    </g>
</svg>