<?xml version="1.0" encoding="UTF-8"?>
<svg width="72px" height="72px" viewBox="0 0 72 72" version="1.1" xmlns="http://www.w3.org/2000/svg" xmlns:xlink="http://www.w3.org/1999/xlink">
    <!-- Generator: Sketch 55.2 (78181) - https://sketchapp.com -->
    <title>Icons / Eye</title>
    <desc>Created with Sketch.</desc>
    <g id="Icons-/-Eye" stroke="none" stroke-width="1" fill="none" fill-rule="evenodd">
        <g id="Iconos_72px-11" transform="translate(5.000000, 11.000000)">
            <path d="M31.00908,14.44 L18.86644,25.65545 C19.4202066,32.0825689 24.8856195,36.9654031 31.3342812,36.7942977 C37.7829428,36.6231923 42.9817307,31.4573998 43.1938905,25.0099583 C43.4060504,18.5625167 38.5581128,13.0661262 32.13465,12.47145 C31.8486311,12.4426824 31.5637032,12.5355545 31.349575,12.7273447 C31.1354468,12.919135 31.0118707,13.1921516 31.00908,13.4796 L31.00908,13.4796 C31.003837,13.9920918 31.3891162,14.4245539 31.89881,14.47829 C37.2392777,14.9346499 41.3007725,19.4708017 41.16648,24.82905 C40.9764063,30.1850718 36.6608565,34.4735597 31.303745,34.6299379 C25.9466336,34.7863161 21.3882767,30.7568645 20.8861,25.42105 C20.8286148,24.9115577 20.3936625,24.5289892 19.881,24.537 L19.881,24.537 C19.5936407,24.5377075 19.319865,24.6593986 19.1267962,24.8722374 C18.9337275,25.0850762 18.8392183,25.3693821 18.86644,25.65545 L31.00908,14.44 Z" id="Path" fill="#E73638" fill-rule="nonzero"></path>
            <path d="M30.97463,5.5754 C30.16426,5.5754 29.36521,5.60906 28.58205,5.6764 C28.24412,5.70116026 27.9406791,5.89249192 27.7726744,6.18674387 C27.6046697,6.48099582 27.5941407,6.83956699 27.74459,7.14317 L27.74459,7.14317 C27.9355809,7.51720136 28.336271,7.73597172 28.75418,7.69439 C29.47978,7.62944 30.22136,7.59479 30.97462,7.59479 C46.14586,7.59479 56.39886,20.71087 59.07136,24.53764 C56.409,28.37461 46.18649,41.48059 30.97463,41.48059 C15.80334,41.48059 5.59096,28.3645 2.9388,24.53767 C4.17494272,22.769198 5.53314353,21.0892604 7.00348,19.51013 C7.22267483,19.2743224 7.31804787,18.9490714 7.26090472,18.6322335 C7.20376157,18.3153956 7.00077257,18.0439555 6.71301,17.89958 L6.71301,17.89958 C6.2995005,17.6928407 5.79922947,17.7830767 5.48401,18.12126 C3.62984823,20.103061 1.96151257,22.2508748 0.5,24.53767 C0.5,24.53767 11.89115,43.5 30.97463,43.5 C50.05811,43.5 61.5,24.53767 61.5,24.53767 C61.5,24.53767 50.05805,5.5754 30.97463,5.5754 Z" id="Path" fill="#3F4143" fill-rule="nonzero"></path>
            <path d="M31.00395,24.53409 L6.81321,12.51589" id="Path" stroke="#E73638" stroke-width="2.02585" stroke-linecap="round" stroke-linejoin="round"></path>
            <path d="M31.00908,24.53702 L18.91378,0.5" id="Path" stroke="#E73638" stroke-width="2.02585" stroke-linecap="round" stroke-linejoin="round"></path>
        </g>
    </g>
</svg>