<?xml version="1.0" encoding="UTF-8"?>
<svg width="72px" height="72px" viewBox="0 0 72 72" version="1.1" xmlns="http://www.w3.org/2000/svg" xmlns:xlink="http://www.w3.org/1999/xlink">
    <!-- Generator: Sketch 55.2 (78181) - https://sketchapp.com -->
    <title>Icons / Financial</title>
    <desc>Created with Sketch.</desc>
    <g id="Icons-/-Financial" stroke="none" stroke-width="1" fill="none" fill-rule="evenodd">
        <g id="Iconos_72px-04" transform="translate(8.000000, 8.000000)">
            <path d="M28,1.7506 C42.4969624,1.7506 54.2487,13.5032743 54.2487,28.0002367 C54.2487,42.497199 42.496489,54.2494 27.9995267,54.2494 C13.5025643,54.2494 1.7499,42.4976524 1.7499,28.00069 C1.76627293,13.509949 13.509259,1.76696741 28,1.7506 L28,1.7506 Z M28,0.0006 C12.5365588,0.0006 0.00128001012,12.5367021 0.00128001012,28.0001433 C0.00128001012,43.4635845 12.5369255,55.99932 28.0003667,55.99932 C43.4638079,55.99932 56,43.4641312 56,28.00069 C56,12.536749 43.463941,0.0006 28,0.0006 L28,0.0006 Z" id="Shape" fill="#3F4143" fill-rule="nonzero"></path>
            <path d="M35.27306,17.01373 C33.3766368,15.0464054 30.7431192,13.9629885 28.01131,14.02628 C23.03131,14.02628 19.08915,17.22712 19.08915,21.06676 C19.1853257,23.414335 20.5310961,25.5307136 22.61625,26.61353 C24.17225,27.57306 34.44283,29.81437 34.44283,29.81437 C36.1117706,31.1028827 37.08915,33.0922493 37.08915,35.200715 C37.08915,37.3091807 36.1117706,39.2985473 34.44283,40.58706 C30.6793976,43.3611615 25.5480624,43.3611615 21.78463,40.58706 C19.8556467,39.1583418 18.8933784,36.7667187 19.29533,34.40015" id="Path" stroke="#3F4143" stroke-width="2" stroke-linecap="round" stroke-linejoin="round"></path>
            <path d="M28.0111,10 L28.0111,46" id="Path" stroke="#E73638" stroke-width="2" stroke-linecap="round" stroke-linejoin="round"></path>
        </g>
    </g>
</svg>