<?xml version="1.0" encoding="UTF-8"?>
<svg width="72px" height="72px" viewBox="0 0 72 72" version="1.1" xmlns="http://www.w3.org/2000/svg" xmlns:xlink="http://www.w3.org/1999/xlink">
    <!-- Generator: Sketch 55.2 (78181) - https://sketchapp.com -->
    <title>Icons / Goal</title>
    <desc>Created with Sketch.</desc>
    <g id="Icons-/-Goal" stroke="none" stroke-width="1" fill="none" fill-rule="evenodd">
        <g id="Iconos_72px-32" transform="translate(9.000000, 9.000000)">
            <path d="M6.35514,41.29138 C2.74152543,41.5447506 -0.0220833678,44.6148747 0.104627803,48.2351442 C0.231338973,51.8554137 3.20283371,54.724915 6.82532,54.724915 L47.17462,54.724915 C49.5791326,54.7278421 51.8022494,53.4467337 53.0053529,51.364852 C54.2084564,49.2829704 54.2084564,46.7171396 53.0053529,44.635258 C51.8022494,42.5533763 49.5791326,41.2722679 47.17462,41.275195 L27,41.275195" id="Path" stroke="#3F4143" stroke-width="1.92139" stroke-linecap="round" stroke-linejoin="round"></path>
            <path d="M46.87726,5.99988 L46.87726,5.99988 L41.5790213,11.12188 C40.7992648,11.8756976 40.3588469,12.9145436 40.3588469,13.999995 C40.3588469,15.0854464 40.7992648,16.1242924 41.5790213,16.87811 L46.87726,22 L16.87726,22 L16.87726,5.99988 L46.87726,5.99988 L46.87726,5.99988 Z M46.87726,4 L16.82935,4 C15.7247805,4 14.82935,4.8954305 14.82935,6 L14.82935,22 C14.82935,23.1045695 15.7247805,24 16.82935,24 L46.87726,24 C47.6926538,24 48.4264164,23.5050246 48.7317666,22.7489635 C49.0371167,21.9929025 48.8529085,21.127171 48.2662,20.56092 L42.95947,15.439 C42.5689638,15.0621075 42.3483982,14.5426933 42.3483982,13.999975 C42.3483982,13.4572567 42.5689638,12.9378425 42.95947,12.56095 L48.2662,7.439 C48.8528499,6.87274024 49.0370203,6.00704662 48.7316776,5.25102147 C48.4263349,4.49499633 47.6926177,4 46.87726,4 Z" id="Shape" fill="#E73638" fill-rule="nonzero"></path>
            <path d="M15.79528,48.00005 L15.79528,0.94051" id="Path" stroke="#3F4143" stroke-width="1.92139" stroke-linecap="round" stroke-linejoin="round"></path>
        </g>
    </g>
</svg>