<?xml version="1.0" encoding="UTF-8"?>
<svg width="72px" height="72px" viewBox="0 0 72 72" version="1.1" xmlns="http://www.w3.org/2000/svg" xmlns:xlink="http://www.w3.org/1999/xlink">
    <!-- Generator: Sketch 55.2 (78181) - https://sketchapp.com -->
    <title>Icons / Government</title>
    <desc>Created with Sketch.</desc>
    <g id="Icons-/-Government" stroke="none" stroke-width="1" fill="none" fill-rule="evenodd">
        <g id="Iconos_72px-69" transform="translate(12.000000, 9.000000)" fill-rule="nonzero">
            <path d="M11,18.76639 L11,46.01272 L7,46.01272 L7,18.76639 L11,18.76639 L11,18.76639 Z M11,16.76639 L7,16.76639 C5.8954305,16.76639 5,17.6618205 5,18.76639 L5,46.01272 C5,47.1172895 5.8954305,48.01272 7,48.01272 L11,48.01272 C12.1045695,48.01272 13,47.1172895 13,46.01272 L13,18.76639 C13,17.6618205 12.1045695,16.76639 11,16.76639 Z" id="Shape" fill="#E73638"></path>
            <path d="M27,18.76639 L27,46.01272 L23,46.01272 L23,18.76639 L27,18.76639 L27,18.76639 Z M27,16.76639 L23,16.76639 C21.8954305,16.76639 21,17.6618205 21,18.76639 L21,46.01272 C21,47.1172895 21.8954305,48.01272 23,48.01272 L27,48.01272 C28.1045695,48.01272 29,47.1172895 29,46.01272 L29,18.76639 C29,17.6618205 28.1045695,16.76639 27,16.76639 Z" id="Shape" fill="#E73638"></path>
            <path d="M43,18.76639 L43,46.01272 L39,46.01272 L39,18.76639 L43,18.76639 L43,18.76639 Z M43,16.76639 L39,16.76639 C37.8954305,16.76639 37,17.6618205 37,18.76639 L37,46.01272 C37,47.1172895 37.8954305,48.01272 39,48.01272 L43,48.01272 C44.1045695,48.01272 45,47.1172895 45,46.01272 L45,18.76639 C45,17.6618205 44.1045695,16.76639 43,16.76639 Z" id="Shape" fill="#E73638"></path>
            <path d="M46.96637,12.76645 L46.96637,16.76639 L2.96637,16.76639 L2.96637,12.76645 L46.96637,12.76645 L46.96637,12.76645 Z M46.96637,10.76645 L2.96637,10.76645 C1.8618005,10.76645 0.96637,11.6618805 0.96637,12.76645 L0.96637,16.76639 C0.96637,17.8709595 1.8618005,18.76639 2.96637,18.76639 L46.96637,18.76639 C48.0709395,18.76639 48.96637,17.8709595 48.96637,16.76639 L48.96637,12.76645 C48.96637,11.6618805 48.0709395,10.76645 46.96637,10.76645 Z" id="Shape" fill="#414345"></path>
            <path d="M46.96637,48 L46.96637,52 L2.96637,52 L2.96637,48 L46.96637,48 L46.96637,48 Z M46.96637,46 L2.96637,46 C1.8618005,46 0.96637,46.8954305 0.96637,48 L0.96637,52 C0.96637,53.1045695 1.8618005,54 2.96637,54 L46.96637,54 C48.0709395,54 48.96637,53.1045695 48.96637,52 L48.96637,48 C48.96637,46.8954305 48.0709395,46 46.96637,46 Z" id="Shape" fill="#414345"></path>
            <path d="M24.99838,2.01657 L38.29684,10.72769 L11.65484,10.72769 L24.99834,2.01657 L24.99838,2.01657 Z M24.99847,-1.98165306e-08 C24.6899315,-1.98165306e-08 24.3855733,0.0713563359 24.10922,0.20856 L4.93271,12.72769 L45,12.72769 L25.89014,0.20981 C25.6131699,0.0717796587 25.3079289,-1.98165306e-08 24.99847,-1.98165306e-08 L24.99847,-1.98165306e-08 Z" id="Shape" fill="#414345"></path>
        </g>
    </g>
</svg>