<?xml version="1.0" encoding="UTF-8"?>
<svg width="72px" height="72px" viewBox="0 0 72 72" version="1.1" xmlns="http://www.w3.org/2000/svg" xmlns:xlink="http://www.w3.org/1999/xlink">
    <!-- Generator: Sketch 55.2 (78181) - https://sketchapp.com -->
    <title>Icons / Grooming</title>
    <desc>Created with Sketch.</desc>
    <g id="Icons-/-Grooming" stroke="none" stroke-width="1" fill="none" fill-rule="evenodd">
        <g id="Iconos_72px-03" transform="translate(8.000000, 8.000000)">
            <polyline id="Path" stroke="#3F4143" stroke-width="2" stroke-linejoin="round" points="40 1.951 40 16 54.06 16"></polyline>
            <g id="Group" transform="translate(17.000000, 27.000000)" stroke="#E73638" stroke-linecap="round" stroke-linejoin="round" stroke-width="2.00182">
                <polyline id="Path" points="18.119 4.316 23.022 0.844 26.5 5.738"></polyline>
                <path d="M23.02183,1 C23.009215,6.52708649 19.2312778,11.3341149 13.8637616,12.6526801 C8.49624542,13.9712454 2.92099072,11.4618895 0.34883,6.56977" id="Path"></path>
            </g>
            <g id="Group" transform="translate(12.000000, 15.000000)" stroke="#E73638" stroke-linecap="round" stroke-linejoin="round" stroke-width="2.00182">
                <polyline id="Path" points="8.881 9.684 3.978 13.156 0.5 8.262"></polyline>
                <path d="M3.97817,13 C3.99078496,7.47291351 7.76872224,2.66588513 13.1362384,1.34731985 C18.5037546,0.0287545726 24.0790093,2.53811048 26.65117,7.43023" id="Path"></path>
            </g>
            <polyline id="Path" stroke="#3F4143" stroke-width="2" stroke-linejoin="round" points="40 1.951 40 16 54.06 16"></polyline>
            <g id="Group" transform="translate(17.000000, 27.000000)" stroke="#E73638" stroke-linecap="round" stroke-linejoin="round" stroke-width="2.00182">
                <polyline id="Path" points="18.119 4.316 23.022 0.844 26.5 5.738"></polyline>
                <path d="M23.02183,1 C23.009215,6.52708649 19.2312778,11.3341149 13.8637616,12.6526801 C8.49624542,13.9712454 2.92099072,11.4618895 0.34883,6.56977" id="Path"></path>
            </g>
            <g id="Group" transform="translate(12.000000, 15.000000)" stroke="#E73638" stroke-linecap="round" stroke-linejoin="round" stroke-width="2.00182">
                <polyline id="Path" points="8.881 9.684 3.978 13.156 0.5 8.262"></polyline>
                <path d="M3.97817,13 C3.99078496,7.47291351 7.76872224,2.66588513 13.1362384,1.34731985 C18.5037546,0.0287545726 24.0790093,2.53811048 26.65117,7.43023" id="Path"></path>
            </g>
            <polyline id="Path" stroke="#3F4143" stroke-width="2" stroke-linejoin="round" points="40 1.951 40 16 54.06 16"></polyline>
            <g id="Group" transform="translate(17.000000, 27.000000)" stroke="#E73638" stroke-linecap="round" stroke-linejoin="round" stroke-width="2.00182">
                <polyline id="Path" points="18.119 4.316 23.022 0.844 26.5 5.738"></polyline>
                <path d="M23.02183,1 C23.009215,6.52708649 19.2312778,11.3341149 13.8637616,12.6526801 C8.49624542,13.9712454 2.92099072,11.4618895 0.34883,6.56977" id="Path"></path>
            </g>
            <g id="Group" transform="translate(12.000000, 15.000000)" stroke="#E73638" stroke-linecap="round" stroke-linejoin="round" stroke-width="2.00182">
                <polyline id="Path" points="8.881 9.684 3.978 13.156 0.5 8.262"></polyline>
                <path d="M3.97817,13 C3.99078496,7.47291351 7.76872224,2.66588513 13.1362384,1.34731985 C18.5037546,0.0287545726 24.0790093,2.53811048 26.65117,7.43023" id="Path"></path>
            </g>
            <path d="M39.17157,2 L54,16.82841 L54,54 L2,54 L2,2 L39.17157,2 L39.17157,2 Z M40,0 L2,0 C0.8954305,0 0,0.8954305 0,2 L0,54 C0,55.1045695 0.8954305,56 2,56 L54,56 C55.1045695,56 56,55.1045695 56,54 L56,16.82843 C56,16.2979943 55.7892856,15.7892838 55.41421,15.41421 L40,0 Z" id="Shape" fill="#3F4143" fill-rule="nonzero"></path>
        </g>
    </g>
</svg>