<?xml version="1.0" encoding="UTF-8"?>
<svg width="72px" height="72px" viewBox="0 0 72 72" version="1.1" xmlns="http://www.w3.org/2000/svg" xmlns:xlink="http://www.w3.org/1999/xlink">
    <!-- Generator: Sketch 55.2 (78181) - https://sketchapp.com -->
    <title>Icons / Heart</title>
    <desc>Created with Sketch.</desc>
    <g id="Icons-/-Heart" stroke="none" stroke-width="1" fill="none" fill-rule="evenodd">
        <g id="Iconos_72px-42" transform="translate(8.000000, 12.000000)" fill-rule="nonzero">
            <path d="M42,0.99928 C36.0838404,0.99616934 30.8058728,4.7163756 28.82,10.28928 C26.177527,3.84093681 19.4336636,0.0701997479 12.5563796,1.19570382 C5.67909573,2.32120789 0.489060958,8.04499084 0.04,14.99928 C0.0197528838,15.1819106 0.00999496193,15.3655307 0.00999496193,15.54928 C0.0328765347,16.7080051 0.133099469,17.8639096 0.31,19.00928 C0.32237498,19.044676 0.329123599,19.0817934 0.33,19.11928 C3.48,38.48928 28,48.99928 28,48.99928 C28,48.99928 56,36.99928 56,14.99928 C55.9986253,7.267863 49.731417,1.00065472 42,0.99928 Z M28,46.79928 C24.69,45.20928 11.84,38.53928 5.54,27.59928 C3.95023522,24.9112392 2.86254076,21.9565053 2.33,18.87928 C2.10782041,17.9253082 1.99707994,16.9487786 1.99994373,15.96928 C1.99994373,15.63928 2.01,15.31928 2.04,14.99928 C2.54535706,8.23176436 8.18364209,2.99881405 14.97,2.99881405 C21.7563579,2.99881405 27.3946429,8.23176436 27.9,14.99928 L30,14.99928 C29.9952072,10.4688191 32.5423238,6.32185267 36.5853704,4.27762341 C40.6284169,2.23339414 45.4781041,2.64041782 49.1238563,5.32995122 C52.7696085,8.01948462 54.5898701,12.5329956 53.83,16.99928 L53.91,16.99928 C53.6655134,19.7674706 52.9484699,22.473295 51.79,24.99928 C46.19,37.47926 31.56,45.08924 28,46.79928 L28,46.79928 Z" id="Shape" fill="#E73638"></path>
            <path d="M56.000004,14.99928 C56.000004,36.47928 29.3,48.42928 28.05,48.97928 L28.1,46.74928 C31.83,44.94928 46.24,37.36928 51.79,24.99928 C52.9484699,22.473295 53.6655134,19.7674706 53.91,16.99928 L53.83,16.99928 C54.5849281,12.5354214 52.7631404,8.02667508 49.1190945,5.34024999 C45.4750486,2.6538249 40.629195,2.24712296 36.5883489,4.28857181 C32.5475029,6.33002065 29.9996757,10.4720347 30,14.99928 L27.9,14.99928 C27.9762434,13.2694891 28.3342827,11.5637358 28.96,9.94928 C31.3878789,3.66204722 37.9535097,-0.000348713474 44.5786838,1.23697115 C51.2038579,2.47429101 56.00504,8.25955698 56.000004,14.99928 L56.000004,14.99928 Z" id="Path" fill="#414345"></path>
            <circle id="Oval" fill="#414345" cx="28.95001" cy="14.99928" r="1.04999"></circle>
        </g>
    </g>
</svg>