<?xml version="1.0" encoding="UTF-8"?>
<svg width="72px" height="72px" viewBox="0 0 72 72" version="1.1" xmlns="http://www.w3.org/2000/svg" xmlns:xlink="http://www.w3.org/1999/xlink">
    <!-- Generator: Sketch 55.2 (78181) - https://sketchapp.com -->
    <title>Icons / Home</title>
    <desc>Created with Sketch.</desc>
    <g id="Icons-/-Home" stroke="none" stroke-width="1" fill="none" fill-rule="evenodd">
        <g id="Iconos_72px-48" transform="translate(8.000000, 8.000000)" fill-rule="nonzero">
            <path d="M34.07751,37.01818 L34.07751,55 L22.225,55 L22.225,37.01818 L34.07751,37.01818 L34.07751,37.01818 Z M34.07751,35.01818 L22.225,35.01818 C21.1204305,35.01818 20.225,35.9136105 20.225,37.01818 L20.225,57 L36.07751,57 L36.07751,37.01818 C36.07751,35.9136105 35.1820795,35.01818 34.07751,35.01818 Z" id="Shape" fill="#414345"></path>
            <path d="M46.05,28.99928 L46.05,55 L10.05,55 L10.05,28.99928 L8.05,28.99928 L8.05,55 C8.05,56.1045695 8.9454305,57 10.05,57 L46.05,57 C47.1545695,57 48.05,56.1045695 48.05,55 L48.05,28.99928 L46.05,28.99928 Z" id="Path" fill="#414345"></path>
            <path d="M54,28.999297 L46.05,28.999297 C46.05,27.8947105 46.9454305,26.99928 48.05,26.99928 L53.99,26.99928 L28.01,3.05928 L27.95,2.99928 C26.18,4.73928 22.6,7.96928 18.47,11.71928 C12.44,17.17928 5.6,23.36928 2,27.00928 L8.06,27.00928 C9.15904665,27.00928 10.05,27.9002333 10.05,28.999297 L2.01,28.999297 C1.2031369,29.002601 0.473527929,28.5201125 0.160709814,27.7763491 C-0.152108301,27.0325858 0.0133161861,26.1736567 0.58,25.59928 C6.72,19.39928 22.27,5.74928 26.56,1.56928 C26.9308087,1.20458049 27.4298996,0.99991733 27.95,0.99928 C28.4826928,1.00061722 28.9932049,1.2127314 29.37,1.58928 L55.41,25.58928 C55.982258,26.1598067 56.1541253,27.0190515 55.8453511,27.7658035 C55.5365768,28.5125554 54.8080717,28.999297 54,28.999297 Z" id="Path" fill="#E73638"></path>
            <circle id="Oval" fill="#C7393A" cx="9.04999" cy="29" r="1"></circle>
            <circle id="Oval" fill="#C7393A" cx="47.04999" cy="29" r="1"></circle>
        </g>
    </g>
</svg>