<?xml version="1.0" encoding="UTF-8"?>
<svg width="72px" height="72px" viewBox="0 0 72 72" version="1.1" xmlns="http://www.w3.org/2000/svg" xmlns:xlink="http://www.w3.org/1999/xlink">
    <!-- Generator: Sketch 55.2 (78181) - https://sketchapp.com -->
    <title>Icons / Idea</title>
    <desc>Created with Sketch.</desc>
    <g id="Icons-/-Idea" stroke="none" stroke-width="1" fill="none" fill-rule="evenodd">
        <g id="Iconos_72px-26" transform="translate(14.000000, 5.000000)">
            <path d="M16.36923,45.84124 L10,23.18535 L11.80645,24.19228 C14.93572,25.93657 18.02376,24.53075 19.35256,21.19834 L21.99336,14.57569 L24.96881,21.323 C26.41157,24.5947 29.46507,25.86208 32.52881,24.02719 L33.93449,23.18531 L27.62632,45.84124" id="Path" stroke="#E73638" stroke-width="1.98316" stroke-linecap="round" stroke-linejoin="round"></path>
            <path d="M43.5,30.24927 C43.5,37.97927 40.52,40.78927 34.48,44.75921 C34.4773313,44.759155 34.4747557,44.7601908 34.4728683,44.7620783 C34.4709808,44.7639657 34.469945,44.7665413 34.47,44.76921 L34.47,42.35921 C39.08,39.04921 41.52006,36.78921 41.52006,30.24921 C41.52006,28.59921 41.50006,21.59921 41.47006,20.98921 C40.78012,10.03921 32.53006,2.97921 22.00006,2.97921 C11.47006,2.97921 3.22006,10.03921 2.54006,20.95921 L2.53011,20.99921 L2.53011,21.02921 C2.50011,21.59921 2.48011,28.59921 2.48011,30.24921 C2.48011,36.78921 4.92011,39.04921 9.53017,42.35921 L9.53017,44.75921 C3.48017,40.78921 0.50017,37.97921 0.50017,30.24927 C0.50017,29.76927 0.51017,21.30927 0.56017,20.83927 C1.29017,9.19927 10.06017,0.99927 22.00017,0.99927 C33.95017,0.99927 42.71017,9.19927 43.44017,20.83927 C43.49,21.30927 43.5,29.76923 43.5,30.24927 Z" id="Path" fill="#414345" fill-rule="nonzero"></path>
            <path d="M32.48682,45.96334 L32.48682,54.11813 C27.3286405,56.7547925 21.367274,57.3542976 15.78738,55.79751 C14.3088605,55.3880809 12.8765429,54.8271562 11.51319,54.12365 L11.51319,46.01318 C14.7425326,47.7320053 18.3519341,48.6120144 22.01,48.57241 C25.6612493,48.5577278 29.2551104,47.6627383 32.48682,45.96334 L32.48682,45.96334 Z M9.53,42.33926 L9.53,55.29926 C11.3294092,56.3436639 13.2550403,57.1535715 15.26,57.70926 C17.4505183,58.3231586 19.7150868,58.632745 21.99,58.62931 C26.368674,58.6467415 30.6729411,57.4973261 34.46,55.29931 L34.47,55.29931 L34.47,42.41931 C30.8565725,45.0812564 26.4978042,46.5400096 22.01,46.58931 C17.4842484,46.6549688 13.0750541,45.1534403 9.53,42.33926 L9.53,42.33926 Z" id="Shape" fill="#414345" fill-rule="nonzero"></path>
            <path d="M33.23161,50.00038 C27.6660727,52.7951953 21.2591748,53.4171542 15.26,51.745 C13.7048816,51.3148579 12.1966204,50.7304466 10.75768,50.00047" id="Path" stroke="#414345" stroke-width="1.98316"></path>
            <path d="M24.09782,61 L19.88889,61 C18.6270961,61 17.60421,59.9771139 17.60421,58.71532 L17.60421,56.64262 L26.3825,56.64262 L26.3825,58.71533 C26.3825,59.3212639 26.141793,59.9023802 25.7133321,60.3308392 C25.2848712,60.7592982 24.7037539,61 24.09782,61 Z" id="Path" fill="#414345" fill-rule="nonzero"></path>
        </g>
    </g>
</svg>