<?xml version="1.0" encoding="UTF-8"?>
<svg width="72px" height="72px" viewBox="0 0 72 72" version="1.1" xmlns="http://www.w3.org/2000/svg" xmlns:xlink="http://www.w3.org/1999/xlink">
    <!-- Generator: Sketch 55.2 (78181) - https://sketchapp.com -->
    <title>Icons / Key</title>
    <desc>Created with Sketch.</desc>
    <g id="Icons-/-Key" stroke="none" stroke-width="1" fill="none" fill-rule="evenodd">
        <g id="Iconos_72px-46" transform="translate(12.000000, 7.000000)">
            <path d="M20.54809,21.70053 L45.3614,46.51384" id="Path" stroke="#414345" stroke-width="2" stroke-linecap="round"></path>
            <path d="M37.9099,40.50985 L45.91905,48.519 C46.0267828,48.6269729 46.0267828,48.8017771 45.91905,48.90975 L39.75668,55.07216 C39.7116128,55.1253166 39.6455983,55.1561675 39.57591,55.1567808 C39.4242845,55.1613899 39.2960287,55.0454261 39.28553,54.89409 L39.07513,51.54864 C38.9365603,49.3998022 37.2244971,47.6877305 35.07566,47.54915 L31.73019,47.33877 C31.6217931,47.3319527 31.5274421,47.2622682 31.4890471,47.16067 C31.4506521,47.0590719 31.4753343,46.9444035 31.55213,46.8676 L37.90991,40.50985 L37.9099,40.50985 Z M37.90991,37.68142 L30.13791,45.45342 C29.5052482,46.0860887 29.3018851,47.0307064 29.6181562,47.8676671 C29.9344272,48.7046278 30.7116709,49.2786935 31.60463,49.33486 L34.95012,49.54525 C36.0947537,49.617239 37.0070657,50.5295466 37.07906,51.67418 L37.28946,55.01967 C37.3619527,56.2267346 38.3666951,57.1658077 39.5759,57.1567361 C40.1760338,57.1567361 40.7509031,56.9150861 41.1709,56.48641 L47.3333,50.32399 C48.222242,49.4350378 48.222242,47.9937722 47.3333,47.10482 L37.9099,37.68142 L37.90991,37.68142 Z" id="Shape" fill="#414345" fill-rule="nonzero"></path>
            <path d="M12.3132,2.86935 C16.4740038,2.86935 20.2251171,5.37572912 21.817399,9.21980597 C23.4096809,13.0638828 22.5295582,17.4886147 19.5874313,20.430753 C16.6453044,23.3728913 12.220576,24.2530313 8.37649293,22.6607643 C4.53240989,21.0684974 2.026,17.3173938 2.026,13.15659 C2.03242016,7.47778129 6.63439131,2.87579224 12.3132,2.86935 L12.3132,2.86935 Z M12.3132,0.84335 C7.3329584,0.84335 2.84310121,3.843368 0.937242455,8.44451012 C-0.968616297,13.0456522 0.0848497839,18.3417979 3.60641096,21.863362 C7.12797214,25.384926 12.424117,26.4383964 17.0252606,24.5325414 C21.6264043,22.6266864 24.62643,18.1368316 24.62643,13.15659 C24.62643,9.89091663 23.3291508,6.75899583 21.019972,4.4498151 C18.7107931,2.14063438 15.5788734,0.84335 12.3132,0.84335 L12.3132,0.84335 Z" id="Shape" fill="#E73638" fill-rule="nonzero"></path>
        </g>
    </g>
</svg>