<?xml version="1.0" encoding="UTF-8"?>
<svg width="72px" height="72px" viewBox="0 0 72 72" version="1.1" xmlns="http://www.w3.org/2000/svg" xmlns:xlink="http://www.w3.org/1999/xlink">
    <!-- Generator: Sketch 55.2 (78181) - https://sketchapp.com -->
    <title>Icons / Mail</title>
    <desc>Created with Sketch.</desc>
    <g id="Icons-/-Mail" stroke="none" stroke-width="1" fill="none" fill-rule="evenodd">
        <g id="Iconos_72px-43" transform="translate(4.000000, 16.000000)" fill-rule="nonzero">
            <path d="M58.92,2.01517 L39.63,20.00517 L37.48,22.00517 L32,27.11517 L26.52,22.00517 L24.37,20.00517 L5.08,2.01517 L2.14,2.01517 L21.44,20.00517 L23.58,22.00517 L30.64,28.58517 C31.4089881,29.2917916 32.5910119,29.2917916 33.36,28.58517 L40.42,22.00517 L42.56,20.00517 L61.86,2.01517 L58.92,2.01517 Z" id="Path" fill="#E73638"></path>
            <path d="M24.37,20.00516 L21.44,20.00516 L2.15,37.98516 L5.08,37.98516 L22.22,22.00516 L24.37,20.00516 Z M42.56,20.00516 L39.63,20.00516 L41.78,22.00516 L58.92,37.98516 L61.77,37.98516 L61.77,37.90516 L42.56,20.00516 Z" id="Shape" fill="#E73638"></path>
            <path d="M63.39,0.58517 C63.0214535,0.217055406 62.5208872,0.0117871978 62,0.0151288422 L2,0.0151288422 C0.898619894,0.0228321848 0.00766218481,0.913789894 0,2.01517 L0.02,37.99517 C0.017376029,38.5254888 0.227570812,39.0347013 0.60350607,39.4087569 C0.979441329,39.7828124 1.48970103,39.9904522 2.02,39.9852684 L61.77,39.9852684 C62.8657127,39.9825711 63.7563894,39.1008013 63.77,38.00517 L64.0002583,2.02517 C64.0089012,1.48061221 63.7873605,0.957630804 63.39,0.58517 Z M61.77,37.98517 L2.02,37.98517 L2,2.01517 L62,2.01517 L61.77,37.90517 L61.77,37.98517 Z" id="Shape" fill="#414345"></path>
        </g>
    </g>
</svg>