<?xml version="1.0" encoding="UTF-8"?>
<svg width="72px" height="72px" viewBox="0 0 72 72" version="1.1" xmlns="http://www.w3.org/2000/svg" xmlns:xlink="http://www.w3.org/1999/xlink">
    <!-- Generator: Sketch 55.2 (78181) - https://sketchapp.com -->
    <title>Icons / Partnership</title>
    <desc>Created with Sketch.</desc>
    <g id="Icons-/-Partnership" stroke="none" stroke-width="1" fill="none" fill-rule="evenodd">
        <g id="Iconos_72px-35" transform="translate(4.000000, 10.000000)">
            <path d="M39.04334,11.46663 L36.53763,13.97233" id="Path" stroke="#414345" stroke-width="2" stroke-linecap="round"></path>
            <polyline id="Path" stroke="#414345" stroke-width="2" stroke-linecap="round" points="50.548 34.575 50.548 29.04 53.552 26.036"></polyline>
            <path d="M39.84469,23.7541 L44.99937,28.90878 L50.03643,33.97787 C51.0761161,35.0241671 51.6473382,36.4471807 51.6196481,37.921941 C51.5919579,39.3967014 50.9677201,40.797269 49.88949,41.8038 L41.81,49.346 C40.0798898,50.9678325 37.7973677,51.8704 35.42595,51.8704 L30.39965,51.8704" id="Path" stroke="#414345" stroke-width="2" stroke-linecap="round"></path>
            <path d="M32.91911,46.01174 C33.7924157,46.8799196 34.1296544,48.1515788 33.801333,49.3384249 C33.4730116,50.525271 32.5301657,51.4428159 31.33483,51.73874 C28.799002,52.3436192 26.1345826,51.5258694 24.37469,49.60257 L10.81,36.03785 C10.4469795,35.6748317 10.2430365,35.182472 10.2430365,34.669085 C10.2430365,34.155698 10.4469795,33.6633383 10.81,33.30032 L12.073,32.03724 C13.9496,30.1606496 16.9908812,30.1565123 18.87258,32.02799 L32.91911,46.01174 Z" id="Path" stroke="#414345" stroke-width="2" stroke-linecap="round"></path>
            <path d="M36.53763,13.97233 L28.07863,13.97233 L18.345,23.706 L18.345,23.706 C20.6175853,25.978581 24.0345877,26.660041 27.00509,25.4331 L31.82647,23.44165 L38.18817,23.44165 C38.7186008,23.4416508 39.2273071,23.2309395 39.60238,22.85587 L42.45426,20.004" id="Path" stroke="#414345" stroke-width="2" stroke-linecap="round"></path>
            <path d="M45.42943,2.33508 L45.42943,2.33508 L61.95663,18.8623 L55.10083,25.71813 L38.57362,9.19091 L45.42752,2.33508 L45.42943,2.33508 L45.42943,2.33508 Z M45.42943,0.33507842 C44.8988583,0.334414221 44.3899006,0.545238915 44.01521,0.92089 L37.15941,7.77673 C36.7843376,8.15179133 36.5736231,8.66049033 36.5736231,9.190915 C36.5736231,9.72133967 36.7843376,10.2300387 37.15941,10.6051 L53.68661,27.13232 C54.0616734,27.5074077 54.5703831,27.7181319 55.10082,27.7181319 C55.6312569,27.7181319 56.1399666,27.5074077 56.51503,27.13232 L63.37085,20.27654 C63.7459236,19.9014671 63.9566379,19.3927587 63.9566379,18.862325 C63.9566379,18.3318913 63.7459236,17.8231829 63.37085,17.44811 L46.84364,0.92089 C46.4689543,0.545237624 45.9599991,0.334412457 45.42943,0.33507842 Z" id="Shape" fill="#E73638" fill-rule="nonzero"></path>
            <polyline id="Path" stroke="#414345" stroke-width="2" stroke-linecap="round" points="15.814 30.528 10.625 25.339 25.163 10.8 28.517 14.153"></polyline>
            <path d="M18.57057,2.33508 L18.57057,2.33508 L25.42639,9.19091 L8.89919,25.71807 L2.04337,18.8623 L18.56866,2.33508 L18.57057,2.33508 L18.57057,2.33508 Z M18.57057,0.335078428 C18.0400009,0.334452457 17.5310457,0.545277624 17.15636,0.92093 L0.62915,17.44811 C0.254076364,17.8231829 0.0433621247,18.3318913 0.0433621247,18.862325 C0.0433621247,19.3927587 0.254076364,19.9014671 0.62915,20.27654 L7.485,27.13232 C7.86006336,27.5074077 8.36877307,27.7181319 8.89921,27.7181319 C9.42964693,27.7181319 9.93835664,27.5074077 10.31342,27.13232 L26.84059,10.6051 C27.2156624,10.2300387 27.4263769,9.72133967 27.4263769,9.190915 C27.4263769,8.66049033 27.2156624,8.15179133 26.84059,7.77673 L19.98479,0.92089 C19.6100994,0.545238915 19.1011417,0.334414221 18.57057,0.335078428 L18.57057,0.335078428 Z" id="Shape" fill="#E73638" fill-rule="nonzero"></path>
            <path d="M14.43555,39.66343 L20.21112,33.88786" id="Path" stroke="#414345" stroke-width="2" stroke-linecap="round"></path>
            <path d="M19.34293,44.57081 L25.1185,38.79524" id="Path" stroke="#414345" stroke-width="2" stroke-linecap="round"></path>
            <path d="M24.1999,49.42777 L29.97547,43.6522" id="Path" stroke="#414345" stroke-width="2" stroke-linecap="round"></path>
        </g>
    </g>
</svg>