<?xml version="1.0" encoding="UTF-8"?>
<svg width="72px" height="72px" viewBox="0 0 72 72" version="1.1" xmlns="http://www.w3.org/2000/svg" xmlns:xlink="http://www.w3.org/1999/xlink">
    <!-- Generator: Sketch 55.2 (78181) - https://sketchapp.com -->
    <title>Icons / People /</title>
    <desc>Created with Sketch.</desc>
    <defs>
        <rect id="path-1" x="0" y="0" width="22" height="9"></rect>
        <polygon id="path-3" points="0 0.38011 7.95136174 0.38011 9.32374239 2.380105 10.6820181 0.38011 48 0.38011 48 38.38011 0 38.38011"></polygon>
    </defs>
    <g id="Icons-/-People-/" stroke="none" stroke-width="1" fill="none" fill-rule="evenodd">
        <g id="Iconos_72px-63" transform="translate(12.000000, 8.000000)">
            <g id="Shape" transform="translate(13.000000, 0.000000)">
                <mask id="mask-2" fill="white">
                    <use xlink:href="#path-1"></use>
                </mask>
                <g id="Mask"></g>
                <path d="M30.71,44.90989 C28.4267621,43.5465934 25.8455535,42.7605605 23.19,42.61989 L17.5,42.61989 L17.5,39.95989 C21.1008665,37.8761589 23.8148233,34.5468489 25.13,30.59989 C25.3746076,30.6401194 25.6221065,30.6601869 25.87,30.65989 C28.692869,30.6606493 31.0594514,28.5273035 31.3505374,25.7194824 C31.6416235,22.9116613 29.7629929,20.3382155 27,19.75989 L27,19.57989 C27,14.9425245 25.3809326,10.4962139 22.6070928,7.18773196 C19.7762678,3.81128123 15.7427362,1.61989 11,1.61989 C6.40230765,1.61989 2.47110498,3.67929515 -0.344012766,6.88130677 C-3.27829137,10.218856 -5,14.7977896 -5,19.57989 L-5,19.75989 C-7.76299291,20.3382155 -9.64162346,22.9116613 -9.35053742,25.7194824 C-9.05945138,28.5273035 -6.69286904,30.6606493 -3.87,30.65989 C-3.65930881,30.6618167 -3.44875563,30.6484483 -3.24,30.61989 C-1.68,34.96989 0.94,38.25989 4.5,40.05989 L4.5,42.61989 L-1.19,42.61989 C-5.5,42.61989 -13,46.11989 -13,50.42989 C-13,51.57989 -12.53,56.01003 -11.77,56.76998 C-10.9859231,57.5569419 -9.92089395,58 -8.81,58 L30.81,58 C33.80679,58 35,52.73991 35,50.42991 C35,48.27989 33.12,46.31992 30.71,44.90989 Z M-1.24,29.94989 C-1.59107284,29.0453594 -2.51952119,28.5023829 -3.48,28.63989 C-3.6561356,28.6567351 -3.8330958,28.6634128 -4.01,28.65989 C-5.67807212,28.5793442 -7.06444261,27.3470149 -7.34,25.69989 C-7.60937271,23.9856229 -6.58489326,22.3320026 -4.93,21.80989 C-4.588054,21.6968092 -4.23015845,21.6394108 -3.87,21.63989 C-3.55198122,21.636802 -3.23524393,21.6806061 -2.93,21.76989 C-2.97,21.09989 -3,20.40989 -3,19.71989 L-3,19.57989 C-3,15.6309664 -1.68718301,11.8057638 0.588614537,8.89059158 C3.06736067,5.71545335 6.68849675,3.61989 11,3.61989 C15.377181,3.61989 19.0428018,5.7797837 21.523866,9.03644164 C23.7303851,11.9327303 25,15.6964854 25,19.57989 L25,19.71989 C25,20.41989 24.97,21.09989 24.92,21.77989 C25.2281731,21.6872716 25.54821,21.6401082 25.87,21.63989 C27.2482008,21.6420711 28.5014376,22.4392102 29.0876539,23.6865244 C29.6738702,24.9338385 29.4878298,26.4074132 28.61,27.46989 C27.9551016,28.3195544 26.9071214,28.7697698 25.84,28.65989 C25.8194845,28.6614823 25.7988901,28.6580499 25.78,28.64989 C25.6328241,28.6498379 25.4858209,28.6398149 25.34,28.61989 C24.424201,28.4564448 23.517804,28.9512076 23.15994,29.80989 C23.1483708,29.8439022 23.135019,29.8772817 23.11994,29.90989 C21.47994,34.00989 18.82994,37.15989 15.49994,38.64989 L15.49994,43.66989 C15.4997476,43.9916819 15.4525837,44.3117225 15.35994,44.61989 C14.94994,45.97989 13.68994,48.97989 12.18994,48.97989 L9.81,48.97989 C8.31,48.97989 7.05,45.97989 6.64,44.61989 C6.54735627,44.3117225 6.50019239,43.9916819 6.5,43.66989 L6.5,38.72989 C3.05,37.28989 0.39,34.1699 -1.23,29.9799 L-1.24,29.94989 Z M30.81,56 L-9.49643,56 C-10.70646,56 -11,51.63987 -11,50.42991 C-11,47.78991 -4.98,44.61991 -1.19,44.61991 L4.59,44.61991 C5.03,47.09991 7.2,50.97991 9.81,50.97991 L12.19,50.97991 C14.8,50.97991 16.97,47.09991 17.41,44.61991 L23.19,44.61991 C26.98,44.61991 33,47.78991 33,50.42991 C33,51.63987 32.02,56 30.81,56 Z" fill="#414345" fill-rule="nonzero" mask="url(#mask-2)"></path>
            </g>
            <g id="Shape" transform="translate(0.000000, 19.619890)">
                <mask id="mask-4" fill="white">
                    <use xlink:href="#path-3"></use>
                </mask>
                <g id="Mask"></g>
                <path d="M43.71,25.29 C41.4267621,23.9267034 38.8455535,23.1406705 36.19,23 L30.5,23 L30.5,20.34 C34.1008665,18.2562689 36.8148233,14.9269589 38.13,10.98 C38.3746076,11.0202294 38.6221065,11.0402969 38.87,11.04 C41.692869,11.0407593 44.0594514,8.90741348 44.3505374,6.09959241 C44.6416235,3.29177135 42.7629929,0.71832552 40,0.14 L40,-0.04 C40,-9.41 33.39,-18 24,-18 C14.61,-18 8,-9.41 8,-0.04 L8,0.14 C5.23700709,0.71832552 3.35837654,3.29177135 3.64946258,6.09959241 C3.94054862,8.90741348 6.30713096,11.0407593 9.13,11.04 C9.34069119,11.0419267 9.55124437,11.0285583 9.76,11 C11.32,15.35 13.94,18.64 17.5,20.44 L17.5,23 L11.81,23 C7.5,23 0,26.5 0,30.81 C0,31.96 0.47,36.39014 1.23,37.15009 C2.01407694,37.9370519 3.07910605,38.38011 4.19,38.38011 L43.81,38.38011 C46.80679,38.38011 48,33.12002 48,30.81002 C48,28.66 46.12,26.70003 43.71,25.29 Z M11.76,10.33 C11.4089272,9.4254694 10.4804788,8.88249291 9.52,9.02 C9.3438644,9.03684507 9.1669042,9.04352281 8.99,9.04 C7.32192788,8.9594542 5.93555739,7.72712487 5.66,6.08 C5.39062729,4.36573293 6.41510674,2.71211258 8.07,2.19 C8.411946,2.07691917 8.76984155,2.01952083 9.13,2.02 C9.44801878,2.01691196 9.76475607,2.06071606 10.07,2.15 C10.03,1.48 10,0.79 10,0.1 L10,-0.04 C10,-8.29 15.73,-16 24,-16 C32.27,-16 38,-8.29 38,-0.04 L38,0.1 C38,0.8 37.97,1.48 37.92,2.16 C38.2281731,2.06738155 38.54821,2.02021823 38.87,2.02 C40.2482008,2.02218114 41.5014376,2.8193202 42.0876539,4.06663436 C42.6738702,5.31394853 42.4878298,6.78752319 41.61,7.85 C40.9551016,8.69966445 39.9071214,9.14987979 38.84,9.04 C38.8194845,9.04159231 38.7988901,9.03815991 38.78,9.03 C38.6328241,9.02994786 38.4858209,9.01992491 38.34,9 C37.424201,8.83655483 36.517804,9.33131756 36.15994,10.19 C36.1483708,10.2240122 36.135019,10.2573917 36.11994,10.29 C34.47994,14.39 31.82994,17.54 28.49994,19.03 L28.49994,24.05 C28.4997476,24.3717919 28.4525837,24.6918325 28.35994,25 C27.94994,26.36 26.68994,29.36 25.18994,29.36 L22.81,29.36 C21.31,29.36 20.05,26.36 19.64,25 C19.5473563,24.6918325 19.5001924,24.3717919 19.5,24.05 L19.5,19.11 C16.05,17.67 13.39,14.55001 11.77,10.36001 L11.76,10.33 Z M43.81,36.38011 L3.50357,36.38011 C2.29354,36.38011 2,32.01998 2,30.81002 C2,28.17002 8.02,25.00002 11.81,25.00002 L17.59,25.00002 C18.03,27.48002 20.2,31.36002 22.81,31.36002 L25.19,31.36002 C27.8,31.36002 29.97,27.48002 30.41,25.00002 L36.19,25.00002 C39.98,25.00002 46,28.17002 46,30.81002 C46,32.01998 45.02,36.38011 43.81,36.38011 Z" fill="#414345" fill-rule="nonzero" mask="url(#mask-4)"></path>
            </g>
            <path d="M21.5698,25.45995 L25.76089,25.45995" id="Path" stroke="#414345" stroke-width="1.7" stroke-linecap="round"></path>
            <g id="Group" transform="translate(5.000000, 6.000000)" fill-rule="nonzero" stroke="#E73638" stroke-linecap="round" stroke-linejoin="round" stroke-width="2">
                <path d="M3.3529,2.031 C-2.1311,5.41048 1.03232,14.50745 3.86481,14.85125 C6.75181,15.20166 6.25264,12.38155 6.85795,10.31686 C7.42686,8.37633 8.87937,3.55842 8.40486,1.85523 C7.92471,0.13182 4.876,1.09242 3.3529,2.031 Z" id="Path"></path>
                <path d="M34.64714,2.031 C40.13114,5.41048 36.96772,14.50745 34.13523,14.85125 C31.24823,15.20166 31.74741,12.38155 31.1421,10.31686 C30.57318,8.37633 29.12067,3.55842 29.59518,1.85523 C30.07534,0.13182 33.12406,1.09242 34.64714,2.031 Z" id="Path"></path>
            </g>
            <path d="M21.38714,25.49852 C21.38714,27.63409 20.99259,28.36531 17.52034,28.36531 C13.94875,28.36531 12.65354,27.63409 12.65354,25.49852 C12.65354,23.36295 15.38477,23.63173 17.52034,23.63173 C19.65591,23.63173 21.38714,23.36294 21.38714,25.49852 Z" id="Path" stroke="#414345" stroke-width="1.7" stroke-linecap="round"></path>
            <path d="M26.6129,25.51235 C26.6129,27.64792 27.00745,28.37914 30.4797,28.37914 C34.0513,28.37914 35.3465,27.64792 35.3465,25.51235 C35.3465,23.37678 32.61527,23.64556 30.4797,23.64556 C28.34413,23.64556 26.6129,23.37677 26.6129,25.51235 Z" id="Path" stroke="#414345" stroke-width="1.7" stroke-linecap="round"></path>
            <path d="M20,33.23671 C20.9438534,34.4963853 22.4259476,35.2378575 24,35.2378575 C25.5740524,35.2378575 27.0561466,34.4963853 28,33.23671" id="Path" stroke="#414345" stroke-width="2" stroke-linecap="round"></path>
            <path d="M17.75001,22.73001 L17.75001,21.26998" id="Path" stroke="#414345" stroke-width="2" stroke-linecap="round"></path>
            <path d="M30.24999,22.73001 L30.24999,21.26998" id="Path" stroke="#414345" stroke-width="2" stroke-linecap="round"></path>
        </g>
    </g>
</svg>