<?xml version="1.0" encoding="UTF-8"?>
<svg width="72px" height="72px" viewBox="0 0 72 72" version="1.1" xmlns="http://www.w3.org/2000/svg" xmlns:xlink="http://www.w3.org/1999/xlink">
    <!-- Generator: Sketch 55.2 (78181) - https://sketchapp.com -->
    <title>Icons / Pin</title>
    <desc>Created with Sketch.</desc>
    <g id="Icons-/-Pin" stroke="none" stroke-width="1" fill="none" fill-rule="evenodd">
        <g id="Iconos_72px-47" transform="translate(17.000000, 9.000000)">
            <path d="M19,1.95849 C27.8556033,1.96849781 35.0319922,9.14488673 35.042,18.00049 C35.042,22.16486 32.105,28.06977 26.54853,35.07691 C24.1827542,38.0382983 21.6593325,40.8702327 18.98921,43.56043 C13.58954,38.1986 2.958,25.99194 2.958,18.00048 C2.96802432,9.14488519 10.1444052,1.9685088 19,1.95849 L19,1.95849 Z M19,0.19811 C14.2785091,0.19811 9.75039435,2.07369552 6.41179052,5.4122881 C3.0731867,8.75088067 1.19757,13.2789891 1.19757,18.00048 C1.19757,29.30425 19,46.02013 19,46.02013 C19,46.02013 36.80237,29.18438 36.80237,18.00048 C36.80237,8.16850483 28.8319752,0.19811 19,0.19811 Z" id="Shape" fill="#E73638" fill-rule="nonzero"></path>
            <path d="M31.17457,41.275195 C33.5790826,41.2722679 35.8021994,42.5533763 37.0053029,44.635258 C38.2084064,46.7171396 38.2084064,49.2829704 37.0053029,51.364852 C35.8021994,53.4467337 33.5790826,54.7278421 31.17457,54.724915 L6.82537,54.724915 C3.20288371,54.724915 0.231388973,51.8554137 0.104677803,48.2351442 C-0.0220333678,44.6148747 2.74157543,41.5447506 6.35519,41.29138" id="Path" stroke="#414345" stroke-width="1.92139" stroke-linecap="round" stroke-linejoin="round"></path>
            <path d="M19.00073,7.32507 L19.00073,9.08544 C23.4542665,9.08055532 27.0694379,12.6851793 27.0775794,17.1387111 C27.0856933,21.5922429 23.4837028,25.2100381 19.0301781,25.2214357 C14.5766535,25.2327796 10.9562362,21.6334244 10.9415781,17.1799092 C10.9270088,12.726394 14.5237266,9.10335669 18.97723,9.0855 L19.00073,7.32507 L19.00073,7.32507 Z M19.00061,7.32507 L18.97174,7.32507 C13.5557324,7.34230672 9.17642393,11.7417161 9.18403982,17.1577456 C9.19167559,22.5737752 13.5833555,26.9608349 18.99939,26.96276 L19.02826,26.96276 C24.4442676,26.9455233 28.8235761,22.5461139 28.8159602,17.1300844 C28.8083244,11.7140548 24.4166445,7.32699509 19.00061,7.32507 L19.00061,7.32507 Z" id="Shape" fill="#E73638" fill-rule="nonzero"></path>
        </g>
    </g>
</svg>