<?xml version="1.0" encoding="UTF-8"?>
<svg width="72px" height="72px" viewBox="0 0 72 72" version="1.1" xmlns="http://www.w3.org/2000/svg" xmlns:xlink="http://www.w3.org/1999/xlink">
    <!-- Generator: Sketch 55.2 (78181) - https://sketchapp.com -->
    <title>Icons / Pods</title>
    <desc>Created with Sketch.</desc>
    <g id="Icons-/-Pods" stroke="none" stroke-width="1" fill="none" fill-rule="evenodd">
        <g id="Iconos_72px-06" transform="translate(8.000000, 8.000000)" fill-rule="nonzero">
            <path d="M8.00119,7.86466198 C10.8148763,7.87101797 13.091282,10.1559781 13.0870601,12.9696683 C13.0828265,15.7833585 10.7995645,18.0614674 7.98587192,18.0593393 C5.17217935,18.0572081 2.8924,15.7756455 2.8924,12.9619521 C2.8980923,10.1446674 5.18389958,7.8640055 8.00119,7.86466198 L8.00119,7.86466198 Z M8.00119,5.97226154 C4.1420576,5.97728085 1.01721238,9.10891003 1.02055994,12.9680442 C1.02391289,16.8271784 4.15419077,19.9533773 8.01332606,19.9516962 C11.8724614,19.9500138 15,16.8210878 15,12.9619521 C14.9965166,9.09953501 11.8636084,5.97070918 8.00119,5.97226154 L8.00119,5.97226154 Z" id="Shape" fill="#3F4143"></path>
            <path d="M47.99881,7.86466212 C50.8128093,7.86970477 53.0904095,10.1540862 53.0870601,12.968088 C53.0837032,15.7820898 50.8006653,18.0610368 47.9866621,18.0593441 C45.1726588,18.0576494 42.8924,15.7759559 42.8924,12.9619521 C42.8987553,10.145873 45.182724,7.86598339 47.99881,7.86466212 L47.99881,7.86466212 Z M47.99881,5.97225913 C44.1399898,5.97859438 41.0163389,9.11080313 41.0205599,12.9696262 C41.0247895,16.8284493 44.1552922,19.95381 48.0141171,19.9516927 C51.8729419,19.9495733 55,16.8207775 55,12.9619521 C54.9986639,11.106588 54.2602445,9.32776642 52.9472257,8.01690434 C51.6342069,6.70604226 49.8541738,5.97054811 47.99881,5.97225913 Z" id="Shape" fill="#3F4143"></path>
            <path d="M28.0239,1.75900212 C30.9113822,1.76464939 33.2481004,4.1089969 33.2443401,6.99648212 C33.2405707,9.88396734 30.8977471,12.2222134 28.01026,12.2203321 C25.1227729,12.2184486 22.783,9.87714979 22.783,6.98966212 C22.7891095,4.09938487 25.1336163,1.75945884 28.0239,1.75900212 L28.0239,1.75900212 Z M28.0239,-2.66453526e-15 C24.1649331,0.00568315852 21.0406956,3.13759609 21.0444799,6.99656536 C21.0482712,10.8555346 24.178651,13.9813083 28.0376216,13.9794146 C31.8965923,13.9775191 35.0239,10.8486732 35.0239,6.98970212 C35.0226115,5.13452877 34.2843712,3.35585888 32.9715997,2.04501909 C31.6588283,0.734179293 29.8790732,-0.00144118397 28.0239,-2.66453526e-15 L28.0239,-2.66453526e-15 Z" id="Shape" fill="#E73638"></path>
            <path d="M14,50.45858 C5.62393,46.22378 2,40.45376 2,31.612 L2,27.04633 L14,27.04633 L14,50.45858 Z M2,25.049254 C0.896240617,25.0484534 0.000811561274,25.9425706 0,27.04633 L0,31.612 C0,43.616 6.40417,49.55279 16,53.57544 L16,27.04633 C15.9991884,25.9425706 15.1037594,25.0484534 14,25.049254 L2,25.049254 Z" id="Shape" fill="#3F4143"></path>
            <path d="M54,31.612 C54,40.4538 50.376,46.22382 42,50.45862 L42,27.04633 L54,27.04633 L54,31.612 Z M40,53.5754 C49.59583,49.55275 56,43.61592 56,31.61196 L56,27.04633 C55.9991884,25.9425706 55.1037594,25.0484534 54,25.0492535 L42,25.0492535 C40.8962406,25.0484534 40.0008116,25.9425706 40,27.04633 L40,53.5754 Z" id="Shape" fill="#3F4143"></path>
            <path d="M33.95859,54.00294 L21.95859,54.00294 L21.95859,20.88324 L33.95859,20.88324 L33.95859,54.00294 Z M19.95859,54.00294 C19.9594071,55.1066955 20.8548345,56.0008066 21.95859,56.0000005 L33.95859,56.0000005 C35.0623455,56.0008066 35.9577729,55.1066955 35.95859,54.00294 L35.95859,20.88324 C35.9577784,19.7794806 35.0623494,18.8853634 33.95859,18.8861635 L21.95859,18.8861635 C20.8548306,18.8853634 19.9594016,19.7794806 19.95859,20.88324 L19.95859,54.00294 Z" id="Shape" fill="#E73638"></path>
        </g>
    </g>
</svg>