<?xml version="1.0" encoding="UTF-8"?>
<svg width="72px" height="72px" viewBox="0 0 72 72" version="1.1" xmlns="http://www.w3.org/2000/svg" xmlns:xlink="http://www.w3.org/1999/xlink">
    <!-- Generator: Sketch 55.2 (78181) - https://sketchapp.com -->
    <title>Icons / Process</title>
    <desc>Created with Sketch.</desc>
    <g id="Icons-/-Process" stroke="none" stroke-width="1" fill="none" fill-rule="evenodd">
        <g id="Iconos_72px-67" transform="translate(5.000000, 8.000000)">
            <path d="M30.88406,20.1633 L30.88406,21.92361 C34.246534,21.9140036 36.9807128,24.6309586 36.9923922,27.9934262 C37.0039971,31.3558938 34.2886979,34.0917169 30.9262379,34.1054462 C27.5637779,34.1190726 24.8263114,31.4054302 24.81053,28.0429791 C24.7948845,24.680528 27.5068691,21.9414191 30.86931,21.92367 L30.88406,20.1633 L30.88406,20.1633 Z M30.88341,20.1633 L30.86377,20.1633 C26.5425713,20.1751666 23.047287,23.6842736 23.0524698,28.0054855 C23.0576642,32.3266973 26.5613653,35.8274005 30.88258,35.82889 L30.90222,35.82889 C35.2234187,35.8170234 38.718703,32.3079164 38.7135202,27.9867045 C38.7083258,23.6654927 35.2046247,20.1647895 30.88341,20.1633 L30.88341,20.1633 Z" id="Shape" fill="#E73638" fill-rule="nonzero"></path>
            <path d="M33.65443,12.77798 L33.66203,15.874 C33.663844,16.6120702 34.1258969,17.2706378 34.81931,17.52348 C36.0181979,17.9611769 37.130387,18.607119 38.10466,19.43156 C38.664694,19.9040719 39.4588565,19.9802599 40.09851,19.62284 L42.78627,18.121 L45.52727,23.02237 L42.8046,24.5488 C42.166293,24.9066508 41.8159354,25.6220691 41.9246,26.34573 C41.9976305,26.8396574 42.0339999,27.3383131 42.03341,27.83761 C42.0374732,28.300427 42.0077072,28.7629221 41.94435,29.2214 C41.8399999,29.9468753 42.1960713,30.6610974 42.83824,31.0144 L45.64241,32.55713 L42.93399,37.47913 L40.21481,35.98225 C39.5682493,35.6262732 38.7682688,35.7114684 38.21118,36.19563 C37.2502143,37.0325726 36.1490206,37.6932678 34.95831,38.14729 C34.2737323,38.4083564 33.8224252,39.0661373 33.8252,39.7988 L33.83693,42.88187 L28.21939,42.90372 L28.20757,39.7883 C28.2048082,39.0573772 27.7506438,38.4042067 27.06642,38.14712 C26.288014,37.8522465 25.5470173,37.4667852 24.85872,36.99869 C24.2593501,36.5931003 23.47282,36.5956671 22.87611,37.00516 L20.24251,38.81241 L17.06551,34.17807 L19.62017,32.42837 C20.2294441,32.0110938 20.5134965,31.2578871 20.33149,30.5422 C20.1123306,29.6757185 20.0008627,28.785517 19.99961,27.89175 C19.99874,27.5386 20.01633,27.16745 20.05498,26.7236 C20.1176865,26.0033254 19.73363,25.3179439 19.08657,24.99539 L16.33576,23.62424 L18.84311,18.59476 L21.6325,19.98916 C22.2836308,20.3146949 23.0679754,20.2058187 23.60582,19.71524 C24.5772215,18.8244016 25.7036714,18.1191468 26.92934,17.63443 C27.6038046,17.3688652 28.046533,16.7170214 28.04476,15.99216 L28.03692,12.79178 L33.65448,12.77798 L33.65443,12.77798 Z M34.10831,11.01649 L34.105,11.01649 L27.57765,11.03249 C27.2314185,11.0333324 26.8997031,11.1716834 26.6554806,11.4171061 C26.4112581,11.6625289 26.274535,11.9949186 26.27539,12.34115 L26.28439,15.99642 C24.8595532,16.5602353 23.549768,17.3797309 22.4196,18.41451 L19.22293,16.81651 C18.9130672,16.6613047 18.5541804,16.635781 18.2254713,16.7455714 C17.8967622,16.8553619 17.6252522,17.0914413 17.47086,17.40171 L14.5573,23.246 C14.4028137,23.5558678 14.3777587,23.9144162 14.4876474,24.2427583 C14.5975361,24.5711004 14.8333658,24.8423365 15.14325,24.99679 L18.30125,26.57089 C18.26316,27.00833 18.23814,27.44571 18.23925,27.89609 C18.2405784,28.9347298 18.3702851,29.969223 18.62542,30.97604 L15.6953,32.98288 C15.4095602,33.1785841 15.213295,33.4798093 15.1497029,33.8202551 C15.0861108,34.1607009 15.1604038,34.5124638 15.35623,34.79812 L19.0479,40.18312 C19.2436729,40.4688488 19.544993,40.665041 19.8854966,40.7284864 C20.2260002,40.7919318 20.5777588,40.7174265 20.8633,40.52138 L23.87215,38.45662 C24.6749615,39.0023361 25.5392766,39.4515597 26.44722,39.795 L26.46077,43.36531 C26.4634963,44.0843276 27.0471072,44.66585 27.76613,44.66585 L27.7713,44.66585 L34.29861,44.64046 C35.0195682,44.6376598 35.6017612,44.0509583 35.599,43.33 L35.58554,39.79209 C36.9689176,39.2637578 38.2485432,38.4961348 39.36589,37.52433 L42.48364,39.24064 C42.7869506,39.4077948 43.1442698,39.4475158 43.4768851,39.351053 C43.8095005,39.2545903 44.0901247,39.0298574 44.25694,38.72636 L47.404,33.00723 C47.5709263,32.7038705 47.6105025,32.3466233 47.5140218,32.0140833 C47.4175411,31.6815433 47.1929073,31.4009521 46.88954,31.23404 L43.6868,29.472 C43.762069,28.9290852 43.7978297,28.3814228 43.7938,27.83333 C43.7939561,27.2479724 43.7510637,26.6633958 43.66547,26.08433 L46.78447,24.33567 C47.4128881,23.9833359 47.6371032,23.1885406 47.28547,22.55973 L44.10074,16.8649 C43.9319106,16.5626482 43.6498822,16.3398824 43.3167467,16.2456472 C42.9836113,16.151412 42.6266816,16.1934334 42.32454,16.36246 L39.23984,18.08609 C38.1069287,17.1294829 36.8148151,16.3792774 35.42238,15.86966 L35.41367,12.31875 C35.4119113,11.5990348 34.8279773,11.01649 34.10826,11.01649 L34.10831,11.01649 Z" id="Shape" fill="#E73638" fill-rule="nonzero"></path>
            <path d="M57.06584,24.50867 L3.21344,26.51085 C3.26021333,25.65361 3.34684667,24.7907533 3.47334,23.92228 C5.39653327,10.9083285 16.1200567,0.988179129 29.2441098,0.0821786563 C42.3681629,-0.823821816 54.353113,7.52868015 58.04634,20.15491 C58.1403101,20.4611369 58.0725811,20.7941233 57.866454,21.0393108 C57.6603269,21.2844983 57.3439283,21.4084303 57.02611,21.36847 L57.02611,21.36847 C56.6587952,21.318429 56.3559508,21.0556741 56.2546,20.69909 C52.9131236,9.23532131 42.2259127,1.49481608 30.2917825,1.89480822 C18.3576523,2.29480036 8.21271532,10.7335295 5.64633,22.39531 C5.3465661,23.7776264 5.15660708,25.1814874 5.07823,26.59376 C5.05719413,27.0779702 4.66781572,27.4648463 4.18348,27.48276 L4.18348,27.48276 C3.92288222,27.4929801 3.66987549,27.3938041 3.48564105,27.2092145 C3.30140661,27.0246249 3.20271808,26.7714276 3.21344,26.51085 L57.06584,24.50867 Z" id="Path" fill="#414345" fill-rule="nonzero"></path>
            <polyline id="Path" stroke="#414345" stroke-width="1.8664" stroke-linecap="round" stroke-linejoin="round" points="8.738 24.134 4.087 27.925 0.296 23.274"></polyline>
            <path d="M58.78656,29.48915 C58.7397867,30.34639 58.6531533,31.2092467 58.52666,32.07772 C56.6034667,45.0916715 45.8799433,55.0118209 32.7558902,55.9178213 C19.6318371,56.8238218 7.64688699,48.4713198 3.95366,35.84509 C3.85968986,35.5388631 3.92741888,35.2058767 4.13354601,34.9606892 C4.33967313,34.7155017 4.65607171,34.5915697 4.97389,34.63153 L4.97389,34.63153 C5.34120477,34.681571 5.64404917,34.9443259 5.7454,35.30091 C9.08687641,46.7646787 19.7740873,54.5051839 31.7082175,54.1051918 C43.6423477,53.7051996 53.7872847,45.2664705 56.35367,33.60469 C56.6534339,32.2223736 56.8433929,30.8185126 56.92177,29.40624 C56.9428059,28.9220298 57.3321843,28.5351537 57.81652,28.51724 L57.81652,28.51724 C58.0771178,28.5070199 58.3301245,28.6061959 58.5143589,28.7907855 C58.6985934,28.9753751 58.7972819,29.2285724 58.78656,29.48915 Z" id="Path" fill="#414345" fill-rule="nonzero"></path>
            <polyline id="Path" stroke="#414345" stroke-width="1.8664" stroke-linecap="round" stroke-linejoin="round" points="53.262 31.866 57.913 28.075 61.704 32.726"></polyline>
        </g>
    </g>
</svg>