<?xml version="1.0" encoding="UTF-8"?>
<svg width="72px" height="72px" viewBox="0 0 72 72" version="1.1" xmlns="http://www.w3.org/2000/svg" xmlns:xlink="http://www.w3.org/1999/xlink">
    <!-- Generator: Sketch 55.2 (78181) - https://sketchapp.com -->
    <title>Icons / Puzzle</title>
    <desc>Created with Sketch.</desc>
    <g id="Icons-/-Puzzle" stroke="none" stroke-width="1" fill="none" fill-rule="evenodd" stroke-linecap="round" stroke-linejoin="round">
        <g id="--35" transform="translate(5.000000, 5.000000)" stroke-width="2">
            <path d="M46.3014,15.83905 L61.61,31.14761 L46.23427,46.5233 L42.17527,42.4643 C41.9240064,43.2108874 41.5021996,43.8886406 40.94332,44.44378 C39.6267052,45.760393 37.7076983,46.274588 35.9091706,45.7926726 C34.1106428,45.3107573 32.7058335,43.905946 32.2239206,42.1074176 C31.7420076,40.3088892 32.2562052,38.389883 33.57282,37.07327 C34.1279629,36.5143894 34.8057294,36.0925944 35.55233,35.84136 L30.92573,31.21477" id="Path" stroke="#3F4143"></path>
            <path d="M46.23427,46.5233 L30.92571,61.83186 L15.55,46.45617 L19.609,42.39717 C18.8624136,42.1459093 18.1846604,41.724106 17.62952,41.16523 C16.312907,39.8486152 15.798712,37.9296083 16.2806274,36.1310806 C16.7625427,34.3325528 18.167354,32.9277435 19.9658824,32.4458306 C21.7644108,31.9639176 23.683417,32.4781152 25.00003,33.79473 C25.5589336,34.3498539 25.98075,35.0276116 26.232,35.77421 L30.8586,31.14761" id="Path" stroke="#3F4143"></path>
            <polyline id="Path" stroke="#3F4143" points="15.509 46.415 0.2 31.107 15.576 15.731"></polyline>
            <path d="M46.26041,15.79806 L42.20141,19.85706 C42.947987,20.1083282 43.6257321,20.5301307 44.18087,21.089 C46.2128484,23.1248808 46.2112669,26.4220458 44.1773363,28.4559763 C42.1434058,30.4899069 38.8462408,30.4914884 36.81036,28.45951 C36.2514762,27.9043696 35.8296808,27.2266023 35.57845,26.48 L30.95185,31.1066 L26.25812,26.41286 C27.0047155,26.1616394 27.6824814,25.7398619 28.23763,25.181 C29.554243,23.864387 30.0684389,21.9453817 29.5865251,20.1468549 C29.1046113,18.3483281 27.6998019,16.9435187 25.9012751,16.4616049 C24.1027483,15.9796911 22.183743,16.493887 20.86713,17.8105 C20.3082407,18.3656408 19.8864178,19.0433924 19.63513,19.78998 L15.57613,15.73098 L30.88472,0.42237 L46.26041,15.79806 Z" id="Path" stroke="#E73638"></path>
        </g>
    </g>
</svg>