<?xml version="1.0" encoding="UTF-8"?>
<svg width="72px" height="72px" viewBox="0 0 72 72" version="1.1" xmlns="http://www.w3.org/2000/svg" xmlns:xlink="http://www.w3.org/1999/xlink">
    <!-- Generator: Sketch 55.2 (78181) - https://sketchapp.com -->
    <title>Icons / React</title>
    <desc>Created with Sketch.</desc>
    <g id="Icons-/-React" stroke="none" stroke-width="1" fill="none" fill-rule="evenodd">
        <g id="Iconos_72px-27" transform="translate(8.000000, 8.000000)">
            <path d="M11.90501,36.51843 L18.79385,29.62753" id="Path" stroke="#3F4143" stroke-width="1.98955" stroke-linecap="round" stroke-linejoin="round"></path>
            <path d="M36.00775,12.40862 L29.00236,19.41612" id="Path" stroke="#3F4143" stroke-width="1.98955" stroke-linecap="round" stroke-linejoin="round"></path>
            <path d="M11.90519,12.40844 L19.48917,19.99451" id="Path" stroke="#3F4143" stroke-width="1.98955" stroke-linecap="round" stroke-linejoin="round"></path>
            <path d="M6.90854,2.25113398 L6.90854,2.25113398 C9.02056432,2.25185538 10.9267208,3.51757652 11.746824,5.46387502 C12.5669273,7.41017351 12.1414184,9.65837827 10.66678,11.17036 C9.70047211,12.1401928 8.38626052,12.6830261 7.01721,12.6778472 C4.90517524,12.6772981 2.99893052,11.4116555 2.17878868,9.46536204 C1.35864683,7.51906853 1.78419381,5.27084038 3.25891,3.75892 C4.22520809,2.78898143 5.53945112,2.24604047 6.90857,2.25113398 L6.90854,2.25113398 Z M6.90839,0.499983466 C5.07501524,0.495985057 3.31574494,1.22331621 2.02045,2.52081 C0.044954456,4.53361874 -0.530337248,7.53505187 0.560892552,10.135667 C1.65212235,12.7362822 4.19689961,14.4285204 7.01718,14.4290169 C8.8505214,14.433055 10.6097897,13.7058416 11.90518,12.40849 C13.8806124,10.3956038 14.4558576,7.39416543 13.3646358,4.79353495 C12.2734139,2.19290447 9.72868141,0.500605512 6.90839,0.499983466 Z" id="Shape" fill="#E73638" fill-rule="nonzero"></path>
            <path d="M7.01767,36.2486953 L7.01755,36.2486953 C8.3864681,36.2436958 9.70047793,36.7866602 10.66655,37.75654 C12.1412774,39.2684445 12.5668414,41.5166663 11.7467139,43.462962 C10.9265864,45.4092578 9.02035124,46.674909 6.90832,46.6754669 C5.53923622,46.6806208 4.22499894,46.1377686 3.25866,45.16792 C1.78395537,43.6558292 1.35851486,41.407457 2.17880723,39.4611033 C2.9990996,37.5147496 4.90551131,36.2491385 7.01766,36.2486953 L7.01767,36.2486953 Z M7.017,34.4975522 C4.19675296,34.4982385 1.65208757,36.1905371 0.560887498,38.7911286 C-0.530312571,41.3917201 0.0448965343,44.3931083 2.02026,46.406 C3.31563119,47.7034303 5.07494653,48.4306743 6.90833,48.4265873 C9.72858275,48.4260617 12.2733219,46.7338256 13.3645345,44.1332333 C14.4557472,41.5326409 13.8804657,38.5312393 11.905,36.51844 C10.6097831,35.2207854 8.85043306,34.4934087 7.017,34.4975522 L7.017,34.4975522 Z" id="Shape" fill="#E73638" fill-rule="nonzero"></path>
            <path d="M41.0047,2.25162299 L41.00464,2.25162299 C42.3736471,2.24646039 43.687811,2.78928977 44.65408,3.7591 C46.1287173,5.27110799 46.5542039,7.51933843 45.7340659,9.46564184 C44.9139278,11.4119453 43.0077324,12.6776458 40.89569,12.6783257 C39.526623,12.6833946 38.2124389,12.1404542 37.24619,11.17054 C35.7714241,9.65860154 35.3458765,7.41031166 36.1660766,5.46399096 C36.9862766,3.51767026 38.8926176,2.25206277 41.0047,2.25162299 L41.0047,2.25162299 Z M41.00449,0.500472361 C38.1842202,0.500976173 35.6394499,2.19320342 34.5482184,4.79380642 C33.4569869,7.39440942 34.0322683,10.3958325 36.00775,12.40864 C37.3029884,13.7062183 39.0622956,14.4335647 40.89569,14.4294674 C43.7159621,14.4288256 46.2606714,12.7365372 47.3518963,10.135929 C48.4431212,7.53532075 47.867909,4.53390167 45.89252,2.521 C44.5971818,1.22357047 42.8378796,0.496343021 41.00452,0.500472361 L41.00449,0.500472361 Z" id="Shape" fill="#E73638" fill-rule="nonzero"></path>
            <path d="M24.43157,18.99809 C27.4923105,18.9886056 30.0672875,21.2893324 30.4011,24.33183 C30.4524955,24.7186788 30.7286632,25.0380909 31.10403,25.14483 L31.10403,25.14483 C31.4127379,25.2386901 31.7478639,25.1746444 32.0002056,24.9735625 C32.2525473,24.7724806 32.3897928,24.4601107 32.36722,24.13824 C32.35248,23.90985 32.33389,23.70675 32.31154,23.57824 C31.6295359,19.7638081 28.3064463,16.9902091 24.43154,17.00124 L24.43154,17.00124 C20.7619205,16.9692991 17.5499914,19.4599778 16.6672942,23.0219959 C15.7845971,26.5840141 17.4618651,30.2862757 20.72178,31.97153 C21.013261,32.1128671 21.3553186,32.1033597 21.6384989,31.9460502 C21.9216792,31.7887406 22.1104809,31.5033502 22.14449,31.1812 L22.14449,31.1812 C22.197315,30.7832163 22.000328,30.3936388 21.64849,30.20027 C19.2023734,28.9422391 17.9426041,26.1671225 18.6058057,23.4976109 C19.2690073,20.8280994 21.6810281,18.965186 24.43149,18.99817" id="Path" fill="#3F4143" fill-rule="nonzero"></path>
            <path d="M25.189,25.38972 C25.4229157,25.416872 25.6438315,25.5116669 25.82468,25.66249 C25.8600533,25.7059433 25.8972133,25.7478733 25.93616,25.78828 L34.02502,34.17512 C34.602206,34.773676 35.489957,34.9517887 36.25336,34.6222 L42.85361,31.77357 L42.90643,31.74983 C43.1552781,31.6326917 43.4269104,31.5719132 43.70195,31.57183 C44.2975664,31.5718994 44.8565469,31.8593772 45.20305,32.34383 L51.453,41.18843 L42.137,48.69783 L29.34047,48.27223 C28.8458183,48.2701159 28.3776394,48.048482 28.06247,47.66723 C27.8491602,47.344929 27.7227415,46.9729824 27.69547,46.58745 L34.34,44.40834 C34.9610575,44.2046511 35.4431006,43.7098893 35.6305499,43.0837389 C35.8179993,42.4575885 35.6871187,41.779337 35.28015,41.26789 L26.6698,30.44734 L23.99954,27.09925 C23.8875545,26.9612226 23.8357289,26.7839856 23.85571,26.60737 C23.8777456,26.429836 23.9728745,26.269554 24.11816,26.16517 C24.4583312,25.884265 24.8160085,25.6252598 25.18903,25.38972 L25.189,25.38972 Z M25.02866,23.3807199 C24.9830867,23.3807199 24.9380867,23.38186 24.89366,23.38414 C24.1392102,23.6561571 23.4464263,24.0755736 22.85566,24.61796 C22.3035787,25.0547861 21.9488914,25.6940698 21.8704539,26.3936828 C21.7920164,27.0932958 21.9963297,27.7952523 22.43797,28.34349 L25.10878,31.69224 L33.71769,42.51109 L25.758,45.12159 C25.758,45.12159 24.82751,49.78627 29.19055,50.26496 L42.81227,50.71803 L54.16518,41.56672 L46.83371,31.19154 C45.7547883,29.6760212 43.7462119,29.1493165 42.06244,29.94038 L35.46219,32.789 L27.37332,24.40216 C26.7694495,23.7481432 25.9188216,23.3775784 25.02866,23.3807199 L25.02866,23.3807199 Z" id="Shape" fill="#3F4143" fill-rule="nonzero"></path>
            <path d="M52.60927,42.81806 L55.19397,46.04951 L46.89265,52.69319 L44.308,49.46174 L52.60932,42.81806 L52.60927,42.81806 Z M52.92104,40.01124 L41.50192,49.1501 L46.58093,55.5 L58,46.36116 L52.921,40.01124 L52.92104,40.01124 Z" id="Shape" fill="#3F4143" fill-rule="nonzero"></path>
        </g>
    </g>
</svg>