<?xml version="1.0" encoding="UTF-8"?>
<svg width="72px" height="72px" viewBox="0 0 72 72" version="1.1" xmlns="http://www.w3.org/2000/svg" xmlns:xlink="http://www.w3.org/1999/xlink">
    <!-- Generator: Sketch 55.2 (78181) - https://sketchapp.com -->
    <title>Icons / Reatail</title>
    <desc>Created with Sketch.</desc>
    <g id="Icons-/-Reatail" stroke="none" stroke-width="1" fill="none" fill-rule="evenodd">
        <g id="Iconos_72px-14" transform="translate(12.000000, 5.000000)">
            <path d="M24,26.79988 L32.58162,35.39207 L24,43.98324 L15.4184,35.39208 L24,26.79988 L24,26.79988 Z M13.3919,36.80813 L22.58582,46.01236 C22.9606593,46.3878085 23.4694162,46.5987845 23.99995,46.5987845 C24.5304838,46.5987845 25.0392407,46.3878085 25.41408,46.01236 L34.60808,36.80813 C35.3892033,36.0257302 35.3892391,34.7585739 34.60816,33.97613 L25.41416,24.77081 C25.0393139,24.3953094 24.5305204,24.1843003 23.999945,24.1843003 C23.4693696,24.1843003 22.9605761,24.3953094 22.58573,24.77081 L13.3918,33.97612 C12.6107143,34.7585683 12.610759,36.0257369 13.3919,36.80813 Z" id="Shape" fill="#E73638" fill-rule="nonzero"></path>
            <path d="M46,9.5094 L46,57.49753 L2,57.49753 L2,40.82643 L1.90915,9.5094 L46,9.5094 L46,9.5094 Z M-3.86498012e-07,8.91274 L-3.86498012e-07,57.49753 C-0.000679520062,58.6027805 0.894749487,59.4993154 1.99999961,59.5 L45.9999996,59.5 C47.1052505,59.4993154 48.0006795,58.6027805 47.9999996,57.49753 L47.9999996,40.60933 L47.91134,8.9198 C47.6534492,8.08033658 46.8781836,7.50693 45.9999996,7.50693 L1.90915,7.50693 C1.03370558,7.50693 0.260186309,8.07682358 -3.86498012e-07,8.91271 L-3.86498012e-07,8.91274 Z" id="Shape" fill="#3F4143" fill-rule="nonzero"></path>
            <polyline id="Path" stroke="#3F4143" stroke-width="2.00123" stroke-linecap="round" stroke-linejoin="round" points="14.992 14.516 14.992 0.5 33.055 0.5 33.055 14.516"></polyline>
        </g>
    </g>
</svg>