<?xml version="1.0" encoding="UTF-8"?>
<svg width="72px" height="72px" viewBox="0 0 72 72" version="1.1" xmlns="http://www.w3.org/2000/svg" xmlns:xlink="http://www.w3.org/1999/xlink">
    <!-- Generator: Sketch 55.2 (78181) - https://sketchapp.com -->
    <title>Icons / Rocket</title>
    <desc>Created with Sketch.</desc>
    <g id="Icons-/-Rocket" stroke="none" stroke-width="1" fill="none" fill-rule="evenodd">
        <g id="Iconos_72px-30" transform="translate(9.000000, 9.000000)">
            <path d="M42.10878,27.6456 C42.10878,27.6456 42.2169,50.26832 41.89127,51.01643 C41.6210898,51.5844859 41.0660285,51.9631102 40.4385529,52.0073729 C39.8110773,52.0516355 39.2083601,51.7546818 38.86111,51.23018 L29.56249,38.92318" id="Path" stroke="#E73638" stroke-width="2.00862" stroke-linejoin="round"></path>
            <path d="M14.85589,24.7951 L1.95942,15.721 C1.43032206,15.3843577 1.12862339,14.7845296 1.17379473,14.159044 C1.21896606,13.5335584 1.60372137,12.9833048 2.1757,12.72618 C2.93384,12.40557 25.93533,12.51243 25.93533,12.51243" id="Path" stroke="#E73638" stroke-width="2.00862" stroke-linejoin="round"></path>
            <path d="M13.20157,33.97245 L20.00677,40.6427 L5.06421,48.9047 L13.20157,33.97245 L13.20157,33.97245 Z M12.70957,30.67759 L0,54 L23.33847,41.09577 L12.70959,30.67759 L12.70957,30.67759 Z" id="Shape" fill="#E73638" fill-rule="nonzero"></path>
            <path d="M50.0414,2.00861 C50.6382118,2.01261254 51.2017545,2.28412001 51.57683,2.74836 C51.934623,3.1863085 52.0726366,3.76376586 51.95154,4.31617 L48.89413,17.06281 L48.88284,17.11267 C48.4087012,19.2214918 47.3341965,21.1479566 45.78908,22.65943 L29.68533,38.77533 L22.21439,40.00116 L13.8605,31.84674 L14.80432,24.69568 L31.09671,8.38745 C32.6635659,6.85484229 34.6110777,5.76819484 36.73819,5.23969 L49.57187,2.06391 C49.7257396,2.02752157 49.8832866,2.00861 50.0414,2.00861 L50.0414,2.00861 Z M50.0414,-2.76820543e-05 C49.7289307,-2.76820543e-05 49.4175362,0.0365979639 49.1134,0.10828 L36.25574,3.28986 C33.7745291,3.90801204 31.5033309,5.17736291 29.67674,6.9668 L12.90205,23.7578 L11.7375,32.58141 L21.53779,42.1477 L30.64888,40.65276 L47.20988,24.07928 C49.029141,22.2936235 50.2924817,20.0194206 50.84731,17.53136 L53.90471,4.78472 C54.1610504,3.61662307 53.8730095,2.39532147 53.1217315,1.4648688 C52.3704534,0.534416137 51.2372549,-0.00447747753 50.04137,-2.76820543e-05 L50.0414,-2.76820543e-05 Z" id="Shape" fill="#3F4143" fill-rule="nonzero"></path>
            <path d="M33.46194,15.87238 C36.2019006,15.9173876 38.3909169,18.1671629 38.3609114,20.9073289 C38.3309059,23.6474948 36.0931493,25.8487959 33.3528602,25.8338697 C30.612571,25.818791 28.39905,23.5931202 28.39905,20.85279 C28.4251433,18.0808165 30.6899118,15.8529435 33.46194,15.87238 L33.46194,15.87238 Z M33.46194,13.8636483 C29.612684,13.9089542 26.5245675,17.0580854 26.554694,20.9074887 C26.5848206,24.756892 29.7218478,27.8573034 33.5713396,27.8422897 C37.4208313,27.8271665 40.53348,24.7022912 40.53348,20.85277 C40.5225533,18.9882206 39.7713751,17.204381 38.4452,15.8936852 C37.1190249,14.5829893 35.3264892,13.8528056 33.46194,13.8636483 L33.46194,13.8636483 Z" id="Shape" fill="#3F4143" fill-rule="nonzero"></path>
        </g>
    </g>
</svg>