<?xml version="1.0" encoding="UTF-8"?>
<svg width="72px" height="72px" viewBox="0 0 72 72" version="1.1" xmlns="http://www.w3.org/2000/svg" xmlns:xlink="http://www.w3.org/1999/xlink">
    <!-- Generator: Sketch 55.2 (78181) - https://sketchapp.com -->
    <title>Icons / Rutine</title>
    <desc>Created with Sketch.</desc>
    <g id="Icons-/-Rutine" stroke="none" stroke-width="1" fill="none" fill-rule="evenodd">
        <g id="Iconos_72px-20" transform="translate(5.000000, 8.000000)">
            <path d="M31.0239,7.76037 C33.9176473,7.76037 36.26344,10.1062727 36.26344,13.00002 C36.26344,15.8937673 33.9175473,18.23957 31.0238,18.23957 C28.1300527,18.23957 25.78424,15.8936873 25.78424,12.99994 C25.7875356,10.1075364 28.1314964,7.76361588 31.0239,7.76037 L31.0239,7.76037 Z M31.0239,6 C28.1926588,6 25.640201,7.70550174 24.5567375,10.3212298 C23.473274,12.9369579 24.0721753,15.9477874 26.0741737,17.9497687 C28.0761722,19.9517499 31.0870068,20.5506254 33.7027256,19.4671395 C36.3184444,18.3836536 38.0239,15.8311812 38.0239,12.99994 C38.0239,11.1434089 37.2864913,9.36289766 35.97372,8.05013759 C34.6609487,6.73737752 32.8804311,6 31.0239,6 L31.0239,6 Z" id="Shape" fill="#E73638" fill-rule="nonzero"></path>
            <path d="M36.95609,26.91067 L36.95609,47.09346 C33.0475084,48.3110397 28.8598481,48.302797 24.95609,47.06984 L24.95609,26.91067 L36.95609,26.91067 L36.95609,26.91067 Z M22.95609,26.91067 L22.95609,48.48067 C28.0969237,50.4969042 33.8077316,50.507612 38.95609,48.51067 L38.95609,26.91067 C38.95609,25.8061005 38.0606595,24.91067 36.95609,24.91067 L24.95609,24.91067 C23.8515205,24.91067 22.95609,25.8061005 22.95609,26.91067 Z" id="Shape" fill="#E73638" fill-rule="nonzero"></path>
            <path d="M57.06584,24.50867 L3.21344,26.51085 C3.26021333,25.65361 3.34684667,24.7907533 3.47334,23.92228 C5.39653327,10.9083285 16.1200567,0.988179129 29.2441098,0.0821786563 C42.3681629,-0.823821816 54.353113,7.52868015 58.04634,20.15491 C58.1403101,20.4611369 58.0725811,20.7941233 57.866454,21.0393108 C57.6603269,21.2844983 57.3439283,21.4084303 57.02611,21.36847 L57.02611,21.36847 C56.6587952,21.318429 56.3559508,21.0556741 56.2546,20.69909 C52.9131236,9.23532131 42.2259127,1.49481608 30.2917825,1.89480822 C18.3576523,2.29480036 8.21271532,10.7335295 5.64633,22.39531 C5.3465661,23.7776264 5.15660708,25.1814874 5.07823,26.59376 C5.05719413,27.0779702 4.66781572,27.4648463 4.18348,27.48276 L4.18348,27.48276 C3.92288222,27.4929801 3.66987549,27.3938041 3.48564105,27.2092145 C3.30140661,27.0246249 3.20271808,26.7714276 3.21344,26.51085 L57.06584,24.50867 Z" id="Path" fill="#3F4143" fill-rule="nonzero"></path>
            <polyline id="Path" stroke="#3F4143" stroke-width="1.8664" stroke-linecap="round" stroke-linejoin="round" points="8.738 24.134 4.087 27.925 0.296 23.274"></polyline>
            <path d="M58.78656,29.48915 C58.7397867,30.34639 58.6531533,31.2092467 58.52666,32.07772 C56.6034667,45.0916715 45.8799433,55.0118209 32.7558902,55.9178213 C19.6318371,56.8238218 7.64688699,48.4713198 3.95366,35.84509 C3.85968986,35.5388631 3.92741888,35.2058767 4.13354601,34.9606892 C4.33967313,34.7155017 4.65607171,34.5915697 4.97389,34.63153 L4.97389,34.63153 C5.34120477,34.681571 5.64404917,34.9443259 5.7454,35.30091 C9.08687641,46.7646787 19.7740873,54.5051839 31.7082175,54.1051918 C43.6423477,53.7051996 53.7872847,45.2664705 56.35367,33.60469 C56.6534339,32.2223736 56.8433929,30.8185126 56.92177,29.40624 C56.9428059,28.9220298 57.3321843,28.5351537 57.81652,28.51724 L57.81652,28.51724 C58.0771178,28.5070199 58.3301245,28.6061959 58.5143589,28.7907855 C58.6985934,28.9753751 58.7972819,29.2285724 58.78656,29.48915 Z" id="Path" fill="#3F4143" fill-rule="nonzero"></path>
            <polyline id="Path" stroke="#3F4143" stroke-width="1.8664" stroke-linecap="round" stroke-linejoin="round" points="53.262 31.866 57.913 28.075 61.704 32.726"></polyline>
        </g>
    </g>
</svg>