<?xml version="1.0" encoding="UTF-8"?>
<svg width="72px" height="72px" viewBox="0 0 72 72" version="1.1" xmlns="http://www.w3.org/2000/svg" xmlns:xlink="http://www.w3.org/1999/xlink">
    <!-- Generator: Sketch 55.2 (78181) - https://sketchapp.com -->
    <title>Icons / Secuence</title>
    <desc>Created with Sketch.</desc>
    <g id="Icons-/-Secuence" stroke="none" stroke-width="1" fill="none" fill-rule="evenodd">
        <g id="Iconos_72px-33" transform="translate(9.000000, 8.000000)">
            <path d="M28.84982,2 C31.6112437,2 33.84982,4.23857625 33.84982,7 C33.84982,9.76142375 31.6112437,12 28.84982,12 C26.0883963,12 23.84982,9.76142375 23.84982,7 C23.8529557,4.23987613 26.0896961,2.00313567 28.84982,2 L28.84982,2 Z M28.84982,8.8817842e-16 C24.9838268,8.8817842e-16 21.84982,3.13400675 21.84982,7 C21.84982,10.8659932 24.9838268,14 28.84982,14 C32.7158132,14 35.84982,10.8659932 35.84982,7 C35.84982,5.14346018 35.1124272,3.36293656 33.7996553,2.05016466 C32.4868834,0.737392759 30.7063598,8.8817842e-16 28.84982,8.8817842e-16 L28.84982,8.8817842e-16 Z" id="Shape" fill="#3F4143" fill-rule="nonzero"></path>
            <path d="M10.8345,33.8017514 L10.8345,33.8017514 C13.337652,33.7971501 15.4588746,35.6434493 15.7995554,38.1233137 C16.1402363,40.6031782 14.595486,42.9531043 12.1838244,43.6236857 C9.77216283,44.294267 7.23609504,43.0790442 6.24775872,40.7792654 C5.25942241,38.4794867 6.12310768,35.8032105 8.26935,34.51502 C9.04354523,34.0482294 9.93046917,33.8016132 10.8345,33.8017514 L10.8345,33.8017514 Z M10.8345,31.8017139 C7.65566184,31.8044811 4.87768071,33.9486113 4.06968635,37.0230485 C3.26169199,40.0974858 4.6265314,43.3303927 7.39328137,44.8956767 C10.1600313,46.4609607 13.6340993,45.9656573 15.853174,43.6895363 C18.0722487,41.4134153 18.4792315,37.9278969 16.84424,35.20176 C15.5830344,33.0855818 13.2979873,31.7928204 10.8345,31.8017139 L10.8345,31.8017139 Z" id="Shape" fill="#3F4143" fill-rule="nonzero"></path>
            <path d="M4.28783,27.89269 C4.35961602,19.8281094 8.36141966,12.3057296 15.00909,7.73943" id="Path" stroke="#E73638" stroke-width="2" stroke-linecap="round" stroke-linejoin="round"></path>
            <polyline id="Path" stroke="#E73638" stroke-width="2.00182" stroke-linecap="round" stroke-linejoin="round" points="8.898 24.207 4.24 28 0.441 23.351"></polyline>
            <path d="M40.3463,49.95369 C33.1648859,53.6238692 24.6445066,53.5595717 17.5193,49.78143" id="Path" stroke="#E73638" stroke-width="2" stroke-linecap="round" stroke-linejoin="round"></path>
            <polyline id="Path" stroke="#E73638" stroke-width="2.00182" stroke-linecap="round" stroke-linejoin="round" points="34.945 47.574 40.464 49.946 38.102 55.466"></polyline>
            <path d="M47,33 C49.7614237,33 52,35.2385763 52,38 C52,40.7614237 49.7614237,43 47,43 C44.2385763,43 42,40.7614237 42,38 C42.0031357,35.2398761 44.2398761,33.0031357 47,33 L47,33 Z M47,31 C43.1340068,31 40,34.1340068 40,38 C40,41.8659932 43.1340068,45 47,45 C50.8659932,45 54,41.8659932 54,38 C54,36.1434602 53.2626072,34.3629366 51.9498353,33.0501647 C50.6370634,31.7373928 48.8565398,31 47,31 L47,31 Z" id="Shape-Copy" fill="#3F4143" fill-rule="nonzero"></path>
            <path d="M42.94953,7.60114 C49.5858781,12.1838787 53.5690551,19.7161367 53.62089,27.78087" id="Path" stroke="#E73638" stroke-width="2" stroke-linecap="round" stroke-linejoin="round"></path>
            <polyline id="Path" stroke="#E73638" stroke-width="2.00182" stroke-linecap="round" stroke-linejoin="round" points="43.415 13.485 42.888 7.501 48.867 6.964"></polyline>
        </g>
    </g>
</svg>