<?xml version="1.0" encoding="UTF-8"?>
<svg width="72px" height="72px" viewBox="0 0 72 72" version="1.1" xmlns="http://www.w3.org/2000/svg" xmlns:xlink="http://www.w3.org/1999/xlink">
    <!-- Generator: Sketch 55.2 (78181) - https://sketchapp.com -->
    <title>Icons / Settings</title>
    <desc>Created with Sketch.</desc>
    <g id="Icons-/-Settings" stroke="none" stroke-width="1" fill="none" fill-rule="evenodd">
        <g id="Iconos_72px-32" transform="translate(5.000000, 5.000000)" fill-rule="nonzero">
            <path d="M19.78571,35.2673 L19.78571,35.2673 C20.0649662,35.2674423 20.3439652,35.2842454 20.62122,35.31762 C24.2457847,35.7538429 26.9044516,38.9361632 26.6890046,42.5805208 C26.4735575,46.2248785 23.4584553,49.071777 19.80774,49.0779 C19.5283805,49.0779 19.249278,49.0609603 18.97192,49.02758 C15.3473659,48.5912685 12.6887744,45.4088869 12.9043033,41.7645341 C13.1198322,38.1201813 16.1349945,35.2733483 19.78571,35.2673 L19.78571,35.2673 Z M19.7854,33.2672993 C14.968567,33.2690983 11.0249548,37.098156 10.8812061,41.9128439 C10.7374574,46.7275318 14.445606,50.7850427 19.253752,51.0742071 C24.0618979,51.3633714 28.229602,47.7795183 28.663918,42.9823053 C29.0982339,38.1850923 25.6419492,33.9110009 20.86005,33.33193 C20.5034644,33.2887356 20.1445922,33.2672993 19.7854,33.2672993 L19.7854,33.2672993 Z" id="Shape" fill="#414345"></path>
            <path d="M17.66614,24.62145 L24.00885,25.38445 L23.58838,28.88 C23.4882586,29.7125277 23.9181007,30.5191195 24.665,30.90026 C25.9572041,31.5602951 27.1227186,32.4433064 28.10787,33.50863 C28.6739326,34.1191489 29.5590466,34.3150491 30.32987,34.00042 L33.57169,32.67776 L35.9863,38.59005 L32.70163,39.93569 C31.932287,40.2508495 31.4381612,41.0091083 31.46054,41.8402 C31.4745285,42.4077008 31.4464517,42.9754582 31.37654,43.53881 C31.3170228,44.0615733 31.2193693,44.5792864 31.08436,45.08781 C30.8662377,45.891434 31.1688595,46.7461211 31.84407,47.23344 L34.7953,49.36344 L31.0561,54.54376 L28.1944,52.47738 C27.5145786,51.9864868 26.6007145,51.9717903 25.90546,52.44057 C24.7050909,53.2518539 23.3709138,53.8448384 21.96436,54.19222 C21.1562255,54.3918303 20.5562137,55.0711058 20.45789,55.8977 L20.04382,59.3792 L13.70007,58.62527 L14.11847,55.10727 C14.2165057,54.282712 13.7948711,53.4833385 13.059,53.09863 C12.2214523,52.6580304 11.4386655,52.1203963 10.72679,51.49682 C10.1070956,50.9564159 9.21978244,50.8503944 8.49021,51.22958 L5.26713,52.90441 L2.3233,47.23312 L5.44922,45.6123 C6.19409225,45.2260993 6.61872192,44.4160265 6.51257,43.58373 C6.38529328,42.5756338 6.38283472,41.5556881 6.50525,40.54699 C6.55325,40.14809 6.62457,39.73165 6.72961,39.23638 C6.90003019,38.4328348 6.56183289,37.6067899 5.87683,37.15347 L2.962,35.22466 L6.48928,29.89507 L9.44436,31.85555 C10.1335496,32.3127695 11.0330762,32.2986159 11.70754,31.81994 C12.9271356,30.9492342 14.2960115,30.3094712 15.7463,29.93237 C16.5436463,29.7262789 17.1331549,29.0525134 17.23153,28.23486 L17.66616,24.62145 L17.66614,24.62145 Z M17.21362,22.56338 C16.4632561,22.5644711 15.8317183,23.1253898 15.74207,23.87038 L15.24579,27.996 C13.559974,28.4347574 11.9685573,29.1779714 10.55,30.189 L7.1645,27.943 C6.83631187,27.7251394 6.4349567,27.6467362 6.0489075,27.7250735 C5.6628583,27.8034107 5.32380966,28.0320568 5.1065,28.36061 L1.0094,34.55111 C0.792161151,34.8793494 0.714217638,35.2804448 0.792717263,35.6661541 C0.871216889,36.0518633 1.09972891,36.3905888 1.42798,36.60781 L4.77313,38.82137 C4.66956,39.30968 4.58075,39.79974 4.51959,40.30807 C4.37716529,41.4801833 4.38018822,42.6654084 4.52859,43.83678 L0.94446,45.69521 C0.594955425,45.8764529 0.331790068,46.1891443 0.212884843,46.5644628 C0.0939796178,46.9397814 0.129079772,47.3469667 0.31046,47.6964 L3.7298,54.284 C3.91101084,54.6336208 4.22382057,54.8968256 4.59927489,55.0155948 C4.97472921,55.134364 5.38200345,55.0989466 5.73132,54.91715 L9.41232,53.00431 C10.2425751,53.7312281 11.1555655,54.3578186 12.13242,54.87113 L11.65311,58.90149 C11.6065947,59.2923625 11.7172778,59.6857021 11.9608047,59.9949587 C12.2043316,60.3042153 12.5607486,60.5040495 12.95163,60.55049 L20.3201,61.42619 C20.7109819,61.4729558 21.1044178,61.3623737 21.4136989,61.1188148 C21.72298,60.875256 21.9227205,60.5187116 21.9689,60.12776 L22.4439,56.13395 C24.0779904,55.7294707 25.6281715,55.0406367 27.02355,54.09895 L30.30364,56.46742 C30.6227628,56.6979224 31.0204014,56.792169 31.4090306,56.7294149 C31.7976599,56.6666607 32.1454255,56.4520496 32.37578,56.13282 L36.71898,50.11576 C36.9493576,49.7966047 37.0435124,49.3990026 36.9807305,49.0104252 C36.9179487,48.6218478 36.7033731,48.2741268 36.38421,48.04376 L33.01458,45.61185 C33.1747179,45.0097006 33.2909267,44.3967193 33.36229,43.77774 C33.4435787,43.1172824 33.4761799,42.4517404 33.45983,41.7865 L37.22136,40.2455 C37.9792356,39.9350275 38.342341,39.0693057 38.0327,38.31109 L35.22826,31.4442 C35.0797704,31.0796538 34.7924178,30.7891135 34.4295319,30.6366113 C34.066646,30.484109 33.6580125,30.4821623 33.29369,30.6312 L29.57433,32.14868 C28.428577,30.9123492 27.0745976,29.8868458 25.57409,29.1189 L26.05609,25.11115 C26.1031195,24.7203632 25.9929732,24.3269005 25.7498849,24.0173295 C25.5067966,23.7077586 25.1506814,23.5074411 24.75989,23.46045 L17.3927,22.57422 C17.3332549,22.5670603 17.2734347,22.56338 17.21356,22.56338 L17.21362,22.56338 Z" id="Shape" fill="#414345"></path>
            <path d="M44.807,12.3182 L44.807,12.3182 C45.0431098,12.3183181 45.2790023,12.3325234 45.51342,12.36074 C48.575374,12.7292449 50.821401,15.4175379 50.6395171,18.4962189 C50.4576332,21.5748998 47.9106942,23.9800315 44.82665,23.98544 C44.59054,23.9853186 44.3546475,23.97111 44.12023,23.94289 C41.0583127,23.5743456 38.8123327,20.88607 38.9942148,17.8074207 C39.176097,14.7287714 41.7229876,12.3236517 44.807,12.3182 L44.807,12.3182 Z M44.80694,10.3182 C40.5697748,10.3197844 37.1007477,13.6880484 36.9743025,17.9233267 C36.8478573,22.1586051 40.1097643,25.7278227 44.3392882,25.982182 C48.5688121,26.2365414 52.2349608,23.0839701 52.617002,18.8640631 C52.9990432,14.644156 49.9586866,10.8844242 45.75225,10.37505 C45.4385637,10.3372499 45.1228956,10.3182 44.80694,10.3182 L44.80694,10.3182 Z" id="Shape" fill="#E73638"></path>
            <path d="M44.05406,2.98051 L49.15562,3.59419 L48.81443,6.4301 C48.7143373,7.26264864 49.144187,8.06924856 49.89109,8.45042 C51.0026389,9.01814201 52.005197,9.77769871 52.85258,10.6941 C53.4185938,11.3046428 54.3036951,11.5005632 55.0745,11.18593 L57.7035,10.11332 L59.6457,14.86885 L56.97877,15.96138 C56.2094088,16.2765341 55.715277,17.0348142 55.73768,17.86592 C55.7496336,18.3533202 55.7255212,18.840937 55.66554,19.32478 C55.6145247,19.7730635 55.5308456,20.2170238 55.41517,20.65312 C55.1969705,21.4567579 55.4995718,22.3115019 56.17481,22.79884 L58.57575,24.53163 L55.56831,28.69813 L53.2461,27.02134 C52.5662615,26.5304851 51.6524141,26.5158049 50.95716,26.98457 C49.9246603,27.6824177 48.7770594,28.19249 47.5672,28.4913 C46.7590311,28.6908837 46.1589861,29.3701776 46.06067,30.1968 L45.72491,33.02038 L40.62256,32.414 L40.96216,29.55838 C41.0602035,28.7338205 40.638545,27.9344479 39.90265,27.54978 C39.1826598,27.1709269 38.5097414,26.7086831 37.89777,26.17258 C37.2780519,25.6321762 36.390723,25.5261557 35.66113,25.90534 L33.03967,27.26764 L30.672,22.7062 L33.208,21.39126 C33.9527999,21.0050586 34.3773949,20.195058 34.27129,19.36282 C34.1618323,18.4956057 34.1597633,17.6182009 34.26513,16.75048 C34.30633,16.40748 34.36797,16.04787 34.45897,15.61892 C34.6294448,14.8153444 34.2912394,13.9892441 33.60619,13.53592 L31.2428,11.9721 L34.0798,7.68554 L36.47842,9.27691 C37.1676583,9.73414018 38.067234,9.71997073 38.74173,9.24126 C39.7906371,8.4923219 40.9679513,7.9420102 42.2153,7.61761 C43.0126228,7.41151683 43.6021082,6.73776257 43.70047,5.92013 L44.05411,2.98051 L44.05406,2.98051 Z M43.44586,0.9024 C42.7857843,0.903349213 42.2302315,1.39677146 42.15137,2.05212 L41.71478,5.68124 C40.231847,6.06719365 38.8319516,6.72096076 37.58411,7.61031 L34.60611,5.63458 C34.3174141,5.44292689 33.9643505,5.37395464 33.624752,5.44286817 C33.2851535,5.51178171 32.9869031,5.71292282 32.79575,6.00195 L29.19168,11.44753 C29.0005762,11.736266 28.9320102,12.0890961 29.0010681,12.4283897 C29.0701259,12.7676834 29.2711498,13.0656427 29.55991,13.25671 L32.50253,15.20388 C32.41141,15.63345 32.33322,16.06454 32.27945,16.51168 C32.1541958,17.542745 32.1568593,18.5853384 32.28738,19.61575 L29.13461,21.25051 C28.8271377,21.4099183 28.595612,21.6849754 28.4909963,22.0151356 C28.3863807,22.3452958 28.4172502,22.7034963 28.57681,23.01089 L31.58469,28.80569 C31.7440972,29.1132404 32.0192644,29.3447753 32.3495385,29.4492592 C32.6798126,29.553743 33.0380799,29.5225983 33.34537,29.36269 L36.58337,27.68002 C37.3137228,28.319454 38.1168448,28.870644 38.97614,29.3222 L38.5545,32.86755 C38.5136144,33.2113764 38.6109946,33.5573616 38.825216,33.8293862 C39.0394375,34.1014108 39.3529506,34.2771896 39.69678,34.31805 L46.17853,35.08837 C46.5223791,35.1295399 46.8684856,35.0322768 47.1405549,34.8180212 C47.4126241,34.6037656 47.5883191,34.2901079 47.62891,33.94619 L48.04669,30.43301 C49.4841471,30.0772011 50.8477913,29.471254 52.07526,28.64288 L54.96063,30.72631 C55.2413461,30.9290758 55.5911314,31.0119814 55.9329911,30.9567778 C56.2748508,30.9015742 56.5807629,30.7127862 56.78339,30.43197 L60.60394,25.139 C60.8065852,24.8582476 60.8893977,24.5084916 60.8341584,24.1666794 C60.7789191,23.8248671 60.5901533,23.5190001 60.30939,23.31637 L57.34528,21.17712 C57.4861585,20.6474285 57.5883939,20.1082077 57.65118,19.56371 C57.7226736,18.9827323 57.7513376,18.3972829 57.73694,17.8121 L61.04584,16.45657 C61.7125137,16.1834568 62.0319148,15.4219075 61.75952,14.75494 L59.29252,8.71444 C59.161898,8.39377473 58.9091337,8.13820625 58.589929,8.00405445 C58.2707243,7.86990265 57.9112774,7.8681778 57.5908,7.99926 L54.319,9.33413 C53.3111503,8.24657466 52.120112,7.344493 50.80017,6.669 L51.22424,3.14355 C51.2655969,2.79979621 51.1687041,2.45369271 50.9548769,2.18137854 C50.7410498,1.90906438 50.4278039,1.73284616 50.08405,1.69149 L43.60339,0.91192 C43.551117,0.90561003 43.4985125,0.9024 43.44586,0.9024 L43.44586,0.9024 Z" id="Shape" fill="#E73638"></path>
        </g>
    </g>
</svg>