<?xml version="1.0" encoding="UTF-8"?>
<svg width="72px" height="72px" viewBox="0 0 72 72" version="1.1" xmlns="http://www.w3.org/2000/svg" xmlns:xlink="http://www.w3.org/1999/xlink">
    <!-- Generator: Sketch 55.2 (78181) - https://sketchapp.com -->
    <title>Icons / South America</title>
    <desc>Created with Sketch.</desc>
    <g id="Icons-/-South-America" stroke="none" stroke-width="1" fill="none" fill-rule="evenodd" stroke-linecap="round">
        <g id="Iconos_72px-51" transform="translate(16.000000, 5.000000)" stroke-width="2">
            <path d="M10.0299,0.80839 L8.37914,0.78107 C7.82989728,0.771977839 7.37614768,1.20762228 7.36288,1.75678 L7.21906,8.02416" id="Path" stroke="#414345"></path>
            <path d="M15.60252,60.45633 L20.87913,43.789 C20.89556,42.79641 29.51703,34.00419 29.51703,34.00419 C29.8520211,33.4738004 30.4392945,33.1564264 31.06653,33.16681 L33.66353,33.20981 C34.1401908,33.2177018 34.6004637,33.0359168 34.943093,32.7044459 C35.2857224,32.372975 35.4826414,31.9189709 35.49053,31.44231 L35.57999,26.03805 C35.6100418,24.4951963 36.8803969,23.2662123 38.4234,23.28724 L38.4234,23.28724 C39.4159907,23.3036628 40.233962,22.5123305 40.2504,21.51974 L40.3258287,16.97739 C40.3388729,16.1746122 39.8181601,15.4603698 39.0498,15.22745 L29.51508,14.20161 C28.74672,13.96868 28.25908,11.2547 28.27239,10.45193 L28.28326,9.79568 C28.299318,8.82524491 27.6163188,7.98335271 26.66342,7.799 L15.54556,5.64789 C15.54556,5.64789 13.76163,4.81349 13.77806,3.82089 L13.81033,1.87111 C13.8147212,1.60592575 13.7135868,1.34985869 13.529176,1.15924227 C13.3447652,0.968625849 13.0921844,0.859074873 12.827,0.85469 L10.02988,0.80839" id="Path" stroke="#E73638" stroke-linejoin="round"></path>
            <path d="M7.21906,8.02416 C7.21117,8.50082 0.90479,13.20885 0.90479,13.20885 C0.58561438,13.5168735 0.392032741,13.9323352 0.3615,14.37485 C0.22336,16.38661 -0.01262,22.82161 0.25407,23.12698 C0.60975,23.53423 7.74989,29.82449 9.36266,31.87738 C9.61677067,32.2008451 9.75121683,32.6022263 9.74321,33.01349 L9.88379,58.71727 C9.86355032,59.3785256 10.1716151,60.0070054 10.70669,60.39606 L12.74821,61.88044 C13.2906715,62.2748536 14.0075983,62.3344552 14.6077419,62.0350321 C15.2078855,61.7356089 15.5914137,61.1269691 15.60252,60.45637" id="Path" stroke="#414345"></path>
        </g>
    </g>
</svg>