<?xml version="1.0" encoding="UTF-8"?>
<svg width="72px" height="72px" viewBox="0 0 72 72" version="1.1" xmlns="http://www.w3.org/2000/svg" xmlns:xlink="http://www.w3.org/1999/xlink">
    <!-- Generator: Sketch 55.2 (78181) - https://sketchapp.com -->
    <title>Icons / Star</title>
    <desc>Created with Sketch.</desc>
    <g id="Icons-/-Star" stroke="none" stroke-width="1" fill="none" fill-rule="evenodd">
        <g id="Iconos_72px-02" transform="translate(8.000000, 8.000000)">
            <path d="M39.17157,2 L54,16.82841 L54,54 L2,54 L2,2 L39.17157,2 L39.17157,2 Z M40,0 L2,0 C0.8954305,0 0,0.8954305 0,2 L0,54 C0,55.1045695 0.8954305,56 2,56 L54,56 C55.1045695,56 56,55.1045695 56,54 L56,16.82843 C56,16.2979943 55.7892856,15.7892838 55.41421,15.41421 L40,0 Z" id="Shape" fill="#3F4143" fill-rule="nonzero"></path>
            <polyline id="Path" stroke="#3F4143" stroke-width="2" stroke-linejoin="round" points="40 1.951 40 16 54.06 16"></polyline>
            <path d="M28,16 L31.71771,23.91071 L40,25.066 L34.08359,31.28817 L35.52063,40 L28.08414,35.91129 L20.64767,40 L22.08467,31.37773 L16,25.24411 L24.28122,23.91071 L28,16 L28,16 Z M28.00012,14 C27.225048,14 26.5197233,14.4476992 26.19,15.14914 L22.92056,22.104 L15.68207,23.26952 C14.9418921,23.3887021 14.3305307,23.9118318 14.0983436,24.624683 C13.8661565,25.3375342 14.052143,26.120373 14.58014,26.65262 L19.94354,32.05914 L18.67487,39.67114 C18.5488836,40.4270422 18.8658985,41.1884727 19.4911003,41.6316242 C20.1163022,42.0747757 20.9397528,42.1217226 21.61127,41.7525 L28.08414,38.1936 L34.55704,41.7525 C35.2280189,42.1214282 36.050744,42.0748751 36.6758224,41.6326107 C37.3009007,41.1903463 37.6185998,40.4300102 37.494,39.6745 L36.219,31.94485 L41.44944,26.44411 C41.9660336,25.9008334 42.1354229,25.114277 41.8882467,24.4065184 C41.6410706,23.6987597 41.0188421,23.1886662 40.27635,23.08511 L33.067,22.07956 L29.8101,15.14934 C29.4804428,14.4478789 28.7751823,14 28.00012,14 Z" id="Shape" fill="#E73638" fill-rule="nonzero"></path>
        </g>
    </g>
</svg>