<?xml version="1.0" encoding="UTF-8"?>
<svg width="72px" height="72px" viewBox="0 0 72 72" version="1.1" xmlns="http://www.w3.org/2000/svg" xmlns:xlink="http://www.w3.org/1999/xlink">
    <!-- Generator: Sketch 55.2 (78181) - https://sketchapp.com -->
    <title>Icons / Support</title>
    <desc>Created with Sketch.</desc>
    <g id="Icons-/-Support" stroke="none" stroke-width="1" fill="none" fill-rule="evenodd">
        <g id="Iconos_72px-28" transform="translate(8.000000, 14.000000)">
            <path d="M19.76818,8.57498 L34.90216,8.57498" id="Path" stroke="#E73638" stroke-width="1.99092" stroke-linecap="round" stroke-linejoin="round"></path>
            <path d="M7.1274,1.836 C10.6613897,-0.49012223 15.3918015,0.307182857 17.9680765,3.66318269 C20.5443516,7.01918252 20.0921848,11.7949585 16.9318468,14.6078203 C13.7715087,17.4206821 8.97551664,17.3160347 5.94088,14.368" id="Path" stroke="#E73638" stroke-width="1.99092" stroke-linecap="round" stroke-linejoin="round"></path>
            <path d="M48.87409,15.314 C45.340219,17.6411077 40.6091262,16.8445639 38.0320777,13.4885997 C35.4550292,10.1326356 35.9066732,5.35626255 39.0670879,2.54282105 C42.2275026,-0.270620448 47.024046,-0.166250726 50.05909,2.782" id="Path" stroke="#E73638" stroke-width="1.99092" stroke-linecap="round" stroke-linejoin="round"></path>
            <path d="M10.65073,24.20411 L12.163,37.41273 L3.85532,41.78059 C3.67184055,41.8793123 3.46693976,41.9315049 3.25859,41.9326323 C2.56699067,41.9382018 2.00066538,41.3842741 1.99097,40.69272 L1.99097,24.20411 L10.65078,24.20411 L10.65073,24.20411 Z M12.42678,22.21321 L0,22.21321 L0,40.69276 C0.00826528995,41.8308501 0.610476744,42.881935 1.5881208,43.4646266 C2.56576485,44.0473182 3.7767811,44.0769462 4.78175,43.54276 L14.296,38.5406 L12.4267,22.21321 L12.42678,22.21321 Z" id="Shape" fill="#3F4143" fill-rule="nonzero"></path>
            <path d="M31.90054,24.20411 C32.6249387,24.1909611 33.3000092,24.5698975 33.6660576,25.1951455 C34.0321059,25.8203935 34.0321059,26.5945465 33.6660576,27.2197945 C33.3000092,27.8450425 32.6249387,28.2239789 31.90054,28.21083 L26,28.21083 C25.0600591,28.2108231 24.2481649,28.8681972 24.0526309,29.7875749 C23.8570968,30.7069526 24.3311995,31.6378336 25.18979,32.02034 L37.18979,37.36647 C37.6304777,37.5627915 38.1274601,37.5924173 38.58835,37.44984 L50.57671,33.74147 C50.8079987,33.6806201 51.0461211,33.6496051 51.28528,33.64918 C52.7802623,33.642412 53.9986841,34.8469087 54.0091,36.34187 L54.0091,36.80387 L39.1481,43.01835 C37.7368624,43.6078619 36.1602977,43.6683493 34.70804,43.1887 L14.03555,36.35774 L12.67041,24.20411 L31.90054,24.20411 L31.90054,24.20411 Z M31.90054,22.2130393 L10.44334,22.2130393 L12.19949,37.84785 L34.08339,45.07905 C35.9911912,45.7092228 38.0623323,45.6297052 39.9162,44.85511 L56,38.12928 L56,36.34187 C55.9873517,33.7483593 53.8789878,31.6538363 51.28545,31.65827 C50.8596386,31.6585928 50.4357733,31.71572 50.02507,31.82814 L38,35.54786 L26,30.20173 L31.90056,30.20173 C33.3363524,30.214977 34.668784,29.4565858 35.3905315,28.215314 C36.112279,26.9740421 36.112279,25.4408979 35.3905315,24.199626 C34.668784,22.9583542 33.3363524,22.199963 31.90056,22.2130393 L31.90054,22.2130393 Z" id="Shape" fill="#3F4143" fill-rule="nonzero"></path>
        </g>
    </g>
</svg>