<?xml version="1.0" encoding="UTF-8"?>
<svg width="72px" height="72px" viewBox="0 0 72 72" version="1.1" xmlns="http://www.w3.org/2000/svg" xmlns:xlink="http://www.w3.org/1999/xlink">
    <!-- Generator: Sketch 55.2 (78181) - https://sketchapp.com -->
    <title>Icons / Target</title>
    <desc>Created with Sketch.</desc>
    <g id="Icons-/-Target" stroke="none" stroke-width="1" fill="none" fill-rule="evenodd">
        <g id="Iconos_72px-37" transform="translate(9.000000, 9.000000)">
            <path d="M38.74701,26.74699 L53.74701,26.74699" id="Path" stroke="#414345" stroke-width="2" stroke-linecap="round" stroke-linejoin="round"></path>
            <path d="M0.25304,26.74699 L15.25304,26.74699" id="Path" stroke="#414345" stroke-width="2" stroke-linecap="round" stroke-linejoin="round"></path>
            <path d="M27.00002,15.00001 L27.00002,1e-05" id="Path" stroke="#414345" stroke-width="2" stroke-linecap="round" stroke-linejoin="round"></path>
            <path d="M27.00002,53.49398 L27.00002,38.49398" id="Path" stroke="#414345" stroke-width="2" stroke-linecap="round" stroke-linejoin="round"></path>
            <path d="M1.48469,18.95313 C4.16269893,10.4931966 10.8535099,3.90660573 19.35444,1.36173" id="Path" stroke="#414345" stroke-width="1.9105" stroke-linecap="round" stroke-linejoin="round"></path>
            <path d="M27,9.006 C36.9378118,9.006 44.994,17.0621882 44.994,27 C44.994,36.9378118 36.9378118,44.994 27,44.994 C17.0621882,44.994 9.006,36.9378118 9.006,27 C9.01722572,17.0668418 17.0668418,9.01722572 27,9.006 L27,9.006 Z M27,7.006 C15.9576187,7.006 7.006,15.9576187 7.006,27 C7.006,38.0423813 15.9576187,46.994 27,46.994 C38.0423813,46.994 46.994,38.0423813 46.994,27 C46.994,21.6972615 44.8874953,16.6117094 41.137893,12.862107 C37.3882906,9.11250467 32.3027385,7.006 27,7.006 Z" id="Shape" fill="#414345" fill-rule="nonzero"></path>
            <path d="M27,17 C32.5228475,17 37,21.4771525 37,27 C37,32.5228475 32.5228475,37 27,37 C21.4771525,37 17,32.5228475 17,27 C17.0062329,21.4797363 21.4797363,17.0062329 27,17 L27,17 Z M27,15 C20.372583,15 15,20.372583 15,27 C15,33.627417 20.372583,39 27,39 C33.627417,39 39,33.627417 39,27 C39,23.8174021 37.7357179,20.7651552 35.4852814,18.5147186 C33.2348448,16.2642821 30.1825979,15 27,15 Z" id="Shape" fill="#E73638" fill-rule="nonzero"></path>
            <path d="M18.95315,52.51533 C10.4932166,49.8373211 3.90662573,43.1465101 1.36175,34.64558" id="Path" stroke="#414345" stroke-width="1.9105" stroke-linecap="round" stroke-linejoin="round"></path>
            <path d="M35.04689,1.48467 C43.5068234,4.16267893 50.0934143,10.8534899 52.63829,19.35442" id="Path" stroke="#414345" stroke-width="1.9105" stroke-linecap="round" stroke-linejoin="round"></path>
            <path d="M52.51535,35.04687 C49.8373411,43.5068034 43.1465301,50.0933943 34.6456,52.63827" id="Path" stroke="#414345" stroke-width="1.9105" stroke-linecap="round" stroke-linejoin="round"></path>
        </g>
    </g>
</svg>