<?xml version="1.0" encoding="UTF-8"?>
<svg width="72px" height="72px" viewBox="0 0 72 72" version="1.1" xmlns="http://www.w3.org/2000/svg" xmlns:xlink="http://www.w3.org/1999/xlink">
    <!-- Generator: Sketch 55.2 (78181) - https://sketchapp.com -->
    <title>Icons / Task</title>
    <desc>Created with Sketch.</desc>
    <g id="Icons-/-Task" stroke="none" stroke-width="1" fill="none" fill-rule="evenodd">
        <g id="Iconos_72px-13" transform="translate(12.000000, 4.000000)">
            <path d="M24.0007,2 C27.5917046,2.00480394 30.7292703,4.42708684 31.64285,7.89994 L16.35719,7.89994 C17.2712498,4.42683079 20.4093253,2.00458533 24.0007,2 L24.0007,2 Z M24.0007,-8.8817842e-16 C18.5333879,0.000657068799 14.1014215,4.43262792 14.10077,9.89994 L33.89923,9.89994 C33.89923,4.43290242 29.4677375,0.000773121889 24.0007,-8.8817842e-16 L24.0007,-8.8817842e-16 Z" id="Shape" fill="#3F4143" fill-rule="nonzero"></path>
            <path d="M46,10 L46,58 L2,58 L2,10 L46,10 L46,10 Z M0,10 L0,58 C0,59.1045695 0.8954305,60 2,60 L46,60 C47.1045695,60 48,59.1045695 48,58 L48,10 C48,8.8954305 47.1045695,8 46,8 L2,8 C0.8954305,8 0,8.8954305 0,10 Z" id="Shape" fill="#3F4143" fill-rule="nonzero"></path>
            <path d="M37.05322,9.8995 L37.05322,16.6545 L10.92171,16.6545 L10.92171,9.8995 L37.05322,9.8995 L37.05322,9.8995 Z M38.95274,8 L11.02219,8 C9.9176205,8 9.02219,8.8954305 9.02219,10 L9.02219,16.554 C9.02219,17.6585695 9.9176205,18.554 11.02219,18.554 L36.95274,18.554 C38.0573095,18.554 38.95274,17.6585695 38.95274,16.554 L38.95274,8 Z" id="Shape" fill="#3F4143" fill-rule="nonzero"></path>
            <polyline id="Path" stroke="#E73638" stroke-width="2" stroke-linecap="round" stroke-linejoin="round" points="9.79 40.166 17.466 48.462 38.481 23.538"></polyline>
        </g>
    </g>
</svg>