<?xml version="1.0" encoding="UTF-8"?>
<svg width="72px" height="72px" viewBox="0 0 72 72" version="1.1" xmlns="http://www.w3.org/2000/svg" xmlns:xlink="http://www.w3.org/1999/xlink">
    <!-- Generator: Sketch 55.2 (78181) - https://sketchapp.com -->
    <title>Icons / Team</title>
    <desc>Created with Sketch.</desc>
    <defs>
        <path d="M-1.24344979e-14,0 L0.5,11.7366568 L4.64353929,9.76726619 C17.8811798,13.9224221 24.5,16 24.5,16 C24.5,16 24.5,14.4828959 24.5,11.4486877 C25.407475,3.81622925 25.69992,0 25.377335,0 C25.05475,0 16.5956383,0 -1.24344979e-14,0 Z" id="path-1"></path>
    </defs>
    <g id="Icons-/-Team" stroke="none" stroke-width="1" fill="none" fill-rule="evenodd">
        <g id="Iconos_72px-70" transform="translate(7.000000, 8.000000)">
            <g id="Group" transform="translate(17.000000, 39.000000)" fill-rule="nonzero">
                <path d="M1.89918623,0.595059275 C2.19913777,1.15926103 2.56776803,1.68957623 3.00016,2.173 C3.13044,2.31865 5.14737,4.74256 5.15154,5.45155 L5.15978,6.8499 C5.16652,7.99506 4.82514,8.92444 7.24004,8.92444 L17.03176,8.92444 C19.44667,8.92444 19.10528,7.99502 19.11203,6.84986 L19.12026,5.45151 C19.12444,4.74251 21.14136,2.31861 21.27165,2.17296 C21.7856447,1.5983025 22.2095401,0.95738428 22.535064,0.272050246" id="Path" stroke="#414345" stroke-width="1.7" stroke-linecap="round" stroke-linejoin="round"></path>
                <path d="M2.15829,7.86777 L2.1615,9.56783 L22.1585,9.691 C22.323833,9.69217229 22.4570929,9.82681368 22.4565616,9.99215 L22.4132,15.99422 C22.4114033,16.1599735 22.2760407,16.2931376 22.11028,16.2922247 L2.11319,16.169 C1.94786013,16.1678989 1.81458562,16.0332424 1.81518795,15.86791 L1.85855,9.86577 C1.86000097,9.7010883 1.99367254,9.56822374 2.15836,9.56777 L2.15826,7.86777 L2.15829,7.86777 Z M2.15826,7.86777 C1.05904367,7.86798143 0.165997373,8.75520854 0.1586,9.8544 L0.115184883,15.85562 C0.111669503,16.3860548 0.3189747,16.8961777 0.691538617,17.273762 C1.06410253,17.6513463 1.57140504,17.8654606 2.10184,17.869 L22.09984,17.99223 L22.11361,17.99223 C23.2128154,17.9920182 24.1058373,17.1047709 24.11318,16.00559 L24.156586,10.00443 C24.1639489,8.89988536 23.2745446,7.9984689 22.17,7.99106 L2.172,7.86789 L2.15832,7.86777 L2.15826,7.86777 Z" id="Shape" fill="#E73638"></path>
            </g>
            <g id="Group" transform="translate(39.000000, 16.000000)" fill-rule="nonzero">
                <path d="M0.433770679,23.123916 C1.05703774,22.8640439 1.64798048,22.5206118 2.18928,22.09872 C2.33494,21.96843 4.75884,19.95152 5.46783,19.94734 L6.86619,19.9391 C8.01135,19.93236 8.94073,20.27374 8.94073,17.85885 L8.94073,8.06718 C8.94073,5.65229 8.01134,5.99368 6.86618,5.98693 L5.46783,5.97869 C4.75883,5.97452 2.33494,3.9576 2.18928,3.82731 C1.43764308,3.15502091 0.929471064,2.75878257 -4.70734562e-14,2.4132578" id="Path" stroke="#414345" stroke-width="1.7" stroke-linecap="round" stroke-linejoin="round"></path>
                <path d="M10.00708,0.94231 L10.00848,2.64235 L16.01056,2.68575 C16.0902757,2.68627781 16.1665035,2.71851124 16.2224145,2.77533408 C16.2783256,2.83215693 16.3093217,2.90889616 16.3085737,2.98861 L16.18539,22.98561 C16.1837442,23.1507295 16.0493777,23.28361 15.88425,23.28361 L9.88217,23.24027 C9.80245221,23.239721 9.72622921,23.2074739 9.67032135,23.1506449 C9.61441348,23.0938159 9.58341629,23.0170761 9.58415657,22.93736 L9.70734,2.94041 C9.70878503,2.77571353 9.84243798,2.64281846 10.00714,2.64231 L10.00708,0.94231 L10.00708,0.94231 Z M10.00708,0.94231 C8.90783323,0.94231 8.01476552,1.82977795 8.00739,2.929 L7.88417495,22.92693 C7.88066214,23.4573562 8.08796304,23.9674705 8.46051803,24.3450515 C8.83307302,24.7226324 9.34036374,24.93675 9.87079,24.9403 L15.87195,24.98369 L15.88562,24.98369 C16.9848315,24.98369 17.8778961,24.0963066 17.88531,22.99712 L18.0085255,2.99912 C18.01585,1.89459098 17.1264389,0.993212489 16.02191,0.98582 L10.02075,0.94231 L10.00708,0.94231 L10.00708,0.94231 Z" id="Shape" fill="#E73638"></path>
            </g>
            <g id="Group" transform="translate(16.000000, 0.000000)">
                <g id="Path" transform="translate(0.500000, 8.022874)">
                    <mask id="mask-2" fill="white">
                        <use xlink:href="#path-1"></use>
                    </mask>
                    <g id="Mask"></g>
                    <path d="M7.38689,2.02794649 C4.972,2.02794649 5.31338,2.95733649 5.30664,4.10249649 L5.2984,5.50085649 C5.29422,6.20985649 3.27731,8.63374649 3.14702,8.77939649 C1.8079239,10.6341234 1.09442794,12.8671827 1.11,15.1547465 L23.45557,15.1547465 C23.4711233,12.8671778 22.7576101,10.6341192 21.4185,8.77939649 C21.28821,8.63373649 19.2713,6.20983649 19.26712,5.50084649 L19.25888,4.10248649 C19.25214,2.95732649 19.59352,2.02794649 17.17863,2.02794649 L7.38689,2.02794649 Z" stroke="#414345" stroke-width="1.7" stroke-linecap="round" stroke-linejoin="round" fill-rule="nonzero" mask="url(#mask-2)"></path>
                </g>
                <path d="M2.80518,0.983 L2.80838,2.683 L22.80533,2.80617 C22.9706515,2.80736963 23.1038954,2.94199492 23.1033914,3.10732 L23.06,9.1094 C23.0582033,9.27515347 22.9228407,9.40831759 22.75708,9.40740471 L2.76,9.28421 C2.59467011,9.28307594 2.46142233,9.14839255 2.46205772,8.98306 L2.50546,2.981 C2.50691097,2.8163183 2.64058254,2.68345374 2.80527,2.683 L2.80518,0.983 L2.80518,0.983 Z M2.80518,0.983 C1.70595752,0.983200477 0.812901957,1.87043235 0.80551,2.96963 L0.762104046,8.97079 C0.754741105,10.0753346 1.64414536,10.9767511 2.74869,10.98416 L22.74669,11.10739 L22.76046,11.10739 C23.8596108,11.1071238 24.752581,10.2199458 24.76,9.12082 L24.8034051,3.1196 C24.8069179,2.58917379 24.599617,2.07905953 24.227062,1.70147855 C23.854507,1.32389757 23.3472163,1.10977996 22.81679,1.10623 L2.81885,0.983 L2.80518,0.983 Z" id="Shape" fill="#E73638" fill-rule="nonzero"></path>
            </g>
            <g id="Group" transform="translate(0.000000, 16.000000)">
                <path d="M24.52774,6.45694 L38.12812,6.54913 C38.6329208,6.55264445 39.1313338,6.66233382 39.59097,6.87107 C40.4701797,7.29374812 40.9397318,8.26871422 40.7220692,9.21965554 C40.5044066,10.1705969 39.6575021,11.0018569 38.68197,11 L40.00268,11 C40.5579719,10.9999982 41.0903663,11.0636897 41.4820248,11.4573299 C41.8736832,11.8509705 42.0923046,12.3844751 42.0898111,12.93976 L42.08895,13.0484 C42.0831497,14.1968038 41.1505485,15.1247036 40.00213,15.1247 L39.95004,15.1247 C40.5106391,15.1247011 41.047663,15.3502535 41.4401373,15.7505475 C41.8326116,16.1508414 42.047527,16.69221 42.03647,17.2527 L42.03097,17.53159 C42.0083107,18.6796967 41.0623284,19.5937717 39.91412,19.57704 L27.24728,19.40704 L37.59516,19.50817 C38.1531381,19.5142076 38.6854566,19.7434591 39.0732247,20.144722 C39.4609927,20.545985 39.6719067,21.0858318 39.65886,21.64369 C39.6322668,22.779725 38.7016193,23.6856659 37.56528,23.6819006 L18.37488,23.61456 C14.84588,23.6819006 14.1773,21.69298 13.33234,20.90085 C13.1397615,20.7097294 12.8942663,20.5807899 12.62761,20.53071 C11.49229,20.3489 9.57819,21.01131 9.95433,18.47225 L9.98642,8.2344 C9.98642,5.8195 10.9158,6.16088 12.06096,6.15414 L13.45932,6.1459 C14.16832,6.14172 16.59221,4.1248 16.73786,3.99451 C18.2153851,2.67297275 20.1309303,1.94704799 22.11321,1.95732995 L28.3636,2.02905 C29.7777958,2.03646982 30.9182145,3.18891418 30.9108,4.60311 C30.90338,6.01731 29.4718,6.51643 28.0576,6.50901 L24.52774,6.45694 Z" id="Path" stroke="#414345" stroke-width="1.7" stroke-linecap="round" stroke-linejoin="round" fill-rule="nonzero"></path>
                <path d="M3.04153,0.9347 L3.04291,2.63472 L9.04504,2.67812 C9.12475573,2.67864781 9.20098354,2.71088124 9.25689455,2.76770408 C9.31280555,2.82452693 9.34380172,2.90126616 9.34305371,2.98098 L9.21987,22.97817 C9.21825106,23.1432786 9.08386645,23.2760801 8.91875,23.2760801 L2.91665,23.23275 C2.83692879,23.2322063 2.76070114,23.1999596 2.70479184,23.1431272 C2.64888255,23.0862949 2.61788827,23.0095494 2.61863628,22.92983 L2.74182,2.9327 C2.74327097,2.7680183 2.87694254,2.63515374 3.04163,2.6347 L3.04153,0.9347 L3.04153,0.9347 Z M3.04153,0.9347 C1.94230917,0.9347 1.04925649,1.82213397 1.04187,2.92133 L0.918624948,22.91933 C0.915112142,23.4497562 1.12241304,23.9598705 1.49496803,24.3374515 C1.86752302,24.7150324 2.37481374,24.92915 2.90524,24.9327 L8.90643,24.97609 L8.9202,24.97609 C10.0193782,24.97609 10.912389,24.0886735 10.91977,22.98952 L11.0430155,2.99147 C11.05034,1.88694098 10.1609289,0.985562489 9.0564,0.97817 L3.05521,0.9347 L3.04153,0.9347 L3.04153,0.9347 Z" id="Shape" fill="#E73638" fill-rule="nonzero"></path>
                <path d="M40.00213,15.1247 L27.5,15.1247" id="Path-2" stroke="#414345" stroke-width="1.7" stroke-linecap="round"></path>
                <path d="M40.00213,11 L27.5,11" id="Path-2-Copy" stroke="#414345" stroke-width="1.7" stroke-linecap="round"></path>
            </g>
        </g>
    </g>
</svg>