<?xml version="1.0" encoding="UTF-8"?>
<svg width="72px" height="72px" viewBox="0 0 72 72" version="1.1" xmlns="http://www.w3.org/2000/svg" xmlns:xlink="http://www.w3.org/1999/xlink">
    <!-- Generator: Sketch 55.2 (78181) - https://sketchapp.com -->
    <title>Icons / Tech</title>
    <desc>Created with Sketch.</desc>
    <g id="Icons-/-Tech" stroke="none" stroke-width="1" fill="none" fill-rule="evenodd">
        <g id="Iconos_72px-05" transform="translate(9.000000, 9.000000)">
            <path d="M0,15.95759 L7.02931,15.95759" id="Path" stroke="#3F4143" stroke-width="1.99164" stroke-linecap="round" stroke-linejoin="round"></path>
            <path d="M0,27.00006 L7.02931,27.00006" id="Path" stroke="#3F4143" stroke-width="1.99164" stroke-linecap="round" stroke-linejoin="round"></path>
            <path d="M0,38.04265 L7.02931,38.04265" id="Path" stroke="#3F4143" stroke-width="1.99164" stroke-linecap="round" stroke-linejoin="round"></path>
            <path d="M44.98029,9.04659 L44.98029,44.95341 L9.01734,44.95341 L9.01734,9.04659 L44.98029,9.04659 L44.98029,9.04659 Z M9.01734,7.05177 C7.91738541,7.05352487 7.02711786,7.9466354 7.02886742,9.04659 L7.02886742,44.95341 C7.02711786,46.0533646 7.91738541,46.9464751 9.01734,46.94823 L44.98029,46.94823 C45.5085086,46.9473899 46.014759,46.7367499 46.3876715,46.3626484 C46.760584,45.988547 46.9696114,45.4816286 46.9687725,44.95341 L46.9687725,9.04659 C46.9696114,8.51837137 46.760584,8.01145303 46.3876715,7.63735157 C46.014759,7.26325011 45.5085086,7.05261007 44.98029,7.05177 L9.01734,7.05177 Z" id="Shape" fill="#3F4143" fill-rule="nonzero"></path>
            <path d="M36.78348,17.17837 L36.78348,36.82165 L17.21648,36.82165 L17.21648,17.17837 L36.78348,17.17837 L36.78348,17.17837 Z M36.94232,15.03106 L17.05765,15.03106 C15.9576993,15.0328149 15.0674334,15.9259193 15.0691774,17.02587 L15.0691774,36.97411 C15.0683227,37.5023382 15.2773414,38.0092715 15.6502531,38.3833872 C16.0231649,38.757503 16.5294218,38.9681546 17.05765,38.969 L36.94232,38.969 C38.0422755,38.9672286 38.9325366,38.0741156 38.9307926,36.97416 L38.9307926,17.02587 C38.9325256,15.9259239 38.0422661,15.0328259 36.94232,15.03106 L36.94232,15.03106 Z" id="Shape" fill="#E73638" fill-rule="nonzero"></path>
            <path d="M38.00724,0 L38.00724,7.05177" id="Path" stroke="#3F4143" stroke-width="1.99164" stroke-linecap="round" stroke-linejoin="round"></path>
            <path d="M26.99994,0 L26.99994,7.05177" id="Path" stroke="#3F4143" stroke-width="1.99164" stroke-linecap="round" stroke-linejoin="round"></path>
            <path d="M15.99251,0 L15.99251,7.05177" id="Path" stroke="#3F4143" stroke-width="1.99164" stroke-linecap="round" stroke-linejoin="round"></path>
            <path d="M54,38.04241 L46.97069,38.04241" id="Path" stroke="#3F4143" stroke-width="1.99164" stroke-linecap="round" stroke-linejoin="round"></path>
            <path d="M54,26.99994 L46.97069,26.99994" id="Path" stroke="#3F4143" stroke-width="1.99164" stroke-linecap="round" stroke-linejoin="round"></path>
            <path d="M54,15.95735 L46.97069,15.95735" id="Path" stroke="#3F4143" stroke-width="1.99164" stroke-linecap="round" stroke-linejoin="round"></path>
            <path d="M15.99276,54 L15.99276,46.94823" id="Path" stroke="#3F4143" stroke-width="1.99164" stroke-linecap="round" stroke-linejoin="round"></path>
            <path d="M27.00006,54 L27.00006,46.94823" id="Path" stroke="#3F4143" stroke-width="1.99164" stroke-linecap="round" stroke-linejoin="round"></path>
            <path d="M38.00749,54 L38.00749,46.94823" id="Path" stroke="#3F4143" stroke-width="1.99164" stroke-linecap="round" stroke-linejoin="round"></path>
        </g>
    </g>
</svg>