<?xml version="1.0" encoding="UTF-8"?>
<svg width="72px" height="72px" viewBox="0 0 72 72" version="1.1" xmlns="http://www.w3.org/2000/svg" xmlns:xlink="http://www.w3.org/1999/xlink">
    <!-- Generator: Sketch 55.2 (78181) - https://sketchapp.com -->
    <title>Icons / Telescope</title>
    <desc>Created with Sketch.</desc>
    <g id="Icons-/-Telescope" stroke="none" stroke-width="1" fill="none" fill-rule="evenodd">
        <g id="Iconos_72px-19" transform="translate(6.000000, 6.000000)">
            <polyline id="Path" stroke="#3F4143" stroke-width="2.01046" stroke-linecap="round" stroke-linejoin="round" points="26.435 60 38.522 53.98 50.608 60"></polyline>
            <path d="M38.52173,34.6861 L38.52173,53.98044" id="Path" stroke="#3F4143" stroke-width="2.01046" stroke-linecap="round" stroke-linejoin="round"></path>
            <polyline id="Path" stroke="#3F4143" stroke-width="2.01046" stroke-linecap="round" stroke-linejoin="round" points="6.452 48.155 1.61 43.331 6.858 38.103"></polyline>
            <path d="M15.1301,41.12439 L19.71424,45.69058 L7.53984,57.81734 L2.95569,53.25114 L15.1301,41.12439 L15.1301,41.12439 Z M15.1301,38.28674 L1.5313,51.83231 C1.15364548,52.2078832 0.941305535,52.7185205 0.941305535,53.251135 C0.941305535,53.7837495 1.15364548,54.2943868 1.5313,54.66996 L6.11544,59.23616 C6.90338563,60.0197594 8.17629437,60.0197594 8.96424,59.23616 L21.13864,47.10941 C21.5162945,46.7338368 21.7286345,46.2231995 21.7286345,45.690585 C21.7286345,45.1579705 21.5162945,44.6473332 21.13864,44.27176 L15.1301,38.28674 L15.1301,38.28674 Z" id="Shape" fill="#3F4143" fill-rule="nonzero"></path>
            <path d="M48.42785,2.06522 L58.9269,12.52317 L24.09853,47.21517 L13.59953,36.75722 L48.4279,2.06522 L48.42785,2.06522 Z M12.17509,38.17608 L22.67413,48.634 C23.4620756,49.4175994 24.7349844,49.4175994 25.52293,48.634 L60.35129,13.942 C60.7289414,13.5664272 60.9412794,13.055792 60.9412794,12.52318 C60.9412794,11.990568 60.7289414,11.4799328 60.35129,11.10436 L49.85225,0.64641 C49.0643044,-0.137189372 47.7913956,-0.137189372 47.00345,0.64641 L12.17509,35.33841 C11.7974293,35.713984 11.5850855,36.2246256 11.5850855,36.757245 C11.5850855,37.2898644 11.7974293,37.800506 12.17509,38.17608 Z" id="Shape" fill="#3F4143" fill-rule="nonzero"></path>
            <path d="M48.42785,2.06522 L58.92685,12.52322 L48.42785,22.98116 L37.9288,12.52317 L48.4278,2.06522 L48.42785,2.06522 Z M36.50441,13.942 L47.00341,24.39994 C47.7913556,25.1835394 49.0642644,25.1835394 49.85221,24.39994 L60.35129,13.942 C60.7289445,13.5664268 60.9412845,13.0557895 60.9412845,12.523175 C60.9412845,11.9905605 60.7289445,11.4799232 60.35129,11.10435 L49.85225,0.6464 C49.0643044,-0.137199372 47.7913956,-0.137199372 47.00345,0.6464 L36.50445,11.10434 C36.1267871,11.4799083 35.9144305,11.9905448 35.9144305,12.5231617 C35.9144305,13.0557786 36.1267577,13.5664211 36.50441,13.942 Z" id="Shape" fill="#E73638" fill-rule="nonzero"></path>
        </g>
    </g>
</svg>