<?xml version="1.0" encoding="UTF-8"?>
<svg width="72px" height="72px" viewBox="0 0 72 72" version="1.1" xmlns="http://www.w3.org/2000/svg" xmlns:xlink="http://www.w3.org/1999/xlink">
    <!-- Generator: Sketch 55.2 (78181) - https://sketchapp.com -->
    <title>Icons / Training</title>
    <desc>Created with Sketch.</desc>
    <g id="Icons-/-Training" stroke="none" stroke-width="1" fill="none" fill-rule="evenodd">
        <g id="Iconos_72px-24" transform="translate(7.500000, 7.000000)">
            <g id="Group" transform="translate(0.000000, 29.000000)" fill="#3F4143" fill-rule="nonzero">
                <path d="M6.50684,11.71062 L17.25484,22.45862 L13.7467,25.9668 L2.9987,15.2188 L6.50686,11.71062 L6.50684,11.71062 Z M6.5228,8.86626 L1.56853,13.82051 C0.787486166,14.6015578 0.787486166,15.8678822 1.56853,16.64893 L12.31653,27.39693 C13.0975778,28.1779738 14.3639022,28.1779738 15.14495,27.39693 L18.68495,23.85693 C19.0600236,23.4818571 19.2707379,22.9731487 19.2707379,22.442715 C19.2707379,21.9122813 19.0600236,21.4035729 18.68495,21.0285 L6.52278,8.86626 L6.5228,8.86626 Z" id="Shape"></path>
                <path d="M6.9266,2.23984 L26.7256,22.03889 L23.21743,25.547 L3.41843,5.748 L6.92659,2.23984 L6.9266,2.23984 Z M1.98829,7.1782 L21.78729,26.9772 C22.5683378,27.7582438 23.8346622,27.7582438 24.61571,26.9772 L28.15571,23.4372 C28.5307836,23.0621271 28.7414979,22.5534187 28.7414979,22.022985 C28.7414979,21.4925513 28.5307836,20.9838429 28.15571,20.60877 L8.35671,0.80977 C7.98163713,0.434696364 7.47292868,0.223982125 6.942495,0.223982125 C6.41206132,0.223982125 5.90335287,0.434696364 5.52828,0.80977 L1.98828,4.34977 C1.61320769,4.7248442 1.40249712,5.23355339 1.40249712,5.76398707 C1.40249712,6.29442076 1.61321504,6.80312845 1.98829,7.1782 Z" id="Shape"></path>
            </g>
            <path d="M18.27351,39.72649 L39.72645,18.27355" id="Path" stroke="#E73638" stroke-width="2"></path>
            <g id="Group" transform="translate(29.000000, 0.000000)" fill="#3F4143" fill-rule="nonzero">
                <path d="M22.45864,17.25486 L11.71064,6.50686 L15.2188,2.9987 L25.9668,13.7467 L22.45864,17.25486 L22.45864,17.25486 Z M22.4427,20.09922 L27.397,15.145 C28.1780438,14.3639522 28.1780438,13.0976278 27.397,12.31658 L16.649,1.56858 C16.2739271,1.19350636 15.7652187,0.982792125 15.234785,0.982792125 C14.7043513,0.982792125 14.1956429,1.19350636 13.82057,1.56858 L10.28057,5.10858 C9.90549636,5.48365287 9.69478212,5.99236132 9.69478212,6.522795 C9.69478212,7.05322868 9.90549636,7.56193713 10.28057,7.93701 L22.4427,20.09922 L22.4427,20.09922 Z" id="Shape"></path>
                <path d="M22.03888,26.72559 L2.23988,6.92659 L5.74804,3.41843 L25.54704,23.21743 L22.03888,26.72559 L22.03888,26.72559 Z M26.97719,21.78728 L7.17819,1.98828 C6.80311713,1.61320636 6.29440868,1.40249212 5.763975,1.40249212 C5.23354132,1.40249212 4.72483287,1.61320636 4.34976,1.98828 L0.80976,5.52828 C0.434686364,5.90335287 0.223972125,6.41206132 0.223972125,6.942495 C0.223972125,7.47292868 0.434686364,7.98163713 0.80976,8.35671 L20.60876,28.15571 C20.9838329,28.5307836 21.4925413,28.7414979 22.022975,28.7414979 C22.5534087,28.7414979 23.0621171,28.5307836 23.43719,28.15571 L26.97719,24.61571 C27.3522636,24.2406371 27.5629779,23.7319287 27.5629779,23.201495 C27.5629779,22.6710613 27.3522636,22.1623529 26.97719,21.78728 L26.97719,21.78728 Z" id="Shape"></path>
            </g>
        </g>
    </g>
</svg>