<?xml version="1.0" encoding="UTF-8"?>
<svg width="72px" height="72px" viewBox="0 0 72 72" version="1.1" xmlns="http://www.w3.org/2000/svg" xmlns:xlink="http://www.w3.org/1999/xlink">
    <!-- Generator: Sketch 55.2 (78181) - https://sketchapp.com -->
    <title>Icons / Treasure</title>
    <desc>Created with Sketch.</desc>
    <g id="Icons-/-Treasure" stroke="none" stroke-width="1" fill="none" fill-rule="evenodd">
        <g id="Iconos_72px-55" transform="translate(8.000000, 14.000000)">
            <path d="M1.89697,20 L19.51472,20" id="Path" stroke="#E73638" stroke-width="2.00182" stroke-linecap="round" stroke-linejoin="round"></path>
            <path d="M37.02138,20 L54.63913,20" id="Path" stroke="#E73638" stroke-width="2.00182" stroke-linecap="round" stroke-linejoin="round"></path>
            <rect id="Rectangle" stroke="#E73638" stroke-width="2.00182" stroke-linecap="round" stroke-linejoin="round" x="19.51472" y="11.51472" width="16.97056" height="16.97056" rx="2"></rect>
            <path d="M28.07735,16.73936 L28.07735,23.61218" id="Path" stroke="#E73638" stroke-width="2.00182" stroke-linecap="round" stroke-linejoin="round"></path>
            <path d="M40,2 C47.7283564,2.00875678 53.9912432,8.27164359 54,16 L54,42 L2.15466,42 L2.15466,16 C2.16341678,8.27164359 8.42630359,2.00875678 16.15466,2 L40,2 L40,2 Z M40,-3.55271368e-15 L16.15466,-3.55271368e-15 C7.318104,-3.55271368e-15 0.15466,7.163444 0.15466,16 L0.15466,42 C0.15466,43.1045695 1.0500905,44 2.15466,44 L54,44 C55.1045695,44 56,43.1045695 56,42 L56,16 C56,7.163444 48.836556,-3.55271368e-15 40,-3.55271368e-15 Z" id="Shape" fill="#414345" fill-rule="nonzero"></path>
            <path d="M9.91974,44 L9.91974,2.08147" id="Path" stroke="#414345" stroke-width="2"></path>
            <path d="M45.72769,44 L45.72769,2.08147" id="Path" stroke="#414345" stroke-width="2"></path>
        </g>
    </g>
</svg>